<svg width="306" height="144" viewBox="0 0 306 144" fill="none" xmlns="http://www.w3.org/2000/svg">
<g filter="url(#filter0_d_2606_8262)">
<rect x="12" y="8" width="282" height="120" rx="20" fill="url(#paint0_linear_2606_8262)" fill-opacity="0.5" shape-rendering="crispEdges"/>
<path d="M53.9748 37.3622H51.3185C51.2428 36.9266 51.1031 36.5407 50.8995 36.2045C50.6959 35.8636 50.4426 35.5748 50.1396 35.3381C49.8365 35.1013 49.4909 34.9238 49.1026 34.8054C48.7191 34.6823 48.3048 34.6207 47.8597 34.6207C47.069 34.6207 46.3683 34.8196 45.7575 35.2173C45.1467 35.6103 44.6684 36.188 44.3228 36.9503C43.9772 37.7079 43.8043 38.6335 43.8043 39.7273C43.8043 40.84 43.9772 41.7775 44.3228 42.5398C44.6732 43.2973 45.1514 43.8703 45.7575 44.2585C46.3683 44.642 47.0666 44.8338 47.8526 44.8338C48.2882 44.8338 48.6954 44.777 49.0742 44.6634C49.4577 44.545 49.801 44.3722 50.104 44.1449C50.4118 43.9176 50.6699 43.6383 50.8782 43.3068C51.0913 42.9754 51.238 42.5966 51.3185 42.1705L53.9748 42.1847C53.8754 42.8759 53.6599 43.5246 53.3285 44.1307C53.0018 44.7367 52.5733 45.2718 52.043 45.7358C51.5127 46.1951 50.8924 46.5549 50.1822 46.8153C49.4719 47.071 48.6836 47.1989 47.8171 47.1989C46.5387 47.1989 45.3976 46.9029 44.3938 46.3111C43.39 45.7192 42.5993 44.8646 42.0217 43.7472C41.444 42.6297 41.1552 41.2898 41.1552 39.7273C41.1552 38.16 41.4464 36.8201 42.0288 35.7074C42.6112 34.59 43.4042 33.7353 44.408 33.1435C45.4118 32.5516 46.5482 32.2557 47.8171 32.2557C48.6268 32.2557 49.3796 32.3693 50.0756 32.5966C50.7717 32.8239 51.3919 33.1577 51.9364 33.598C52.4809 34.0336 52.9284 34.5687 53.2788 35.2031C53.6339 35.8329 53.8659 36.5526 53.9748 37.3622ZM61.0327 47.2131C59.9673 47.2131 59.044 46.9787 58.2628 46.5099C57.4815 46.0412 56.8755 45.3854 56.4446 44.5426C56.0185 43.6998 55.8054 42.715 55.8054 41.5881C55.8054 40.4612 56.0185 39.474 56.4446 38.6264C56.8755 37.7789 57.4815 37.1207 58.2628 36.652C59.044 36.1832 59.9673 35.9489 61.0327 35.9489C62.098 35.9489 63.0213 36.1832 63.8026 36.652C64.5838 37.1207 65.1875 37.7789 65.6136 38.6264C66.0445 39.474 66.2599 40.4612 66.2599 41.5881C66.2599 42.715 66.0445 43.6998 65.6136 44.5426C65.1875 45.3854 64.5838 46.0412 63.8026 46.5099C63.0213 46.9787 62.098 47.2131 61.0327 47.2131ZM61.0469 45.1534C61.6245 45.1534 62.1075 44.9948 62.4957 44.6776C62.884 44.3556 63.1728 43.9247 63.3622 43.3849C63.5563 42.8452 63.6534 42.2438 63.6534 41.581C63.6534 40.9134 63.5563 40.3097 63.3622 39.7699C63.1728 39.2254 62.884 38.7921 62.4957 38.4702C62.1075 38.1482 61.6245 37.9872 61.0469 37.9872C60.455 37.9872 59.9626 38.1482 59.5696 38.4702C59.1813 38.7921 58.8902 39.2254 58.696 39.7699C58.5066 40.3097 58.4119 40.9134 58.4119 41.581C58.4119 42.2438 58.5066 42.8452 58.696 43.3849C58.8902 43.9247 59.1813 44.3556 59.5696 44.6776C59.9626 44.9948 60.455 45.1534 61.0469 45.1534ZM68.4421 47V36.0909H70.935V37.9091H71.0487C71.2475 37.2794 71.5884 36.794 72.0714 36.4531C72.5591 36.1075 73.1154 35.9347 73.7404 35.9347C73.8825 35.9347 74.0411 35.9418 74.2163 35.956C74.3962 35.9654 74.5453 35.982 74.6637 36.0057V38.3707C74.5548 38.3329 74.382 38.2997 74.1452 38.2713C73.9132 38.2382 73.6883 38.2216 73.4705 38.2216C73.0018 38.2216 72.5804 38.3234 72.2063 38.527C71.837 38.7259 71.5458 39.0028 71.3327 39.358C71.1197 39.7131 71.0131 40.1226 71.0131 40.5866V47H68.4421ZM80.7521 47.2131C79.6584 47.2131 78.7138 46.9858 77.9183 46.5312C77.1276 46.072 76.5192 45.4233 76.093 44.5852C75.6669 43.7424 75.4538 42.7505 75.4538 41.6094C75.4538 40.4872 75.6669 39.5024 76.093 38.6548C76.5239 37.8026 77.1252 37.1397 77.897 36.6662C78.6688 36.188 79.5755 35.9489 80.6172 35.9489C81.2895 35.9489 81.924 36.0578 82.5206 36.2756C83.1219 36.4886 83.6522 36.8201 84.1115 37.2699C84.5755 37.7197 84.9401 38.2926 85.2053 38.9886C85.4704 39.6799 85.603 40.5038 85.603 41.4602V42.2486H76.6612V40.5156H83.1385C83.1338 40.0232 83.0272 39.5852 82.8189 39.2017C82.6106 38.8134 82.3194 38.508 81.9453 38.2855C81.576 38.063 81.1451 37.9517 80.6527 37.9517C80.1271 37.9517 79.6655 38.0795 79.2678 38.3352C78.87 38.5862 78.5599 38.9176 78.3374 39.3295C78.1196 39.7367 78.0083 40.1842 78.0036 40.6719V42.1847C78.0036 42.8191 78.1196 43.3636 78.3516 43.8182C78.5836 44.268 78.9079 44.6136 79.3246 44.8551C79.7412 45.0919 80.2289 45.2102 80.7876 45.2102C81.1617 45.2102 81.5002 45.1581 81.8033 45.054C82.1063 44.9451 82.3691 44.7865 82.5916 44.5781C82.8142 44.3698 82.9822 44.1117 83.0959 43.804L85.4964 44.0739C85.3449 44.7083 85.0561 45.2623 84.63 45.7358C84.2086 46.2045 83.6688 46.5691 83.0107 46.8295C82.3525 47.0852 81.5997 47.2131 80.7521 47.2131ZM101.361 38.9744L99.0174 39.2301C98.9511 38.9934 98.8351 38.7708 98.6694 38.5625C98.5084 38.3542 98.2906 38.1861 98.016 38.0582C97.7414 37.9304 97.4052 37.8665 97.0075 37.8665C96.4724 37.8665 96.0226 37.9825 95.658 38.2145C95.2982 38.4465 95.1206 38.7472 95.1254 39.1165C95.1206 39.4337 95.2366 39.6918 95.4734 39.8906C95.7148 40.0895 96.1126 40.2528 96.6665 40.3807L98.5273 40.7784C99.5595 41.0009 100.327 41.3537 100.828 41.8366C101.335 42.3196 101.591 42.9517 101.596 43.733C101.591 44.4195 101.39 45.0256 100.992 45.5511C100.599 46.072 100.052 46.4792 99.3512 46.7727C98.6504 47.0663 97.8455 47.2131 96.9364 47.2131C95.6012 47.2131 94.5264 46.9337 93.712 46.375C92.8976 45.8116 92.4123 45.0279 92.256 44.0241L94.7631 43.7827C94.8768 44.2751 95.1183 44.6468 95.4876 44.8977C95.8569 45.1487 96.3375 45.2741 96.9293 45.2741C97.5401 45.2741 98.0302 45.1487 98.3995 44.8977C98.7736 44.6468 98.9606 44.3366 98.9606 43.9673C98.9606 43.6548 98.8398 43.3968 98.5984 43.1932C98.3616 42.9896 97.9923 42.8333 97.4904 42.7244L95.6296 42.3338C94.5832 42.116 93.8091 41.7491 93.3072 41.233C92.8053 40.7121 92.5567 40.054 92.5614 39.2585C92.5567 38.5862 92.739 38.0038 93.1083 37.5114C93.4824 37.0142 94.0008 36.6307 94.6637 36.3608C95.3313 36.0862 96.1007 35.9489 96.9719 35.9489C98.2504 35.9489 99.2565 36.2211 99.9904 36.7656C100.729 37.3101 101.186 38.0464 101.361 38.9744ZM105.314 51.0909C104.963 51.0909 104.639 51.0625 104.341 51.0057C104.047 50.9536 103.813 50.892 103.637 50.821L104.234 48.8182C104.608 48.9271 104.942 48.9792 105.235 48.9744C105.529 48.9697 105.787 48.8774 106.01 48.6974C106.237 48.5223 106.429 48.2287 106.585 47.8168L106.805 47.2273L102.849 36.0909H105.576L108.091 44.3295H108.204L110.725 36.0909H113.46L109.092 48.321C108.888 48.8987 108.618 49.3935 108.282 49.8054C107.946 50.2221 107.534 50.5393 107.047 50.7571C106.564 50.9796 105.986 51.0909 105.314 51.0909ZM123.861 38.9744L121.517 39.2301C121.451 38.9934 121.335 38.7708 121.169 38.5625C121.008 38.3542 120.791 38.1861 120.516 38.0582C120.241 37.9304 119.905 37.8665 119.507 37.8665C118.972 37.8665 118.523 37.9825 118.158 38.2145C117.798 38.4465 117.621 38.7472 117.625 39.1165C117.621 39.4337 117.737 39.6918 117.973 39.8906C118.215 40.0895 118.613 40.2528 119.167 40.3807L121.027 40.7784C122.06 41.0009 122.827 41.3537 123.328 41.8366C123.835 42.3196 124.091 42.9517 124.096 43.733C124.091 44.4195 123.89 45.0256 123.492 45.5511C123.099 46.072 122.552 46.4792 121.851 46.7727C121.15 47.0663 120.346 47.2131 119.436 47.2131C118.101 47.2131 117.026 46.9337 116.212 46.375C115.398 45.8116 114.912 45.0279 114.756 44.0241L117.263 43.7827C117.377 44.2751 117.618 44.6468 117.988 44.8977C118.357 45.1487 118.837 45.2741 119.429 45.2741C120.04 45.2741 120.53 45.1487 120.9 44.8977C121.274 44.6468 121.461 44.3366 121.461 43.9673C121.461 43.6548 121.34 43.3968 121.098 43.1932C120.862 42.9896 120.492 42.8333 119.99 42.7244L118.13 42.3338C117.083 42.116 116.309 41.7491 115.807 41.233C115.305 40.7121 115.057 40.054 115.061 39.2585C115.057 38.5862 115.239 38.0038 115.608 37.5114C115.982 37.0142 116.501 36.6307 117.164 36.3608C117.831 36.0862 118.601 35.9489 119.472 35.9489C120.75 35.9489 121.757 36.2211 122.49 36.7656C123.229 37.3101 123.686 38.0464 123.861 38.9744ZM131.663 36.0909V38.0795H125.392V36.0909H131.663ZM126.94 33.4773H129.511V43.7188C129.511 44.0644 129.563 44.3295 129.667 44.5142C129.776 44.6941 129.918 44.8172 130.093 44.8835C130.269 44.9498 130.463 44.983 130.676 44.983C130.837 44.983 130.984 44.9711 131.116 44.9474C131.253 44.9238 131.358 44.9025 131.429 44.8835L131.862 46.8935C131.725 46.9408 131.528 46.9929 131.272 47.0497C131.021 47.1065 130.714 47.1397 130.349 47.1491C129.705 47.1681 129.125 47.071 128.609 46.858C128.093 46.6402 127.683 46.304 127.38 45.8494C127.082 45.3949 126.935 44.8267 126.94 44.1449V33.4773ZM138.526 47.2131C137.432 47.2131 136.487 46.9858 135.692 46.5312C134.901 46.072 134.293 45.4233 133.866 44.5852C133.44 43.7424 133.227 42.7505 133.227 41.6094C133.227 40.4872 133.44 39.5024 133.866 38.6548C134.297 37.8026 134.899 37.1397 135.67 36.6662C136.442 36.188 137.349 35.9489 138.391 35.9489C139.063 35.9489 139.697 36.0578 140.294 36.2756C140.895 36.4886 141.426 36.8201 141.885 37.2699C142.349 37.7197 142.714 38.2926 142.979 38.9886C143.244 39.6799 143.376 40.5038 143.376 41.4602V42.2486H134.435V40.5156H140.912C140.907 40.0232 140.801 39.5852 140.592 39.2017C140.384 38.8134 140.093 38.508 139.719 38.2855C139.349 38.063 138.919 37.9517 138.426 37.9517C137.901 37.9517 137.439 38.0795 137.041 38.3352C136.643 38.5862 136.333 38.9176 136.111 39.3295C135.893 39.7367 135.782 40.1842 135.777 40.6719V42.1847C135.777 42.8191 135.893 43.3636 136.125 43.8182C136.357 44.268 136.681 44.6136 137.098 44.8551C137.515 45.0919 138.002 45.2102 138.561 45.2102C138.935 45.2102 139.274 45.1581 139.577 45.054C139.88 44.9451 140.143 44.7865 140.365 44.5781C140.588 44.3698 140.756 44.1117 140.869 43.804L143.27 44.0739C143.118 44.7083 142.83 45.2623 142.403 45.7358C141.982 46.2045 141.442 46.5691 140.784 46.8295C140.126 47.0852 139.373 47.2131 138.526 47.2131ZM145.551 47V36.0909H148.009V37.9446H148.137C148.364 37.3196 148.74 36.8319 149.266 36.4815C149.792 36.1264 150.419 35.9489 151.148 35.9489C151.887 35.9489 152.509 36.1288 153.016 36.4886C153.527 36.8437 153.887 37.3291 154.096 37.9446H154.209C154.451 37.3385 154.858 36.8556 155.431 36.4957C156.008 36.1312 156.693 35.9489 157.483 35.9489C158.487 35.9489 159.306 36.2661 159.941 36.9006C160.575 37.535 160.892 38.4607 160.892 39.6776V47H158.314V40.0753C158.314 39.3982 158.134 38.9034 157.775 38.5909C157.415 38.2737 156.974 38.1151 156.453 38.1151C155.833 38.1151 155.348 38.3092 154.998 38.6974C154.652 39.081 154.479 39.5805 154.479 40.196V47H151.958V39.9688C151.958 39.4053 151.787 38.9555 151.446 38.6193C151.11 38.2831 150.67 38.1151 150.125 38.1151C149.756 38.1151 149.42 38.2098 149.117 38.3991C148.814 38.5838 148.572 38.8466 148.392 39.1875C148.212 39.5237 148.123 39.9167 148.123 40.3665V47H145.551ZM172.123 38.9744L169.779 39.2301C169.713 38.9934 169.597 38.7708 169.431 38.5625C169.27 38.3542 169.052 38.1861 168.778 38.0582C168.503 37.9304 168.167 37.8665 167.769 37.8665C167.234 37.8665 166.784 37.9825 166.42 38.2145C166.06 38.4465 165.882 38.7472 165.887 39.1165C165.882 39.4337 165.998 39.6918 166.235 39.8906C166.477 40.0895 166.874 40.2528 167.428 40.3807L169.289 40.7784C170.321 41.0009 171.088 41.3537 171.59 41.8366C172.097 42.3196 172.353 42.9517 172.357 43.733C172.353 44.4195 172.151 45.0256 171.754 45.5511C171.361 46.072 170.814 46.4792 170.113 46.7727C169.412 47.0663 168.607 47.2131 167.698 47.2131C166.363 47.2131 165.288 46.9337 164.474 46.375C163.659 45.8116 163.174 45.0279 163.018 44.0241L165.525 43.7827C165.638 44.2751 165.88 44.6468 166.249 44.8977C166.619 45.1487 167.099 45.2741 167.691 45.2741C168.302 45.2741 168.792 45.1487 169.161 44.8977C169.535 44.6468 169.722 44.3366 169.722 43.9673C169.722 43.6548 169.602 43.3968 169.36 43.1932C169.123 42.9896 168.754 42.8333 168.252 42.7244L166.391 42.3338C165.345 42.116 164.571 41.7491 164.069 41.233C163.567 40.7121 163.318 40.054 163.323 39.2585C163.318 38.5862 163.501 38.0038 163.87 37.5114C164.244 37.0142 164.763 36.6307 165.425 36.3608C166.093 36.0862 166.862 35.9489 167.734 35.9489C169.012 35.9489 170.018 36.2211 170.752 36.7656C171.491 37.3101 171.948 38.0464 172.123 38.9744ZM184.197 47.2131C183.131 47.2131 182.208 46.9787 181.427 46.5099C180.646 46.0412 180.04 45.3854 179.609 44.5426C179.183 43.6998 178.969 42.715 178.969 41.5881C178.969 40.4612 179.183 39.474 179.609 38.6264C180.04 37.7789 180.646 37.1207 181.427 36.652C182.208 36.1832 183.131 35.9489 184.197 35.9489C185.262 35.9489 186.185 36.1832 186.967 36.652C187.748 37.1207 188.352 37.7789 188.778 38.6264C189.209 39.474 189.424 40.4612 189.424 41.5881C189.424 42.715 189.209 43.6998 188.778 44.5426C188.352 45.3854 187.748 46.0412 186.967 46.5099C186.185 46.9787 185.262 47.2131 184.197 47.2131ZM184.211 45.1534C184.789 45.1534 185.272 44.9948 185.66 44.6776C186.048 44.3556 186.337 43.9247 186.526 43.3849C186.72 42.8452 186.817 42.2438 186.817 41.581C186.817 40.9134 186.72 40.3097 186.526 39.7699C186.337 39.2254 186.048 38.7921 185.66 38.4702C185.272 38.1482 184.789 37.9872 184.211 37.9872C183.619 37.9872 183.127 38.1482 182.734 38.4702C182.345 38.7921 182.054 39.2254 181.86 39.7699C181.671 40.3097 181.576 40.9134 181.576 41.581C181.576 42.2438 181.671 42.8452 181.86 43.3849C182.054 43.9247 182.345 44.3556 182.734 44.6776C183.127 44.9948 183.619 45.1534 184.211 45.1534ZM197.132 36.0909V38.0795H190.683V36.0909H197.132ZM192.295 47V35.0611C192.295 34.3272 192.447 33.7164 192.75 33.2287C193.057 32.741 193.469 32.3764 193.985 32.1349C194.502 31.8935 195.074 31.7727 195.704 31.7727C196.149 31.7727 196.545 31.8082 196.89 31.8793C197.236 31.9503 197.492 32.0142 197.657 32.071L197.146 34.0597C197.037 34.0265 196.9 33.9934 196.734 33.9602C196.568 33.9223 196.384 33.9034 196.18 33.9034C195.702 33.9034 195.363 34.0194 195.164 34.2514C194.97 34.4787 194.873 34.8054 194.873 35.2315V47H192.295ZM204.106 47V36.0909H206.599V37.9091H206.713C206.912 37.2794 207.252 36.794 207.735 36.4531C208.223 36.1075 208.779 35.9347 209.404 35.9347C209.547 35.9347 209.705 35.9418 209.88 35.956C210.06 35.9654 210.209 35.982 210.328 36.0057V38.3707C210.219 38.3329 210.046 38.2997 209.809 38.2713C209.577 38.2382 209.352 38.2216 209.135 38.2216C208.666 38.2216 208.244 38.3234 207.87 38.527C207.501 38.7259 207.21 39.0028 206.997 39.358C206.784 39.7131 206.677 40.1226 206.677 40.5866V47H204.106ZM216.416 47.2131C215.322 47.2131 214.378 46.9858 213.582 46.5312C212.792 46.072 212.183 45.4233 211.757 44.5852C211.331 43.7424 211.118 42.7505 211.118 41.6094C211.118 40.4872 211.331 39.5024 211.757 38.6548C212.188 37.8026 212.789 37.1397 213.561 36.6662C214.333 36.188 215.24 35.9489 216.281 35.9489C216.954 35.9489 217.588 36.0578 218.185 36.2756C218.786 36.4886 219.316 36.8201 219.776 37.2699C220.24 37.7197 220.604 38.2926 220.869 38.9886C221.134 39.6799 221.267 40.5038 221.267 41.4602V42.2486H212.325V40.5156H218.803C218.798 40.0232 218.691 39.5852 218.483 39.2017C218.275 38.8134 217.983 38.508 217.609 38.2855C217.24 38.063 216.809 37.9517 216.317 37.9517C215.791 37.9517 215.33 38.0795 214.932 38.3352C214.534 38.5862 214.224 38.9176 214.001 39.3295C213.784 39.7367 213.672 40.1842 213.668 40.6719V42.1847C213.668 42.8191 213.784 43.3636 214.016 43.8182C214.248 44.268 214.572 44.6136 214.989 44.8551C215.405 45.0919 215.893 45.2102 216.452 45.2102C216.826 45.2102 217.164 45.1581 217.467 45.054C217.77 44.9451 218.033 44.7865 218.256 44.5781C218.478 44.3698 218.646 44.1117 218.76 43.804L221.161 44.0739C221.009 44.7083 220.72 45.2623 220.294 45.7358C219.873 46.2045 219.333 46.5691 218.675 46.8295C218.017 47.0852 217.264 47.2131 216.416 47.2131ZM228.201 47.2131C227.112 47.2131 226.176 46.974 225.395 46.4957C224.619 46.0175 224.02 45.357 223.598 44.5142C223.182 43.6667 222.973 42.6913 222.973 41.5881C222.973 40.4801 223.186 39.5024 223.613 38.6548C224.039 37.8026 224.64 37.1397 225.417 36.6662C226.198 36.188 227.121 35.9489 228.186 35.9489C229.072 35.9489 229.855 36.1122 230.537 36.4389C231.224 36.7609 231.771 37.2178 232.178 37.8097C232.585 38.3968 232.817 39.0833 232.874 39.8693H230.417C230.317 39.3437 230.08 38.9058 229.706 38.5554C229.337 38.2003 228.842 38.0227 228.222 38.0227C227.696 38.0227 227.235 38.1648 226.837 38.4489C226.439 38.7282 226.129 39.1307 225.907 39.6562C225.689 40.1818 225.58 40.8116 225.58 41.5455C225.58 42.2888 225.689 42.928 225.907 43.4631C226.124 43.9934 226.43 44.4029 226.823 44.6918C227.221 44.9759 227.687 45.1179 228.222 45.1179C228.601 45.1179 228.939 45.0469 229.238 44.9048C229.541 44.758 229.794 44.5473 229.998 44.2727C230.201 43.9981 230.341 43.6643 230.417 43.2713H232.874C232.812 44.0431 232.585 44.7273 232.192 45.3239C231.799 45.9157 231.264 46.3797 230.587 46.7159C229.91 47.0473 229.114 47.2131 228.201 47.2131ZM239.744 47.2131C238.678 47.2131 237.755 46.9787 236.974 46.5099C236.192 46.0412 235.586 45.3854 235.156 44.5426C234.729 43.6998 234.516 42.715 234.516 41.5881C234.516 40.4612 234.729 39.474 235.156 38.6264C235.586 37.7789 236.192 37.1207 236.974 36.652C237.755 36.1832 238.678 35.9489 239.744 35.9489C240.809 35.9489 241.732 36.1832 242.513 36.652C243.295 37.1207 243.898 37.7789 244.325 38.6264C244.755 39.474 244.971 40.4612 244.971 41.5881C244.971 42.715 244.755 43.6998 244.325 44.5426C243.898 45.3854 243.295 46.0412 242.513 46.5099C241.732 46.9787 240.809 47.2131 239.744 47.2131ZM239.758 45.1534C240.335 45.1534 240.818 44.9948 241.207 44.6776C241.595 44.3556 241.884 43.9247 242.073 43.3849C242.267 42.8452 242.364 42.2438 242.364 41.581C242.364 40.9134 242.267 40.3097 242.073 39.7699C241.884 39.2254 241.595 38.7921 241.207 38.4702C240.818 38.1482 240.335 37.9872 239.758 37.9872C239.166 37.9872 238.674 38.1482 238.281 38.4702C237.892 38.7921 237.601 39.2254 237.407 39.7699C237.218 40.3097 237.123 40.9134 237.123 41.581C237.123 42.2438 237.218 42.8452 237.407 43.3849C237.601 43.9247 237.892 44.3556 238.281 44.6776C238.674 44.9948 239.166 45.1534 239.758 45.1534ZM247.153 47V36.0909H249.646V37.9091H249.76C249.958 37.2794 250.299 36.794 250.782 36.4531C251.27 36.1075 251.826 35.9347 252.451 35.9347C252.593 35.9347 252.752 35.9418 252.927 35.956C253.107 35.9654 253.256 35.982 253.375 36.0057V38.3707C253.266 38.3329 253.093 38.2997 252.856 38.2713C252.624 38.2382 252.399 38.2216 252.181 38.2216C251.713 38.2216 251.291 38.3234 250.917 38.527C250.548 38.7259 250.257 39.0028 250.044 39.358C249.831 39.7131 249.724 40.1226 249.724 40.5866V47H247.153ZM258.682 47.1918C257.825 47.1918 257.058 46.9716 256.381 46.5312C255.704 46.0909 255.169 45.4517 254.776 44.6136C254.383 43.7756 254.186 42.7576 254.186 41.5597C254.186 40.3475 254.385 39.3248 254.783 38.4915C255.185 37.6534 255.727 37.0213 256.409 36.5952C257.091 36.1643 257.851 35.9489 258.689 35.9489C259.328 35.9489 259.854 36.0578 260.266 36.2756C260.678 36.4886 261.004 36.7467 261.246 37.0497C261.487 37.348 261.674 37.6297 261.807 37.8949H261.913V32.4545H264.491V47H261.963V45.2812H261.807C261.674 45.5464 261.482 45.8281 261.232 46.1264C260.981 46.42 260.649 46.6709 260.237 46.8793C259.825 47.0876 259.307 47.1918 258.682 47.1918ZM259.399 45.0824C259.944 45.0824 260.408 44.9356 260.791 44.642C261.175 44.3437 261.466 43.9295 261.665 43.3991C261.864 42.8688 261.963 42.2509 261.963 41.5455C261.963 40.84 261.864 40.2268 261.665 39.706C261.471 39.1851 261.182 38.7803 260.798 38.4915C260.42 38.2027 259.953 38.0582 259.399 38.0582C258.826 38.0582 258.348 38.2074 257.964 38.5057C257.581 38.804 257.292 39.2159 257.098 39.7415C256.904 40.267 256.807 40.8684 256.807 41.5455C256.807 42.2273 256.904 42.8357 257.098 43.3707C257.297 43.901 257.588 44.3201 257.972 44.6278C258.36 44.9309 258.836 45.0824 259.399 45.0824Z" fill="#EEF6FF"/>
<path d="M58.6274 85V74.8182H60.1636V83.6776H64.7773V85H58.6274ZM66.5297 74.8182H68.3941L71.6356 82.733H71.7549L74.9964 74.8182H76.8607V85H75.3991V77.6321H75.3046L72.3018 84.9851H71.0887L68.0858 77.6271H67.9914V85H66.5297V74.8182ZM84.6475 77.4929C84.5944 77.0223 84.3757 76.6577 83.9912 76.3991C83.6067 76.1373 83.1228 76.0064 82.5395 76.0064C82.1219 76.0064 81.7606 76.0727 81.4557 76.2053C81.1508 76.3345 80.9138 76.5135 80.7448 76.7422C80.579 76.9676 80.4962 77.2244 80.4962 77.5128C80.4962 77.7547 80.5525 77.9635 80.6652 78.1392C80.7812 78.3149 80.932 78.4624 81.1176 78.5817C81.3066 78.6977 81.5087 78.7955 81.7242 78.875C81.9396 78.9512 82.1468 79.0142 82.3456 79.0639L83.3399 79.3224C83.6647 79.402 83.9978 79.5097 84.3392 79.6456C84.6806 79.7815 84.9971 79.9605 85.2888 80.1825C85.5805 80.4046 85.8158 80.6797 85.9948 81.0078C86.1771 81.3359 86.2682 81.7287 86.2682 82.1861C86.2682 82.7628 86.1191 83.2749 85.8208 83.7223C85.5258 84.1697 85.0966 84.5227 84.5331 84.7812C83.973 85.0398 83.2952 85.169 82.4997 85.169C81.7374 85.169 81.0779 85.0481 80.521 84.8061C79.9642 84.5642 79.5284 84.2211 79.2135 83.777C78.8986 83.3295 78.7246 82.7992 78.6915 82.1861H80.2327C80.2625 82.554 80.3818 82.8606 80.5906 83.1058C80.8028 83.3478 81.0729 83.5284 81.401 83.6477C81.7325 83.7637 82.0954 83.8217 82.4898 83.8217C82.924 83.8217 83.3101 83.7538 83.6482 83.6179C83.9896 83.4787 84.258 83.2865 84.4536 83.0412C84.6491 82.7926 84.7469 82.5026 84.7469 82.1712C84.7469 81.8696 84.6607 81.6226 84.4884 81.4304C84.3193 81.2382 84.089 81.0791 83.7973 80.9531C83.509 80.8272 83.1825 80.7161 82.8179 80.62L81.6148 80.2919C80.7994 80.0698 80.1531 79.7434 79.6759 79.3125C79.2019 78.8816 78.9649 78.3116 78.9649 77.6023C78.9649 77.0156 79.124 76.5036 79.4422 76.0661C79.7604 75.6286 80.1913 75.2888 80.7348 75.0469C81.2784 74.8016 81.8915 74.679 82.5743 74.679C83.2637 74.679 83.8719 74.8 84.3989 75.0419C84.9292 75.2839 85.3468 75.617 85.6517 76.0412C85.9566 76.4621 86.1157 76.946 86.129 77.4929H84.6475ZM89.9186 83.608L89.844 84.1499C89.7943 84.5476 89.7098 84.9619 89.5905 85.3928C89.4745 85.8269 89.3535 86.2296 89.2275 86.6009C89.1049 86.9721 89.0038 87.267 88.9243 87.4858H87.8703C87.9134 87.2803 87.973 87.0019 88.0493 86.6506C88.1255 86.3026 88.2001 85.9131 88.273 85.4822C88.3459 85.0514 88.4006 84.6122 88.4371 84.1648L88.4868 83.608H89.9186ZM101.231 77.4929C101.178 77.0223 100.96 76.6577 100.575 76.3991C100.191 76.1373 99.7068 76.0064 99.1235 76.0064C98.7059 76.0064 98.3446 76.0727 98.0397 76.2053C97.7348 76.3345 97.4978 76.5135 97.3287 76.7422C97.163 76.9676 97.0802 77.2244 97.0802 77.5128C97.0802 77.7547 97.1365 77.9635 97.2492 78.1392C97.3652 78.3149 97.516 78.4624 97.7016 78.5817C97.8905 78.6977 98.0927 78.7955 98.3081 78.875C98.5236 78.9512 98.7307 79.0142 98.9296 79.0639L99.9239 79.3224C100.249 79.402 100.582 79.5097 100.923 79.6456C101.265 79.7815 101.581 79.9605 101.873 80.1825C102.164 80.4046 102.4 80.6797 102.579 81.0078C102.761 81.3359 102.852 81.7287 102.852 82.1861C102.852 82.7628 102.703 83.2749 102.405 83.7223C102.11 84.1697 101.681 84.5227 101.117 84.7812C100.557 85.0398 99.8792 85.169 99.0837 85.169C98.3214 85.169 97.6618 85.0481 97.105 84.8061C96.5482 84.5642 96.1124 84.2211 95.7975 83.777C95.4826 83.3295 95.3086 82.7992 95.2755 82.1861H96.8167C96.8465 82.554 96.9658 82.8606 97.1746 83.1058C97.3867 83.3478 97.6569 83.5284 97.985 83.6477C98.3164 83.7637 98.6794 83.8217 99.0738 83.8217C99.508 83.8217 99.8941 83.7538 100.232 83.6179C100.574 83.4787 100.842 83.2865 101.038 83.0412C101.233 82.7926 101.331 82.5026 101.331 82.1712C101.331 81.8696 101.245 81.6226 101.072 81.4304C100.903 81.2382 100.673 81.0791 100.381 80.9531C100.093 80.8272 99.7665 80.7161 99.4019 80.62L98.1988 80.2919C97.3834 80.0698 96.7371 79.7434 96.2599 79.3125C95.7859 78.8816 95.5489 78.3116 95.5489 77.6023C95.5489 77.0156 95.708 76.5036 96.0262 76.0661C96.3444 75.6286 96.7752 75.2888 97.3188 75.0469C97.8624 74.8016 98.4755 74.679 99.1583 74.679C99.8477 74.679 100.456 74.8 100.983 75.0419C101.513 75.2839 101.931 75.617 102.236 76.0412C102.541 76.4621 102.7 76.946 102.713 77.4929H101.231ZM106.224 74.8182V85H104.688V74.8182H106.224ZM114.015 77.4929C113.962 77.0223 113.743 76.6577 113.358 76.3991C112.974 76.1373 112.49 76.0064 111.907 76.0064C111.489 76.0064 111.128 76.0727 110.823 76.2053C110.518 76.3345 110.281 76.5135 110.112 76.7422C109.946 76.9676 109.863 77.2244 109.863 77.5128C109.863 77.7547 109.92 77.9635 110.032 78.1392C110.148 78.3149 110.299 78.4624 110.485 78.5817C110.674 78.6977 110.876 78.7955 111.091 78.875C111.307 78.9512 111.514 79.0142 111.713 79.0639L112.707 79.3224C113.032 79.402 113.365 79.5097 113.706 79.6456C114.048 79.7815 114.364 79.9605 114.656 80.1825C114.948 80.4046 115.183 80.6797 115.362 81.0078C115.544 81.3359 115.635 81.7287 115.635 82.1861C115.635 82.7628 115.486 83.2749 115.188 83.7223C114.893 84.1697 114.464 84.5227 113.9 84.7812C113.34 85.0398 112.662 85.169 111.867 85.169C111.105 85.169 110.445 85.0481 109.888 84.8061C109.331 84.5642 108.896 84.2211 108.581 83.777C108.266 83.3295 108.092 82.7992 108.059 82.1861H109.6C109.63 82.554 109.749 82.8606 109.958 83.1058C110.17 83.3478 110.44 83.5284 110.768 83.6477C111.1 83.7637 111.463 83.8217 111.857 83.8217C112.291 83.8217 112.677 83.7538 113.015 83.6179C113.357 83.4787 113.625 83.2865 113.821 83.0412C114.016 82.7926 114.114 82.5026 114.114 82.1712C114.114 81.8696 114.028 81.6226 113.856 81.4304C113.687 81.2382 113.456 81.0791 113.165 80.9531C112.876 80.8272 112.55 80.7161 112.185 80.62L110.982 80.2919C110.167 80.0698 109.52 79.7434 109.043 79.3125C108.569 78.8816 108.332 78.3116 108.332 77.6023C108.332 77.0156 108.491 76.5036 108.809 76.0661C109.128 75.6286 109.558 75.2888 110.102 75.0469C110.646 74.8016 111.259 74.679 111.941 74.679C112.631 74.679 113.239 74.8 113.766 75.0419C114.296 75.2839 114.714 75.617 115.019 76.0412C115.324 76.4621 115.483 76.946 115.496 77.4929H114.015ZM119.286 83.608L119.211 84.1499C119.161 84.5476 119.077 84.9619 118.958 85.3928C118.842 85.8269 118.721 86.2296 118.595 86.6009C118.472 86.9721 118.371 87.267 118.291 87.4858H117.237C117.281 87.2803 117.34 87.0019 117.416 86.6506C117.493 86.3026 117.567 85.9131 117.64 85.4822C117.713 85.0514 117.768 84.6122 117.804 84.1648L117.854 83.608H119.286ZM133.502 78.1293H131.951C131.891 77.7978 131.78 77.5062 131.618 77.2543C131.455 77.0024 131.257 76.7886 131.021 76.6129C130.786 76.4373 130.522 76.3047 130.231 76.2152C129.942 76.1257 129.636 76.081 129.311 76.081C128.724 76.081 128.199 76.2285 127.735 76.5234C127.274 76.8184 126.91 77.2509 126.641 77.821C126.376 78.3911 126.244 79.0871 126.244 79.9091C126.244 80.7377 126.376 81.437 126.641 82.0071C126.91 82.5772 127.276 83.008 127.74 83.2997C128.204 83.5914 128.726 83.7372 129.306 83.7372C129.628 83.7372 129.932 83.6941 130.221 83.608C130.512 83.5185 130.776 83.3875 131.011 83.2152C131.247 83.0429 131.445 82.8324 131.608 82.5838C131.774 82.3319 131.888 82.0436 131.951 81.7188L133.502 81.7237C133.419 82.2242 133.258 82.6849 133.02 83.1058C132.784 83.5234 132.481 83.8847 132.11 84.1896C131.742 84.4912 131.321 84.7249 130.847 84.8906C130.373 85.0563 129.856 85.1392 129.296 85.1392C128.414 85.1392 127.629 84.9304 126.94 84.5128C126.25 84.0919 125.707 83.4903 125.309 82.7081C124.914 81.9259 124.717 80.9929 124.717 79.9091C124.717 78.822 124.916 77.889 125.314 77.1101C125.712 76.3279 126.255 75.728 126.945 75.3104C127.634 74.8894 128.418 74.679 129.296 74.679C129.836 74.679 130.34 74.7569 130.807 74.9126C131.278 75.0651 131.701 75.2905 132.075 75.5888C132.45 75.8838 132.76 76.245 133.005 76.6726C133.25 77.0968 133.416 77.5824 133.502 78.1293ZM135.34 85V74.8182H138.97C139.758 74.8182 140.413 74.9541 140.933 75.2259C141.457 75.4976 141.848 75.8738 142.107 76.3544C142.365 76.8317 142.494 77.3835 142.494 78.0099C142.494 78.633 142.363 79.1816 142.102 79.6555C141.843 80.1262 141.452 80.4924 140.928 80.7543C140.408 81.0161 139.753 81.147 138.965 81.147H136.215V79.8246H138.825C139.323 79.8246 139.727 79.7533 140.038 79.6108C140.353 79.4683 140.584 79.2611 140.729 78.9893C140.875 78.7176 140.948 78.3911 140.948 78.0099C140.948 77.6255 140.874 77.2924 140.725 77.0107C140.579 76.7289 140.348 76.5135 140.033 76.3643C139.722 76.2119 139.313 76.1357 138.805 76.1357H136.877V85H135.34ZM140.367 80.4062L142.882 85H141.132L138.666 80.4062H140.367ZM144.364 74.8182H146.228L149.47 82.733H149.589L152.83 74.8182H154.695V85H153.233V77.6321H153.139L150.136 84.9851H148.923L145.92 77.6271H145.825V85H144.364V74.8182ZM158.743 83.608L158.668 84.1499C158.619 84.5476 158.534 84.9619 158.415 85.3928C158.299 85.8269 158.178 86.2296 158.052 86.6009C157.929 86.9721 157.828 87.267 157.748 87.4858H156.695C156.738 87.2803 156.797 87.0019 156.873 86.6506C156.95 86.3026 157.024 85.9131 157.097 85.4822C157.17 85.0514 157.225 84.6122 157.261 84.1648L157.311 83.608H158.743ZM164.502 85V74.8182H170.816V76.1406H166.039V79.2429H170.364V80.5604H166.039V85H164.502ZM172.586 85V77.3636H174.073V85H172.586ZM173.337 76.1854C173.078 76.1854 172.856 76.0992 172.671 75.9268C172.488 75.7512 172.397 75.5424 172.397 75.3004C172.397 75.0552 172.488 74.8464 172.671 74.674C172.856 74.4983 173.078 74.4105 173.337 74.4105C173.595 74.4105 173.816 74.4983 173.998 74.674C174.184 74.8464 174.277 75.0552 174.277 75.3004C174.277 75.5424 174.184 75.7512 173.998 75.9268C173.816 76.0992 173.595 76.1854 173.337 76.1854ZM177.559 80.4659V85H176.073V77.3636H177.499V78.6065H177.594C177.77 78.2022 178.045 77.8774 178.419 77.6321C178.797 77.3868 179.273 77.2642 179.846 77.2642C180.366 77.2642 180.822 77.3736 181.213 77.5923C181.604 77.8078 181.908 78.1293 182.123 78.5568C182.338 78.9844 182.446 79.513 182.446 80.1428V85H180.96V80.3217C180.96 79.7682 180.815 79.3357 180.527 79.0241C180.239 78.7093 179.843 78.5518 179.339 78.5518C178.994 78.5518 178.688 78.6264 178.419 78.7756C178.154 78.9247 177.944 79.1435 177.788 79.4318C177.635 79.7169 177.559 80.0616 177.559 80.4659ZM186.662 85.169C186.178 85.169 185.741 85.0795 185.35 84.9006C184.958 84.7183 184.649 84.4548 184.42 84.1101C184.194 83.7654 184.082 83.3428 184.082 82.8423C184.082 82.4115 184.165 82.0568 184.33 81.7784C184.496 81.5 184.72 81.2796 185.002 81.1172C185.283 80.9548 185.598 80.8321 185.946 80.7493C186.294 80.6664 186.649 80.6035 187.01 80.5604C187.467 80.5073 187.839 80.4643 188.124 80.4311C188.409 80.3946 188.616 80.3366 188.745 80.2571C188.874 80.1776 188.939 80.0483 188.939 79.8693V79.8345C188.939 79.4003 188.816 79.0639 188.571 78.8253C188.329 78.5866 187.968 78.4673 187.487 78.4673C186.987 78.4673 186.592 78.5784 186.304 78.8004C186.019 79.0192 185.822 79.2628 185.712 79.5312L184.315 79.2131C184.481 78.7491 184.723 78.3745 185.041 78.0895C185.363 77.8011 185.732 77.5923 186.15 77.4631C186.568 77.3305 187.007 77.2642 187.467 77.2642C187.772 77.2642 188.095 77.3007 188.437 77.3736C188.782 77.4432 189.103 77.5724 189.401 77.7614C189.703 77.9503 189.95 78.2204 190.142 78.5717C190.334 78.9197 190.43 79.3722 190.43 79.929V85H188.979V83.956H188.919C188.823 84.1482 188.679 84.3371 188.487 84.5227C188.294 84.7083 188.047 84.8625 187.746 84.9851C187.444 85.1077 187.083 85.169 186.662 85.169ZM186.985 83.9759C187.396 83.9759 187.747 83.8946 188.039 83.7322C188.334 83.5698 188.558 83.3577 188.71 83.0959C188.866 82.8307 188.944 82.5473 188.944 82.2457V81.2614C188.891 81.3144 188.788 81.3641 188.636 81.4105C188.487 81.4536 188.316 81.4917 188.124 81.5249C187.931 81.5547 187.744 81.5829 187.562 81.6094C187.38 81.6326 187.227 81.6525 187.104 81.669C186.816 81.7055 186.553 81.7668 186.314 81.853C186.079 81.9392 185.89 82.0634 185.747 82.2259C185.608 82.3849 185.538 82.5971 185.538 82.8622C185.538 83.2301 185.674 83.5085 185.946 83.6974C186.218 83.883 186.564 83.9759 186.985 83.9759ZM193.897 80.4659V85H192.41V77.3636H193.837V78.6065H193.932C194.107 78.2022 194.382 77.8774 194.757 77.6321C195.135 77.3868 195.61 77.2642 196.184 77.2642C196.704 77.2642 197.16 77.3736 197.551 77.5923C197.942 77.8078 198.245 78.1293 198.461 78.5568C198.676 78.9844 198.784 79.513 198.784 80.1428V85H197.297V80.3217C197.297 79.7682 197.153 79.3357 196.865 79.0241C196.577 78.7093 196.181 78.5518 195.677 78.5518C195.332 78.5518 195.025 78.6264 194.757 78.7756C194.492 78.9247 194.281 79.1435 194.126 79.4318C193.973 79.7169 193.897 80.0616 193.897 80.4659ZM203.994 85.1541C203.255 85.1541 202.619 84.9867 202.085 84.652C201.555 84.3139 201.147 83.8482 200.862 83.255C200.577 82.6617 200.435 81.9822 200.435 81.2166C200.435 80.4411 200.58 79.7566 200.872 79.1634C201.164 78.5668 201.575 78.1011 202.105 77.7663C202.635 77.4316 203.26 77.2642 203.979 77.2642C204.559 77.2642 205.076 77.3719 205.53 77.5874C205.985 77.7995 206.351 78.0978 206.629 78.4822C206.911 78.8667 207.078 79.3158 207.131 79.8295H205.685C205.605 79.4716 205.423 79.1634 205.138 78.9048C204.856 78.6463 204.478 78.517 204.004 78.517C203.59 78.517 203.227 78.6264 202.915 78.8452C202.607 79.0606 202.367 79.3688 202.195 79.7699C202.022 80.1676 201.936 80.6383 201.936 81.1818C201.936 81.7386 202.021 82.2192 202.19 82.6236C202.359 83.0279 202.597 83.3411 202.905 83.5632C203.217 83.7853 203.583 83.8963 204.004 83.8963C204.286 83.8963 204.541 83.8449 204.77 83.7422C205.002 83.6361 205.196 83.4853 205.351 83.2898C205.511 83.0942 205.622 82.8589 205.685 82.5838H207.131C207.078 83.0777 206.918 83.5185 206.649 83.9062C206.381 84.294 206.021 84.599 205.57 84.821C205.123 85.0431 204.597 85.1541 203.994 85.1541ZM208.721 85V77.3636H210.207V85H208.721ZM209.472 76.1854C209.213 76.1854 208.991 76.0992 208.805 75.9268C208.623 75.7512 208.532 75.5424 208.532 75.3004C208.532 75.0552 208.623 74.8464 208.805 74.674C208.991 74.4983 209.213 74.4105 209.472 74.4105C209.73 74.4105 209.951 74.4983 210.133 74.674C210.319 74.8464 210.411 75.0552 210.411 75.3004C210.411 75.5424 210.319 75.7512 210.133 75.9268C209.951 76.0992 209.73 76.1854 209.472 76.1854ZM214.43 85.169C213.946 85.169 213.508 85.0795 213.117 84.9006C212.726 84.7183 212.416 84.4548 212.187 84.1101C211.962 83.7654 211.849 83.3428 211.849 82.8423C211.849 82.4115 211.932 82.0568 212.098 81.7784C212.264 81.5 212.487 81.2796 212.769 81.1172C213.051 80.9548 213.366 80.8321 213.714 80.7493C214.062 80.6664 214.416 80.6035 214.778 80.5604C215.235 80.5073 215.606 80.4643 215.891 80.4311C216.176 80.3946 216.383 80.3366 216.513 80.2571C216.642 80.1776 216.707 80.0483 216.707 79.8693V79.8345C216.707 79.4003 216.584 79.0639 216.339 78.8253C216.097 78.5866 215.735 78.4673 215.255 78.4673C214.754 78.4673 214.36 78.5784 214.072 78.8004C213.787 79.0192 213.589 79.2628 213.48 79.5312L212.083 79.2131C212.249 78.7491 212.491 78.3745 212.809 78.0895C213.13 77.8011 213.5 77.5923 213.918 77.4631C214.335 77.3305 214.774 77.2642 215.235 77.2642C215.54 77.2642 215.863 77.3007 216.204 77.3736C216.549 77.4432 216.871 77.5724 217.169 77.7614C217.471 77.9503 217.717 78.2204 217.91 78.5717C218.102 78.9197 218.198 79.3722 218.198 79.929V85H216.746V83.956H216.687C216.591 84.1482 216.446 84.3371 216.254 84.5227C216.062 84.7083 215.815 84.8625 215.513 84.9851C215.212 85.1077 214.851 85.169 214.43 85.169ZM214.753 83.9759C215.164 83.9759 215.515 83.8946 215.807 83.7322C216.102 83.5698 216.325 83.3577 216.478 83.0959C216.634 82.8307 216.712 82.5473 216.712 82.2457V81.2614C216.659 81.3144 216.556 81.3641 216.403 81.4105C216.254 81.4536 216.083 81.4917 215.891 81.5249C215.699 81.5547 215.512 81.5829 215.329 81.6094C215.147 81.6326 214.995 81.6525 214.872 81.669C214.584 81.7055 214.32 81.7668 214.082 81.853C213.846 81.9392 213.657 82.0634 213.515 82.2259C213.376 82.3849 213.306 82.5971 213.306 82.8622C213.306 83.2301 213.442 83.5085 213.714 83.6974C213.985 83.883 214.332 83.9759 214.753 83.9759ZM221.665 74.8182V85H220.178V74.8182H221.665ZM228.349 85H226.718L230.382 74.8182H232.157L235.821 85H234.19L231.312 76.6676H231.232L228.349 85ZM228.622 81.0128H233.912V82.3054H228.622V81.0128ZM237.241 85V77.3636H238.727V85H237.241ZM237.991 76.1854C237.733 76.1854 237.511 76.0992 237.325 75.9268C237.143 75.7512 237.052 75.5424 237.052 75.3004C237.052 75.0552 237.143 74.8464 237.325 74.674C237.511 74.4983 237.733 74.4105 237.991 74.4105C238.25 74.4105 238.47 74.4983 238.652 74.674C238.838 74.8464 238.931 75.0552 238.931 75.3004C238.931 75.5424 238.838 75.7512 238.652 75.9268C238.47 76.0992 238.25 76.1854 237.991 76.1854ZM243.585 85.1491C242.969 85.1491 242.419 84.9917 241.935 84.6768C241.454 84.3587 241.076 83.9062 240.801 83.3196C240.53 82.7296 240.394 82.022 240.394 81.1967C240.394 80.3714 240.531 79.6655 240.806 79.0788C241.085 78.4922 241.466 78.0431 241.95 77.7315C242.434 77.42 242.982 77.2642 243.595 77.2642C244.069 77.2642 244.451 77.3438 244.739 77.5028C245.031 77.6586 245.256 77.8409 245.415 78.0497C245.577 78.2585 245.703 78.4425 245.793 78.6016H245.882V74.8182H247.369V85H245.917V83.8118H245.793C245.703 83.9742 245.574 84.1598 245.405 84.3686C245.239 84.5774 245.011 84.7597 244.719 84.9155C244.427 85.0713 244.05 85.1491 243.585 85.1491ZM243.914 83.8814C244.341 83.8814 244.702 83.7687 244.997 83.5433C245.296 83.3146 245.521 82.9981 245.674 82.5938C245.829 82.1894 245.907 81.7187 245.907 81.1818C245.907 80.6515 245.831 80.1875 245.679 79.7898C245.526 79.392 245.302 79.0821 245.007 78.8601C244.712 78.638 244.348 78.527 243.914 78.527C243.466 78.527 243.093 78.643 242.795 78.875C242.497 79.107 242.271 79.4235 242.119 79.8246C241.97 80.2256 241.895 80.678 241.895 81.1818C241.895 81.6922 241.971 82.1513 242.124 82.5589C242.276 82.9666 242.502 83.2898 242.8 83.5284C243.102 83.7637 243.473 83.8814 243.914 83.8814Z" fill="#EEF6FF"/>
</g>
<defs>
<filter id="filter0_d_2606_8262" x="0" y="0" width="306" height="144" filterUnits="userSpaceOnUse" color-interpolation-filters="sRGB">
<feFlood flood-opacity="0" result="BackgroundImageFix"/>
<feColorMatrix in="SourceAlpha" type="matrix" values="0 0 0 0 0 0 0 0 0 0 0 0 0 0 0 0 0 0 127 0" result="hardAlpha"/>
<feMorphology radius="8" operator="dilate" in="SourceAlpha" result="effect1_dropShadow_2606_8262"/>
<feOffset dy="4"/>
<feGaussianBlur stdDeviation="2"/>
<feComposite in2="hardAlpha" operator="out"/>
<feColorMatrix type="matrix" values="0 0 0 0 0.0156863 0 0 0 0 0.0470588 0 0 0 0 0.396078 0 0 0 1 0"/>
<feBlend mode="normal" in2="BackgroundImageFix" result="effect1_dropShadow_2606_8262"/>
<feBlend mode="normal" in="SourceGraphic" in2="effect1_dropShadow_2606_8262" result="shape"/>
</filter>
<linearGradient id="paint0_linear_2606_8262" x1="138.661" y1="3.9322" x2="141.763" y2="110.11" gradientUnits="userSpaceOnUse">
<stop stop-color="#2BB2DF"/>
<stop offset="1" stop-color="#3842B1"/>
</linearGradient>
</defs>
</svg>
