<svg width="60" height="88" viewBox="0 0 60 88" fill="none" xmlns="http://www.w3.org/2000/svg">
<path d="M59.246 85.9776C57.9323 86.1261 55.2092 86.4951 51.7663 86.5085C50.0465 86.5171 48.15 86.4378 46.1784 86.227C44.2068 86.0175 42.1609 85.6779 40.1453 85.2037C38.129 84.7321 36.1443 84.1274 34.2837 83.4337C32.4225 82.7415 30.6864 81.9612 29.1457 81.1739C26.0608 79.5997 23.7731 78.001 22.6157 77.1811C21.3742 76.2993 18.5788 74.2539 15.5794 71.0811C14.0809 69.4991 12.5385 67.6411 11.112 65.5735C9.68291 63.5081 8.37328 61.2334 7.28323 58.8791C6.13133 56.3969 5.11538 53.6136 4.37024 50.6398C3.62231 47.6675 3.14761 44.5069 3.00532 41.3113C2.86063 38.1163 3.04944 34.8892 3.54576 31.7912C4.03952 28.6923 4.83895 25.7252 5.83745 23.019C6.8346 20.311 8.02803 17.8649 9.25803 15.7533C10.4874 13.64 11.7503 11.8594 12.8733 10.4316C13.621 9.4812 14.3028 8.68893 14.8803 8.04793C14.1496 10.7888 13.4979 13.2606 13.4303 13.6756C13.1022 15.6893 16.7999 17.9827 17.0142 17.126C17.4431 15.4117 18.8957 5.83939 19.4192 2.30137C19.4856 1.85266 18.263 0.334508 17.4876 0.0826329C17.4018 0.0163038 17.3103 -0.0133082 17.2147 0.00608583C15.3078 0.394852 5.75943 3.67955 1.94733 4.66017C1.34436 4.81508 0.486544 7.69341 1.40682 7.6989C3.05551 7.70854 7.66731 6.88177 11.3937 6.13639C10.9272 6.705 10.4135 7.35608 9.8678 8.09137C8.70303 9.66085 7.39801 11.6122 6.13884 13.9157C4.87844 16.2171 3.66778 18.8721 2.6746 21.7958C1.67899 24.7173 0.903528 27.9059 0.456013 31.2206C0.00528353 34.5345 -0.116326 37.9716 0.113509 41.364C0.339734 44.757 0.917099 48.102 1.77692 51.2429C2.63408 54.3853 3.77261 57.3212 5.04921 59.9411C6.16954 62.2448 7.48225 64.4931 8.91276 66.5689C10.3417 68.6463 11.8868 70.5499 13.4192 72.2107C16.4822 75.5413 19.4874 77.8751 21.2428 79.1157C22.423 79.954 23.8447 80.8661 25.4585 81.7568C27.0721 82.6471 28.8785 83.5136 30.8073 84.2774C32.7351 85.0425 34.7845 85.7044 36.8635 86.2208C38.9422 86.7396 41.0495 87.1124 43.0856 87.3424C47.1613 87.8121 50.9335 87.6782 53.6911 87.3748C56.4531 87.0729 58.2157 86.6594 58.4193 86.6172C58.7724 86.5376 60.3082 85.8525 59.246 85.9776Z" fill="#60A1EB"/>
</svg>
