<svg width="242" height="638" viewBox="0 137 242 638" fill="none" xmlns="http://www.w3.org/2000/svg">
<g opacity="0.4">
<g clip-path="url(#clip0_2606_8303)">
<path d="M54.2176 566.18C-481.172 536.375 -595.044 468.548 -38.4319 139.123" stroke="url(#paint0_linear_2606_8303)" stroke-opacity="0.5" stroke-width="6" stroke-linecap="round"/>
<path d="M32.5449 588.248C-455.277 548.122 -560.233 478.361 -60.1046 161.19" stroke="url(#paint1_linear_2606_8303)" stroke-opacity="0.5" stroke-width="6" stroke-linecap="round"/>
<path d="M10.8723 610.314C-429.383 559.869 -525.421 488.173 -81.7773 183.257" stroke="url(#paint2_linear_2606_8303)" stroke-opacity="0.5" stroke-width="6" stroke-linecap="round"/>
</g>
<g clip-path="url(#clip1_2606_8303)">
<path d="M-213.434 346.022C321.955 375.828 416.932 441.604 -139.68 771.029" stroke="url(#paint3_linear_2606_8303)" stroke-opacity="0.5" stroke-width="6" stroke-linecap="round"/>
<path d="M-202.85 323.104C284.972 363.23 382.119 431.791 -118.009 748.962" stroke="url(#paint4_linear_2606_8303)" stroke-opacity="0.5" stroke-width="6" stroke-linecap="round"/>
<path d="M-183.944 300.19C256.311 350.635 347.307 421.978 -96.3372 726.895" stroke="url(#paint5_linear_2606_8303)" stroke-opacity="0.5" stroke-width="6" stroke-linecap="round"/>
<path d="M-166.15 277.155C226.539 337.92 312.494 412.165 -74.6653 704.827" stroke="url(#paint6_linear_2606_8303)" stroke-opacity="0.5" stroke-width="6" stroke-linecap="round"/>
<path d="M-145.642 255.703C199.479 326.787 277.682 402.352 -52.9927 682.761" stroke="url(#paint7_linear_2606_8303)" stroke-opacity="0.5" stroke-width="6" stroke-linecap="round"/>
<path d="M-123.969 233.636C173.585 315.04 242.871 392.54 -31.3199 660.694" stroke="url(#paint8_linear_2606_8303)" stroke-opacity="0.5" stroke-width="6" stroke-linecap="round"/>
<path d="M-102.299 211.569C147.689 303.292 208.057 382.727 -9.64921 638.626" stroke="url(#paint9_linear_2606_8303)" stroke-opacity="0.5" stroke-width="6" stroke-linecap="round"/>
<path d="M-80.6261 189.502C121.795 291.545 173.245 372.914 12.0235 616.559" stroke="url(#paint10_linear_2606_8303)" stroke-opacity="0.5" stroke-width="6" stroke-linecap="round"/>
<path d="M-58.9534 167.435C95.9005 279.797 138.434 363.101 33.6961 594.492" stroke="url(#paint11_linear_2606_8303)" stroke-opacity="0.5" stroke-width="6" stroke-linecap="round"/>
<path d="M-37.2826 145.368C70.0043 268.05 103.62 353.288 55.3669 572.425" stroke="url(#paint12_linear_2606_8303)" stroke-opacity="0.5" stroke-width="6" stroke-linecap="round"/>
</g>
</g>
<defs>
<linearGradient id="paint0_linear_2606_8303" x1="-172.213" y1="522.181" x2="-227.316" y2="268.19" gradientUnits="userSpaceOnUse">
<stop stop-color="#FF1CF7"/>
<stop offset="1" stop-color="#00F0FF"/>
</linearGradient>
<linearGradient id="paint1_linear_2606_8303" x1="-174.381" y1="540.017" x2="-229.484" y2="286.026" gradientUnits="userSpaceOnUse">
<stop stop-color="#FF1CF7"/>
<stop offset="1" stop-color="#00F0FF"/>
</linearGradient>
<linearGradient id="paint2_linear_2606_8303" x1="-176.549" y1="557.852" x2="-231.652" y2="303.861" gradientUnits="userSpaceOnUse">
<stop stop-color="#FF1CF7"/>
<stop offset="1" stop-color="#00F0FF"/>
</linearGradient>
<linearGradient id="paint3_linear_2606_8303" x1="-5.89913" y1="387.97" x2="49.2039" y2="641.961" gradientUnits="userSpaceOnUse">
<stop stop-color="#FF1CF7"/>
<stop offset="1" stop-color="#00F0FF"/>
</linearGradient>
<linearGradient id="paint4_linear_2606_8303" x1="-3.73241" y1="370.135" x2="51.3706" y2="624.126" gradientUnits="userSpaceOnUse">
<stop stop-color="#FF1CF7"/>
<stop offset="1" stop-color="#00F0FF"/>
</linearGradient>
<linearGradient id="paint5_linear_2606_8303" x1="-1.56553" y1="352.299" x2="53.5375" y2="606.29" gradientUnits="userSpaceOnUse">
<stop stop-color="#FF1CF7"/>
<stop offset="1" stop-color="#00F0FF"/>
</linearGradient>
<linearGradient id="paint6_linear_2606_8303" x1="0.601539" y1="334.464" x2="55.7045" y2="588.455" gradientUnits="userSpaceOnUse">
<stop stop-color="#FF1CF7"/>
<stop offset="1" stop-color="#00F0FF"/>
</linearGradient>
<linearGradient id="paint7_linear_2606_8303" x1="2.76926" y1="316.628" x2="57.8723" y2="570.619" gradientUnits="userSpaceOnUse">
<stop stop-color="#FF1CF7"/>
<stop offset="1" stop-color="#00F0FF"/>
</linearGradient>
<linearGradient id="paint8_linear_2606_8303" x1="4.9371" y1="298.793" x2="60.0401" y2="552.784" gradientUnits="userSpaceOnUse">
<stop stop-color="#FF1CF7"/>
<stop offset="1" stop-color="#00F0FF"/>
</linearGradient>
<linearGradient id="paint9_linear_2606_8303" x1="7.10297" y1="280.957" x2="62.206" y2="534.948" gradientUnits="userSpaceOnUse">
<stop stop-color="#FF1CF7"/>
<stop offset="1" stop-color="#00F0FF"/>
</linearGradient>
<linearGradient id="paint10_linear_2606_8303" x1="9.27078" y1="263.122" x2="64.3738" y2="517.113" gradientUnits="userSpaceOnUse">
<stop stop-color="#FF1CF7"/>
<stop offset="1" stop-color="#00F0FF"/>
</linearGradient>
<linearGradient id="paint11_linear_2606_8303" x1="11.4386" y1="245.286" x2="66.5416" y2="499.277" gradientUnits="userSpaceOnUse">
<stop stop-color="#FF1CF7"/>
<stop offset="1" stop-color="#00F0FF"/>
</linearGradient>
<linearGradient id="paint12_linear_2606_8303" x1="13.6045" y1="227.451" x2="68.7075" y2="481.442" gradientUnits="userSpaceOnUse">
<stop stop-color="#FF1CF7"/>
<stop offset="1" stop-color="#00F0FF"/>
</linearGradient>
<clipPath id="clip0_2606_8303">
<rect width="627" height="477" fill="white" transform="translate(-519.273 575.553) rotate(-57.2405)"/>
</clipPath>
<clipPath id="clip1_2606_8303">
<rect width="586" height="473" fill="white" transform="translate(318.691 369.139) rotate(122.759)"/>
</clipPath>
</defs>
</svg>
