<svg width="306" height="144" viewBox="0 0 306 144" fill="none" xmlns="http://www.w3.org/2000/svg">
<g filter="url(#filter0_d_2606_8265)">
<rect x="12" y="8" width="282" height="120" rx="20" fill="url(#paint0_linear_2606_8265)" fill-opacity="0.5" shape-rendering="crispEdges"/>
<path d="M81.671 47V32.4545H87.1255C88.243 32.4545 89.1805 32.6629 89.938 33.0795C90.7003 33.4962 91.2756 34.0691 91.6639 34.7983C92.0569 35.5227 92.2534 36.3466 92.2534 37.2699C92.2534 38.2027 92.0569 39.0312 91.6639 39.7557C91.2709 40.4801 90.6909 41.0507 89.9238 41.4673C89.1568 41.8793 88.2122 42.0852 87.09 42.0852H83.475V39.919H86.7349C87.3883 39.919 87.9234 39.8054 88.34 39.5781C88.7567 39.3509 89.0645 39.0384 89.2633 38.6406C89.4669 38.2429 89.5687 37.786 89.5687 37.2699C89.5687 36.7538 89.4669 36.2992 89.2633 35.9062C89.0645 35.5133 88.7543 35.2079 88.3329 34.9901C87.9163 34.7675 87.3788 34.6562 86.7207 34.6562H84.3059V47H81.671ZM99.0307 47.2131C97.9654 47.2131 97.0421 46.9787 96.2608 46.5099C95.4796 46.0412 94.8735 45.3854 94.4426 44.5426C94.0165 43.6998 93.8034 42.715 93.8034 41.5881C93.8034 40.4612 94.0165 39.474 94.4426 38.6264C94.8735 37.7789 95.4796 37.1207 96.2608 36.652C97.0421 36.1832 97.9654 35.9489 99.0307 35.9489C100.096 35.9489 101.019 36.1832 101.801 36.652C102.582 37.1207 103.186 37.7789 103.612 38.6264C104.043 39.474 104.258 40.4612 104.258 41.5881C104.258 42.715 104.043 43.6998 103.612 44.5426C103.186 45.3854 102.582 46.0412 101.801 46.5099C101.019 46.9787 100.096 47.2131 99.0307 47.2131ZM99.0449 45.1534C99.6226 45.1534 100.106 44.9948 100.494 44.6776C100.882 44.3556 101.171 43.9247 101.36 43.3849C101.554 42.8452 101.651 42.2438 101.651 41.581C101.651 40.9134 101.554 40.3097 101.36 39.7699C101.171 39.2254 100.882 38.7921 100.494 38.4702C100.106 38.1482 99.6226 37.9872 99.0449 37.9872C98.4531 37.9872 97.9606 38.1482 97.5676 38.4702C97.1794 38.7921 96.8882 39.2254 96.6941 39.7699C96.5047 40.3097 96.41 40.9134 96.41 41.581C96.41 42.2438 96.5047 42.8452 96.6941 43.3849C96.8882 43.9247 97.1794 44.3556 97.5676 44.6776C97.9606 44.9948 98.4531 45.1534 99.0449 45.1534ZM106.44 47V36.0909H109.011V47H106.44ZM107.733 34.5426C107.326 34.5426 106.975 34.4077 106.682 34.1378C106.388 33.8632 106.241 33.5341 106.241 33.1506C106.241 32.7623 106.388 32.4332 106.682 32.1634C106.975 31.8887 107.326 31.7514 107.733 31.7514C108.145 31.7514 108.495 31.8887 108.784 32.1634C109.077 32.4332 109.224 32.7623 109.224 33.1506C109.224 33.5341 109.077 33.8632 108.784 34.1378C108.495 34.4077 108.145 34.5426 107.733 34.5426ZM114.226 40.608V47H111.655V36.0909H114.112V37.9446H114.24C114.491 37.3338 114.891 36.8485 115.441 36.4886C115.994 36.1288 116.679 35.9489 117.493 35.9489C118.246 35.9489 118.902 36.1098 119.46 36.4318C120.024 36.7538 120.459 37.2202 120.767 37.831C121.08 38.4418 121.234 39.1828 121.229 40.054V47H118.658V40.4517C118.658 39.7225 118.468 39.152 118.09 38.7401C117.716 38.3281 117.197 38.1222 116.534 38.1222C116.084 38.1222 115.684 38.2216 115.334 38.4205C114.988 38.6146 114.716 38.8963 114.517 39.2656C114.323 39.6349 114.226 40.0824 114.226 40.608ZM129.29 36.0909V38.0795H123.019V36.0909H129.29ZM124.567 33.4773H127.138V43.7188C127.138 44.0644 127.19 44.3295 127.294 44.5142C127.403 44.6941 127.545 44.8172 127.72 44.8835C127.896 44.9498 128.09 44.983 128.303 44.983C128.464 44.983 128.61 44.9711 128.743 44.9474C128.88 44.9238 128.985 44.9025 129.056 44.8835L129.489 46.8935C129.352 46.9408 129.155 46.9929 128.899 47.0497C128.648 47.1065 128.341 47.1397 127.976 47.1491C127.332 47.1681 126.752 47.071 126.236 46.858C125.72 46.6402 125.31 46.304 125.007 45.8494C124.709 45.3949 124.562 44.8267 124.567 44.1449V33.4773ZM144.42 36.4531C144.353 35.8329 144.074 35.3499 143.581 35.0043C143.094 34.6586 142.459 34.4858 141.678 34.4858C141.129 34.4858 140.658 34.5687 140.265 34.7344C139.872 34.9001 139.571 35.125 139.363 35.4091C139.154 35.6932 139.048 36.0175 139.043 36.3821C139.043 36.6851 139.112 36.9479 139.249 37.1705C139.391 37.393 139.583 37.5824 139.824 37.7386C140.066 37.8902 140.333 38.018 140.627 38.1222C140.921 38.2263 141.216 38.3139 141.515 38.3849L142.878 38.7259C143.428 38.8537 143.956 39.0265 144.462 39.2443C144.974 39.4621 145.43 39.7367 145.833 40.0682C146.24 40.3996 146.562 40.7997 146.799 41.2685C147.036 41.7372 147.154 42.2865 147.154 42.9162C147.154 43.7685 146.936 44.5189 146.501 45.1676C146.065 45.8116 145.435 46.3158 144.611 46.6804C143.792 47.0402 142.8 47.2202 141.635 47.2202C140.504 47.2202 139.521 47.045 138.688 46.6946C137.859 46.3442 137.211 45.8329 136.742 45.1605C136.278 44.4882 136.027 43.669 135.989 42.7031H138.581C138.619 43.2098 138.776 43.6312 139.05 43.9673C139.325 44.3035 139.682 44.5545 140.123 44.7202C140.568 44.8859 141.065 44.9688 141.614 44.9688C142.187 44.9688 142.689 44.8835 143.12 44.7131C143.555 44.5379 143.896 44.2964 144.143 43.9886C144.389 43.6761 144.514 43.3116 144.519 42.8949C144.514 42.5161 144.403 42.2036 144.185 41.9574C143.967 41.7064 143.662 41.4981 143.269 41.3324C142.881 41.1619 142.426 41.0104 141.905 40.8778L140.251 40.4517C139.053 40.1439 138.106 39.6776 137.41 39.0526C136.718 38.4228 136.373 37.5871 136.373 36.5455C136.373 35.6884 136.605 34.938 137.069 34.294C137.537 33.6501 138.174 33.1506 138.979 32.7955C139.784 32.4356 140.696 32.2557 141.714 32.2557C142.746 32.2557 143.65 32.4356 144.427 32.7955C145.208 33.1506 145.821 33.6454 146.266 34.2798C146.711 34.9096 146.941 35.634 146.955 36.4531H144.42ZM154.148 47.2131C153.083 47.2131 152.159 46.9787 151.378 46.5099C150.597 46.0412 149.991 45.3854 149.56 44.5426C149.134 43.6998 148.921 42.715 148.921 41.5881C148.921 40.4612 149.134 39.474 149.56 38.6264C149.991 37.7789 150.597 37.1207 151.378 36.652C152.159 36.1832 153.083 35.9489 154.148 35.9489C155.213 35.9489 156.137 36.1832 156.918 36.652C157.699 37.1207 158.303 37.7789 158.729 38.6264C159.16 39.474 159.375 40.4612 159.375 41.5881C159.375 42.715 159.16 43.6998 158.729 44.5426C158.303 45.3854 157.699 46.0412 156.918 46.5099C156.137 46.9787 155.213 47.2131 154.148 47.2131ZM154.162 45.1534C154.74 45.1534 155.223 44.9948 155.611 44.6776C155.999 44.3556 156.288 43.9247 156.477 43.3849C156.672 42.8452 156.769 42.2438 156.769 41.581C156.769 40.9134 156.672 40.3097 156.477 39.7699C156.288 39.2254 155.999 38.7921 155.611 38.4702C155.223 38.1482 154.74 37.9872 154.162 37.9872C153.57 37.9872 153.078 38.1482 152.685 38.4702C152.297 38.7921 152.005 39.2254 151.811 39.7699C151.622 40.3097 151.527 40.9134 151.527 41.581C151.527 42.2438 151.622 42.8452 151.811 43.3849C152.005 43.9247 152.297 44.3556 152.685 44.6776C153.078 44.9948 153.57 45.1534 154.162 45.1534ZM164.128 32.4545V47H161.557V32.4545H164.128ZM173.725 42.4119V36.0909H176.296V47H173.803V45.0611H173.69C173.444 45.6719 173.039 46.1714 172.475 46.5597C171.917 46.9479 171.228 47.142 170.409 47.142C169.694 47.142 169.061 46.9834 168.512 46.6662C167.968 46.3442 167.542 45.8778 167.234 45.267C166.926 44.6515 166.772 43.9081 166.772 43.0369V36.0909H169.343V42.6392C169.343 43.3305 169.533 43.8797 169.911 44.2869C170.29 44.6941 170.787 44.8977 171.403 44.8977C171.782 44.8977 172.149 44.8054 172.504 44.6207C172.859 44.4361 173.15 44.1615 173.377 43.7969C173.609 43.4276 173.725 42.9659 173.725 42.4119ZM184.388 36.0909V38.0795H178.116V36.0909H184.388ZM179.665 33.4773H182.236V43.7188C182.236 44.0644 182.288 44.3295 182.392 44.5142C182.501 44.6941 182.643 44.8172 182.818 44.8835C182.993 44.9498 183.187 44.983 183.4 44.983C183.561 44.983 183.708 44.9711 183.841 44.9474C183.978 44.9238 184.082 44.9025 184.153 44.8835L184.586 46.8935C184.449 46.9408 184.253 46.9929 183.997 47.0497C183.746 47.1065 183.438 47.1397 183.074 47.1491C182.43 47.1681 181.85 47.071 181.334 46.858C180.818 46.6402 180.408 46.304 180.105 45.8494C179.807 45.3949 179.66 44.8267 179.665 44.1449V33.4773ZM186.538 47V36.0909H189.109V47H186.538ZM187.83 34.5426C187.423 34.5426 187.073 34.4077 186.779 34.1378C186.486 33.8632 186.339 33.5341 186.339 33.1506C186.339 32.7623 186.486 32.4332 186.779 32.1634C187.073 31.8887 187.423 31.7514 187.83 31.7514C188.242 31.7514 188.593 31.8887 188.882 32.1634C189.175 32.4332 189.322 32.7623 189.322 33.1506C189.322 33.5341 189.175 33.8632 188.882 34.1378C188.593 34.4077 188.242 34.5426 187.83 34.5426ZM196.511 47.2131C195.446 47.2131 194.523 46.9787 193.741 46.5099C192.96 46.0412 192.354 45.3854 191.923 44.5426C191.497 43.6998 191.284 42.715 191.284 41.5881C191.284 40.4612 191.497 39.474 191.923 38.6264C192.354 37.7789 192.96 37.1207 193.741 36.652C194.523 36.1832 195.446 35.9489 196.511 35.9489C197.577 35.9489 198.5 36.1832 199.281 36.652C200.062 37.1207 200.666 37.7789 201.092 38.6264C201.523 39.474 201.738 40.4612 201.738 41.5881C201.738 42.715 201.523 43.6998 201.092 44.5426C200.666 45.3854 200.062 46.0412 199.281 46.5099C198.5 46.9787 197.577 47.2131 196.511 47.2131ZM196.525 45.1534C197.103 45.1534 197.586 44.9948 197.974 44.6776C198.363 44.3556 198.651 43.9247 198.841 43.3849C199.035 42.8452 199.132 42.2438 199.132 41.581C199.132 40.9134 199.035 40.3097 198.841 39.7699C198.651 39.2254 198.363 38.7921 197.974 38.4702C197.586 38.1482 197.103 37.9872 196.525 37.9872C195.934 37.9872 195.441 38.1482 195.048 38.4702C194.66 38.7921 194.369 39.2254 194.175 39.7699C193.985 40.3097 193.89 40.9134 193.89 41.581C193.89 42.2438 193.985 42.8452 194.175 43.3849C194.369 43.9247 194.66 44.3556 195.048 44.6776C195.441 44.9948 195.934 45.1534 196.525 45.1534ZM206.492 40.608V47H203.921V36.0909H206.378V37.9446H206.506C206.757 37.3338 207.157 36.8485 207.706 36.4886C208.26 36.1288 208.944 35.9489 209.759 35.9489C210.512 35.9489 211.167 36.1098 211.726 36.4318C212.289 36.7538 212.725 37.2202 213.033 37.831C213.345 38.4418 213.499 39.1828 213.494 40.054V47H210.923V40.4517C210.923 39.7225 210.734 39.152 210.355 38.7401C209.981 38.3281 209.463 38.1222 208.8 38.1222C208.35 38.1222 207.95 38.2216 207.6 38.4205C207.254 38.6146 206.982 38.8963 206.783 39.2656C206.589 39.6349 206.492 40.0824 206.492 40.608ZM224.73 38.9744L222.387 39.2301C222.32 38.9934 222.204 38.7708 222.039 38.5625C221.878 38.3542 221.66 38.1861 221.385 38.0582C221.11 37.9304 220.774 37.8665 220.377 37.8665C219.842 37.8665 219.392 37.9825 219.027 38.2145C218.667 38.4465 218.49 38.7472 218.494 39.1165C218.49 39.4337 218.606 39.6918 218.843 39.8906C219.084 40.0895 219.482 40.2528 220.036 40.3807L221.896 40.7784C222.929 41.0009 223.696 41.3537 224.198 41.8366C224.704 42.3196 224.96 42.9517 224.965 43.733C224.96 44.4195 224.759 45.0256 224.361 45.5511C223.968 46.072 223.421 46.4792 222.72 46.7727C222.02 47.0663 221.215 47.2131 220.306 47.2131C218.97 47.2131 217.896 46.9337 217.081 46.375C216.267 45.8116 215.781 45.0279 215.625 44.0241L218.132 43.7827C218.246 44.2751 218.487 44.6468 218.857 44.8977C219.226 45.1487 219.707 45.2741 220.298 45.2741C220.909 45.2741 221.399 45.1487 221.769 44.8977C222.143 44.6468 222.33 44.3366 222.33 43.9673C222.33 43.6548 222.209 43.3968 221.968 43.1932C221.731 42.9896 221.361 42.8333 220.86 42.7244L218.999 42.3338C217.952 42.116 217.178 41.7491 216.676 41.233C216.174 40.7121 215.926 40.054 215.931 39.2585C215.926 38.5862 216.108 38.0038 216.477 37.5114C216.852 37.0142 217.37 36.6307 218.033 36.3608C218.7 36.0862 219.47 35.9489 220.341 35.9489C221.619 35.9489 222.626 36.2211 223.36 36.7656C224.098 37.3101 224.555 38.0464 224.73 38.9744Z" fill="#EEF6FF"/>
<path d="M43.0881 85H41.4574L45.1214 74.8182H46.8963L50.5604 85H48.9297L46.0511 76.6676H45.9716L43.0881 85ZM43.3615 81.0128H48.6513V82.3054H43.3615V81.0128ZM54.647 85.1491C54.0305 85.1491 53.4804 84.9917 52.9964 84.6768C52.5159 84.3587 52.138 83.9062 51.8629 83.3196C51.5911 82.7296 51.4553 82.022 51.4553 81.1967C51.4553 80.3714 51.5928 79.6655 51.8679 79.0788C52.1463 78.4922 52.5275 78.0431 53.0114 77.7315C53.4953 77.42 54.0438 77.2642 54.657 77.2642C55.1309 77.2642 55.5121 77.3438 55.8004 77.5028C56.0921 77.6586 56.3175 77.8409 56.4766 78.0497C56.639 78.2585 56.7649 78.4425 56.8544 78.6016H56.9439V74.8182H58.4304V85H56.9787V83.8118H56.8544C56.7649 83.9742 56.6357 84.1598 56.4666 84.3686C56.3009 84.5774 56.0722 84.7597 55.7805 84.9155C55.4889 85.0713 55.111 85.1491 54.647 85.1491ZM54.9751 83.8814C55.4027 83.8814 55.764 83.7687 56.0589 83.5433C56.3572 83.3146 56.5826 82.9981 56.7351 82.5938C56.8909 82.1894 56.9688 81.7187 56.9688 81.1818C56.9688 80.6515 56.8925 80.1875 56.7401 79.7898C56.5876 79.392 56.3639 79.0821 56.0689 78.8601C55.7739 78.638 55.4093 78.527 54.9751 78.527C54.5277 78.527 54.1548 78.643 53.8565 78.875C53.5582 79.107 53.3329 79.4235 53.1804 79.8246C53.0313 80.2256 52.9567 80.678 52.9567 81.1818C52.9567 81.6922 53.0329 82.1513 53.1854 82.5589C53.3378 82.9666 53.5632 83.2898 53.8615 83.5284C54.1631 83.7637 54.5343 83.8814 54.9751 83.8814ZM67.0847 77.3636L64.3155 85H62.7246L59.9505 77.3636H61.5463L63.4803 83.2401H63.5598L65.4888 77.3636H67.0847ZM68.4817 85V77.3636H69.9682V85H68.4817ZM69.2324 76.1854C68.9739 76.1854 68.7518 76.0992 68.5662 75.9268C68.3839 75.7512 68.2928 75.5424 68.2928 75.3004C68.2928 75.0552 68.3839 74.8464 68.5662 74.674C68.7518 74.4983 68.9739 74.4105 69.2324 74.4105C69.4909 74.4105 69.7114 74.4983 69.8936 74.674C70.0792 74.8464 70.1721 75.0552 70.1721 75.3004C70.1721 75.5424 70.0792 75.7512 69.8936 75.9268C69.7114 76.0992 69.4909 76.1854 69.2324 76.1854ZM77.6903 79.228L76.343 79.4666C76.2867 79.2943 76.1972 79.1302 76.0746 78.9744C75.9553 78.8187 75.7929 78.6911 75.5874 78.5916C75.3819 78.4922 75.125 78.4425 74.8168 78.4425C74.3958 78.4425 74.0445 78.5369 73.7628 78.7259C73.4811 78.9115 73.3402 79.1518 73.3402 79.4467C73.3402 79.7019 73.4347 79.9074 73.6236 80.0632C73.8125 80.219 74.1174 80.3466 74.5384 80.446L75.7514 80.7244C76.4541 80.8868 76.9777 81.1371 77.3224 81.4751C77.6671 81.8132 77.8395 82.2524 77.8395 82.7926C77.8395 83.25 77.7069 83.6577 77.4418 84.0156C77.1799 84.3703 76.8137 84.6487 76.343 84.8509C75.8757 85.053 75.3338 85.1541 74.7173 85.1541C73.8622 85.1541 73.1645 84.9718 72.6243 84.6072C72.084 84.2393 71.7526 83.7173 71.63 83.0412L73.0668 82.8224C73.1563 83.197 73.3402 83.4804 73.6186 83.6726C73.897 83.8615 74.2599 83.956 74.7074 83.956C75.1946 83.956 75.584 83.8549 75.8757 83.6527C76.1674 83.4472 76.3132 83.197 76.3132 82.902C76.3132 82.6634 76.2237 82.4628 76.0447 82.3004C75.8691 82.138 75.599 82.0154 75.2344 81.9325L73.9418 81.6491C73.2292 81.4867 72.7022 81.2282 72.3608 80.8736C72.0227 80.5189 71.8537 80.0698 71.8537 79.5263C71.8537 79.0755 71.9796 78.6811 72.2315 78.343C72.4834 78.005 72.8314 77.7415 73.2756 77.5526C73.7197 77.3603 74.2285 77.2642 74.8018 77.2642C75.6271 77.2642 76.2768 77.4432 76.7507 77.8011C77.2247 78.1558 77.5379 78.6314 77.6903 79.228ZM79.4739 85V77.3636H80.9604V85H79.4739ZM80.2246 76.1854C79.9661 76.1854 79.744 76.0992 79.5584 75.9268C79.3761 75.7512 79.285 75.5424 79.285 75.3004C79.285 75.0552 79.3761 74.8464 79.5584 74.674C79.744 74.4983 79.9661 74.4105 80.2246 74.4105C80.4831 74.4105 80.7035 74.4983 80.8858 74.674C81.0714 74.8464 81.1642 75.0552 81.1642 75.3004C81.1642 75.5424 81.0714 75.7512 80.8858 75.9268C80.7035 76.0992 80.4831 76.1854 80.2246 76.1854ZM84.4467 80.4659V85H82.9602V77.3636H84.3871V78.6065H84.4815C84.6572 78.2022 84.9323 77.8774 85.3068 77.6321C85.6847 77.3868 86.1603 77.2642 86.7337 77.2642C87.254 77.2642 87.7098 77.3736 88.1009 77.5923C88.492 77.8078 88.7952 78.1293 89.0107 78.5568C89.2261 78.9844 89.3338 79.513 89.3338 80.1428V85H87.8473V80.3217C87.8473 79.7682 87.7031 79.3357 87.4148 79.0241C87.1264 78.7093 86.7304 78.5518 86.2266 78.5518C85.8819 78.5518 85.5753 78.6264 85.3068 78.7756C85.0417 78.9247 84.8312 79.1435 84.6754 79.4318C84.523 79.7169 84.4467 80.0616 84.4467 80.4659ZM94.5291 88.0227C93.9226 88.0227 93.4006 87.9432 92.9631 87.7841C92.5289 87.625 92.1742 87.4145 91.8991 87.1527C91.6241 86.8909 91.4186 86.6042 91.2827 86.2926L92.5604 85.7656C92.6499 85.9115 92.7692 86.0656 92.9183 86.228C93.0708 86.3937 93.2763 86.5346 93.5348 86.6506C93.7966 86.7666 94.133 86.8246 94.544 86.8246C95.1075 86.8246 95.5732 86.687 95.9411 86.4119C96.3089 86.1402 96.4929 85.706 96.4929 85.1094V83.608H96.3984C96.3089 83.7704 96.1797 83.951 96.0107 84.1499C95.8449 84.3487 95.6162 84.5211 95.3246 84.6669C95.0329 84.8127 94.6534 84.8857 94.1861 84.8857C93.5829 84.8857 93.0393 84.7448 92.5554 84.4631C92.0748 84.178 91.6937 83.7588 91.4119 83.2053C91.1335 82.6484 90.9943 81.964 90.9943 81.152C90.9943 80.34 91.1319 79.6439 91.407 79.0639C91.6854 78.4839 92.0665 78.0398 92.5504 77.7315C93.0343 77.42 93.5829 77.2642 94.196 77.2642C94.67 77.2642 95.0528 77.3438 95.3445 77.5028C95.6361 77.6586 95.8632 77.8409 96.0256 78.0497C96.1913 78.2585 96.3189 78.4425 96.4084 78.6016H96.5178V77.3636H97.9744V85.169C97.9744 85.8253 97.822 86.3639 97.517 86.7848C97.2121 87.2057 96.7995 87.5173 96.2791 87.7195C95.7621 87.9216 95.1787 88.0227 94.5291 88.0227ZM94.5142 83.6527C94.9418 83.6527 95.303 83.5533 95.598 83.3544C95.8963 83.1522 96.1217 82.8639 96.2741 82.4893C96.4299 82.1115 96.5078 81.6591 96.5078 81.1321C96.5078 80.6184 96.4316 80.166 96.2791 79.7749C96.1267 79.3838 95.9029 79.0788 95.608 78.8601C95.313 78.638 94.9484 78.527 94.5142 78.527C94.0668 78.527 93.6939 78.643 93.3956 78.875C93.0973 79.1037 92.8719 79.4152 92.7195 79.8097C92.5703 80.2041 92.4957 80.6449 92.4957 81.1321C92.4957 81.6326 92.572 82.0717 92.7244 82.4496C92.8769 82.8274 93.1023 83.1224 93.4006 83.3345C93.7022 83.5466 94.0734 83.6527 94.5142 83.6527ZM101.902 83.608L101.827 84.1499C101.778 84.5476 101.693 84.9619 101.574 85.3928C101.458 85.8269 101.337 86.2296 101.211 86.6009C101.088 86.9721 100.987 87.267 100.908 87.4858H99.8537C99.8968 87.2803 99.9564 87.0019 100.033 86.6506C100.109 86.3026 100.183 85.9131 100.256 85.4822C100.329 85.0514 100.384 84.6122 100.42 84.1648L100.47 83.608H101.902ZM110.759 85.1541C110.02 85.1541 109.383 84.9867 108.85 84.652C108.319 84.3139 107.912 83.8482 107.627 83.255C107.342 82.6617 107.199 81.9822 107.199 81.2166C107.199 80.4411 107.345 79.7566 107.637 79.1634C107.928 78.5668 108.339 78.1011 108.87 77.7663C109.4 77.4316 110.025 77.2642 110.744 77.2642C111.324 77.2642 111.841 77.3719 112.295 77.5874C112.749 77.7995 113.115 78.0978 113.394 78.4822C113.676 78.8667 113.843 79.3158 113.896 79.8295H112.449C112.37 79.4716 112.187 79.1634 111.902 78.9048C111.621 78.6463 111.243 78.517 110.769 78.517C110.355 78.517 109.992 78.6264 109.68 78.8452C109.372 79.0606 109.132 79.3688 108.959 79.7699C108.787 80.1676 108.701 80.6383 108.701 81.1818C108.701 81.7386 108.785 82.2192 108.954 82.6236C109.123 83.0279 109.362 83.3411 109.67 83.5632C109.982 83.7853 110.348 83.8963 110.769 83.8963C111.051 83.8963 111.306 83.8449 111.534 83.7422C111.766 83.6361 111.96 83.4853 112.116 83.2898C112.275 83.0942 112.386 82.8589 112.449 82.5838H113.896C113.843 83.0777 113.682 83.5185 113.414 83.9062C113.145 84.294 112.786 84.599 112.335 84.821C111.887 85.0431 111.362 85.1541 110.759 85.1541ZM117.708 85.169C117.224 85.169 116.787 85.0795 116.395 84.9006C116.004 84.7183 115.694 84.4548 115.466 84.1101C115.24 83.7654 115.128 83.3428 115.128 82.8423C115.128 82.4115 115.211 82.0568 115.376 81.7784C115.542 81.5 115.766 81.2796 116.047 81.1172C116.329 80.9548 116.644 80.8321 116.992 80.7493C117.34 80.6664 117.695 80.6035 118.056 80.5604C118.513 80.5073 118.885 80.4643 119.17 80.4311C119.455 80.3946 119.662 80.3366 119.791 80.2571C119.92 80.1776 119.985 80.0483 119.985 79.8693V79.8345C119.985 79.4003 119.862 79.0639 119.617 78.8253C119.375 78.5866 119.014 78.4673 118.533 78.4673C118.033 78.4673 117.638 78.5784 117.35 78.8004C117.065 79.0192 116.868 79.2628 116.758 79.5312L115.361 79.2131C115.527 78.7491 115.769 78.3745 116.087 78.0895C116.409 77.8011 116.778 77.5923 117.196 77.4631C117.613 77.3305 118.053 77.2642 118.513 77.2642C118.818 77.2642 119.141 77.3007 119.483 77.3736C119.827 77.4432 120.149 77.5724 120.447 77.7614C120.749 77.9503 120.996 78.2204 121.188 78.5717C121.38 78.9197 121.476 79.3722 121.476 79.929V85H120.025V83.956H119.965C119.869 84.1482 119.725 84.3371 119.532 84.5227C119.34 84.7083 119.093 84.8625 118.792 84.9851C118.49 85.1077 118.129 85.169 117.708 85.169ZM118.031 83.9759C118.442 83.9759 118.793 83.8946 119.085 83.7322C119.38 83.5698 119.604 83.3577 119.756 83.0959C119.912 82.8307 119.99 82.5473 119.99 82.2457V81.2614C119.937 81.3144 119.834 81.3641 119.682 81.4105C119.532 81.4536 119.362 81.4917 119.17 81.5249C118.977 81.5547 118.79 81.5829 118.608 81.6094C118.425 81.6326 118.273 81.6525 118.15 81.669C117.862 81.7055 117.599 81.7668 117.36 81.853C117.125 81.9392 116.936 82.0634 116.793 82.2259C116.654 82.3849 116.584 82.5971 116.584 82.8622C116.584 83.2301 116.72 83.5085 116.992 83.6974C117.264 83.883 117.61 83.9759 118.031 83.9759ZM123.456 85V77.3636H124.893V78.5767H124.973C125.112 78.1657 125.357 77.8426 125.708 77.6072C126.063 77.3686 126.464 77.2493 126.912 77.2493C127.004 77.2493 127.114 77.2526 127.24 77.2592C127.369 77.2659 127.47 77.2741 127.543 77.2841V78.706C127.483 78.6894 127.377 78.6712 127.225 78.6513C127.072 78.6281 126.92 78.6165 126.767 78.6165C126.416 78.6165 126.103 78.6911 125.828 78.8402C125.556 78.986 125.341 79.1899 125.181 79.4517C125.022 79.7102 124.943 80.0052 124.943 80.3366V85H123.456ZM131.847 85.1541C131.095 85.1541 130.447 84.9934 129.903 84.6719C129.363 84.3471 128.945 83.8913 128.65 83.3047C128.359 82.7147 128.213 82.0237 128.213 81.2315C128.213 80.4493 128.359 79.7599 128.65 79.1634C128.945 78.5668 129.356 78.1011 129.883 77.7663C130.414 77.4316 131.033 77.2642 131.743 77.2642C132.174 77.2642 132.591 77.3355 132.996 77.478C133.4 77.6205 133.763 77.8442 134.084 78.1491C134.406 78.4541 134.659 78.8501 134.845 79.3374C135.031 79.8213 135.123 80.4096 135.123 81.1023V81.6293H129.053V80.5156H133.667C133.667 80.1245 133.587 79.7782 133.428 79.4766C133.269 79.1716 133.045 78.9313 132.757 78.7557C132.472 78.58 132.137 78.4922 131.753 78.4922C131.335 78.4922 130.97 78.5949 130.659 78.8004C130.351 79.0026 130.112 79.2678 129.943 79.5959C129.777 79.9207 129.694 80.2737 129.694 80.6548V81.5249C129.694 82.0353 129.784 82.4695 129.963 82.8274C130.145 83.1854 130.399 83.4588 130.724 83.6477C131.048 83.8333 131.428 83.9261 131.862 83.9261C132.144 83.9261 132.401 83.8864 132.633 83.8068C132.865 83.724 133.065 83.6013 133.234 83.4389C133.403 83.2765 133.532 83.076 133.622 82.8374L135.029 83.0909C134.916 83.5052 134.714 83.8681 134.422 84.1797C134.134 84.4879 133.771 84.7282 133.334 84.9006C132.899 85.0696 132.404 85.1541 131.847 85.1541ZM140.064 85.1541C139.312 85.1541 138.664 84.9934 138.12 84.6719C137.58 84.3471 137.162 83.8913 136.867 83.3047C136.576 82.7147 136.43 82.0237 136.43 81.2315C136.43 80.4493 136.576 79.7599 136.867 79.1634C137.162 78.5668 137.573 78.1011 138.1 77.7663C138.63 77.4316 139.25 77.2642 139.96 77.2642C140.39 77.2642 140.808 77.3355 141.212 77.478C141.617 77.6205 141.98 77.8442 142.301 78.1491C142.623 78.4541 142.876 78.8501 143.062 79.3374C143.247 79.8213 143.34 80.4096 143.34 81.1023V81.6293H137.27V80.5156H141.884C141.884 80.1245 141.804 79.7782 141.645 79.4766C141.486 79.1716 141.262 78.9313 140.974 78.7557C140.689 78.58 140.354 78.4922 139.969 78.4922C139.552 78.4922 139.187 78.5949 138.876 78.8004C138.567 79.0026 138.329 79.2678 138.16 79.5959C137.994 79.9207 137.911 80.2737 137.911 80.6548V81.5249C137.911 82.0353 138.001 82.4695 138.18 82.8274C138.362 83.1854 138.616 83.4588 138.94 83.6477C139.265 83.8333 139.645 83.9261 140.079 83.9261C140.361 83.9261 140.617 83.8864 140.849 83.8068C141.081 83.724 141.282 83.6013 141.451 83.4389C141.62 83.2765 141.749 83.076 141.839 82.8374L143.246 83.0909C143.133 83.5052 142.931 83.8681 142.639 84.1797C142.351 84.4879 141.988 84.7282 141.55 84.9006C141.116 85.0696 140.621 85.1541 140.064 85.1541ZM144.99 85V77.3636H146.426V78.5767H146.506C146.645 78.1657 146.89 77.8426 147.242 77.6072C147.596 77.3686 147.997 77.2493 148.445 77.2493C148.538 77.2493 148.647 77.2526 148.773 77.2592C148.902 77.2659 149.003 77.2741 149.076 77.2841V78.706C149.017 78.6894 148.91 78.6712 148.758 78.6513C148.606 78.6281 148.453 78.6165 148.301 78.6165C147.949 78.6165 147.636 78.6911 147.361 78.8402C147.089 78.986 146.874 79.1899 146.715 79.4517C146.556 79.7102 146.476 80.0052 146.476 80.3366V85H144.99ZM157.632 77.3636V78.5568H153.461V77.3636H157.632ZM154.58 75.5341H156.066V82.7578C156.066 83.0462 156.109 83.2633 156.195 83.4091C156.282 83.5516 156.393 83.6494 156.529 83.7024C156.668 83.7521 156.819 83.777 156.981 83.777C157.1 83.777 157.205 83.7687 157.294 83.7521C157.384 83.7356 157.453 83.7223 157.503 83.7124L157.771 84.9403C157.685 84.9735 157.563 85.0066 157.404 85.0398C157.244 85.0762 157.046 85.0961 156.807 85.0994C156.416 85.1061 156.051 85.0365 155.713 84.8906C155.375 84.7448 155.102 84.5194 154.893 84.2145C154.684 83.9096 154.58 83.5268 154.58 83.0661V75.5341ZM162.411 85.1541C161.695 85.1541 161.071 84.9901 160.537 84.6619C160.003 84.3338 159.589 83.8748 159.294 83.2848C158.999 82.6948 158.852 82.0054 158.852 81.2166C158.852 80.4245 158.999 79.7318 159.294 79.1385C159.589 78.5452 160.003 78.0845 160.537 77.7564C161.071 77.4283 161.695 77.2642 162.411 77.2642C163.127 77.2642 163.752 77.4283 164.286 77.7564C164.819 78.0845 165.233 78.5452 165.528 79.1385C165.823 79.7318 165.971 80.4245 165.971 81.2166C165.971 82.0054 165.823 82.6948 165.528 83.2848C165.233 83.8748 164.819 84.3338 164.286 84.6619C163.752 84.9901 163.127 85.1541 162.411 85.1541ZM162.416 83.9062C162.88 83.9062 163.265 83.7836 163.57 83.5384C163.875 83.2931 164.1 82.9666 164.246 82.5589C164.395 82.1513 164.469 81.7022 164.469 81.2116C164.469 80.7244 164.395 80.277 164.246 79.8693C164.1 79.4583 163.875 79.1286 163.57 78.88C163.265 78.6314 162.88 78.5071 162.416 78.5071C161.949 78.5071 161.561 78.6314 161.253 78.88C160.948 79.1286 160.721 79.4583 160.572 79.8693C160.426 80.277 160.353 80.7244 160.353 81.2116C160.353 81.7022 160.426 82.1513 160.572 82.5589C160.721 82.9666 160.948 83.2931 161.253 83.5384C161.561 83.7836 161.949 83.9062 162.416 83.9062ZM170.847 85.1541C170.131 85.1541 169.506 84.9901 168.972 84.6619C168.439 84.3338 168.025 83.8748 167.73 83.2848C167.435 82.6948 167.287 82.0054 167.287 81.2166C167.287 80.4245 167.435 79.7318 167.73 79.1385C168.025 78.5452 168.439 78.0845 168.972 77.7564C169.506 77.4283 170.131 77.2642 170.847 77.2642C171.563 77.2642 172.187 77.4283 172.721 77.7564C173.255 78.0845 173.669 78.5452 173.964 79.1385C174.259 79.7318 174.406 80.4245 174.406 81.2166C174.406 82.0054 174.259 82.6948 173.964 83.2848C173.669 83.8748 173.255 84.3338 172.721 84.6619C172.187 84.9901 171.563 85.1541 170.847 85.1541ZM170.852 83.9062C171.316 83.9062 171.7 83.7836 172.005 83.5384C172.31 83.2931 172.535 82.9666 172.681 82.5589C172.83 82.1513 172.905 81.7022 172.905 81.2116C172.905 80.7244 172.83 80.277 172.681 79.8693C172.535 79.4583 172.31 79.1286 172.005 78.88C171.7 78.6314 171.316 78.5071 170.852 78.5071C170.384 78.5071 169.997 78.6314 169.688 78.88C169.383 79.1286 169.156 79.4583 169.007 79.8693C168.861 80.277 168.789 80.7244 168.789 81.2116C168.789 81.7022 168.861 82.1513 169.007 82.5589C169.156 82.9666 169.383 83.2931 169.688 83.5384C169.997 83.7836 170.384 83.9062 170.852 83.9062ZM177.552 74.8182V85H176.066V74.8182H177.552ZM185.274 79.228L183.927 79.4666C183.871 79.2943 183.781 79.1302 183.659 78.9744C183.539 78.8187 183.377 78.6911 183.171 78.5916C182.966 78.4922 182.709 78.4425 182.401 78.4425C181.98 78.4425 181.628 78.5369 181.347 78.7259C181.065 78.9115 180.924 79.1518 180.924 79.4467C180.924 79.7019 181.019 79.9074 181.208 80.0632C181.396 80.219 181.701 80.3466 182.122 80.446L183.335 80.7244C184.038 80.8868 184.562 81.1371 184.906 81.4751C185.251 81.8132 185.423 82.2524 185.423 82.7926C185.423 83.25 185.291 83.6577 185.026 84.0156C184.764 84.3703 184.398 84.6487 183.927 84.8509C183.46 85.053 182.918 85.1541 182.301 85.1541C181.446 85.1541 180.749 84.9718 180.208 84.6072C179.668 84.2393 179.337 83.7173 179.214 83.0412L180.651 82.8224C180.74 83.197 180.924 83.4804 181.203 83.6726C181.481 83.8615 181.844 83.956 182.291 83.956C182.779 83.956 183.168 83.8549 183.46 83.6527C183.751 83.4472 183.897 83.197 183.897 82.902C183.897 82.6634 183.808 82.4628 183.629 82.3004C183.453 82.138 183.183 82.0154 182.818 81.9325L181.526 81.6491C180.813 81.4867 180.286 81.2282 179.945 80.8736C179.607 80.5189 179.438 80.0698 179.438 79.5263C179.438 79.0755 179.564 78.6811 179.816 78.343C180.067 78.005 180.415 77.7415 180.86 77.5526C181.304 77.3603 181.812 77.2642 182.386 77.2642C183.211 77.2642 183.861 77.4432 184.335 77.8011C184.809 78.1558 185.122 78.6314 185.274 79.228ZM188.992 83.608L188.917 84.1499C188.868 84.5476 188.783 84.9619 188.664 85.3928C188.548 85.8269 188.427 86.2296 188.301 86.6009C188.178 86.9721 188.077 87.267 187.998 87.4858H186.944C186.987 87.2803 187.046 87.0019 187.123 86.6506C187.199 86.3026 187.273 85.9131 187.346 85.4822C187.419 85.0514 187.474 84.6122 187.51 84.1648L187.56 83.608H188.992ZM197.923 85.1541C197.171 85.1541 196.523 84.9934 195.979 84.6719C195.439 84.3471 195.022 83.8913 194.727 83.3047C194.435 82.7147 194.289 82.0237 194.289 81.2315C194.289 80.4493 194.435 79.7599 194.727 79.1634C195.022 78.5668 195.433 78.1011 195.96 77.7663C196.49 77.4316 197.11 77.2642 197.819 77.2642C198.25 77.2642 198.667 77.3355 199.072 77.478C199.476 77.6205 199.839 77.8442 200.161 78.1491C200.482 78.4541 200.736 78.8501 200.921 79.3374C201.107 79.8213 201.2 80.4096 201.2 81.1023V81.6293H195.129V80.5156H199.743C199.743 80.1245 199.663 79.7782 199.504 79.4766C199.345 79.1716 199.121 78.9313 198.833 78.7557C198.548 78.58 198.213 78.4922 197.829 78.4922C197.411 78.4922 197.047 78.5949 196.735 78.8004C196.427 79.0026 196.188 79.2678 196.019 79.5959C195.853 79.9207 195.771 80.2737 195.771 80.6548V81.5249C195.771 82.0353 195.86 82.4695 196.039 82.8274C196.221 83.1854 196.475 83.4588 196.8 83.6477C197.125 83.8333 197.504 83.9261 197.938 83.9261C198.22 83.9261 198.477 83.8864 198.709 83.8068C198.941 83.724 199.141 83.6013 199.31 83.4389C199.479 83.2765 199.609 83.076 199.698 82.8374L201.105 83.0909C200.992 83.5052 200.79 83.8681 200.499 84.1797C200.21 84.4879 199.847 84.7282 199.41 84.9006C198.976 85.0696 198.48 85.1541 197.923 85.1541ZM205.071 85.169C204.587 85.169 204.15 85.0795 203.759 84.9006C203.368 84.7183 203.058 84.4548 202.829 84.1101C202.604 83.7654 202.491 83.3428 202.491 82.8423C202.491 82.4115 202.574 82.0568 202.74 81.7784C202.905 81.5 203.129 81.2796 203.411 81.1172C203.692 80.9548 204.007 80.8321 204.355 80.7493C204.703 80.6664 205.058 80.6035 205.419 80.5604C205.877 80.5073 206.248 80.4643 206.533 80.4311C206.818 80.3946 207.025 80.3366 207.154 80.2571C207.284 80.1776 207.348 80.0483 207.348 79.8693V79.8345C207.348 79.4003 207.226 79.0639 206.98 78.8253C206.738 78.5866 206.377 78.4673 205.896 78.4673C205.396 78.4673 205.002 78.5784 204.713 78.8004C204.428 79.0192 204.231 79.2628 204.122 79.5312L202.725 79.2131C202.89 78.7491 203.132 78.3745 203.45 78.0895C203.772 77.8011 204.142 77.5923 204.559 77.4631C204.977 77.3305 205.416 77.2642 205.877 77.2642C206.182 77.2642 206.505 77.3007 206.846 77.3736C207.191 77.4432 207.512 77.5724 207.811 77.7614C208.112 77.9503 208.359 78.2204 208.551 78.5717C208.744 78.9197 208.84 79.3722 208.84 79.929V85H207.388V83.956H207.328C207.232 84.1482 207.088 84.3371 206.896 84.5227C206.704 84.7083 206.457 84.8625 206.155 84.9851C205.853 85.1077 205.492 85.169 205.071 85.169ZM205.394 83.9759C205.805 83.9759 206.157 83.8946 206.448 83.7322C206.743 83.5698 206.967 83.3577 207.119 83.0959C207.275 82.8307 207.353 82.5473 207.353 82.2457V81.2614C207.3 81.3144 207.197 81.3641 207.045 81.4105C206.896 81.4536 206.725 81.4917 206.533 81.5249C206.341 81.5547 206.153 81.5829 205.971 81.6094C205.789 81.6326 205.636 81.6525 205.514 81.669C205.225 81.7055 204.962 81.7668 204.723 81.853C204.488 81.9392 204.299 82.0634 204.156 82.2259C204.017 82.3849 203.948 82.5971 203.948 82.8622C203.948 83.2301 204.084 83.5085 204.355 83.6974C204.627 83.883 204.973 83.9759 205.394 83.9759ZM210.82 85V77.3636H212.256V78.5767H212.336C212.475 78.1657 212.72 77.8426 213.072 77.6072C213.426 77.3686 213.827 77.2493 214.275 77.2493C214.368 77.2493 214.477 77.2526 214.603 77.2592C214.732 77.2659 214.833 77.2741 214.906 77.2841V78.706C214.847 78.6894 214.741 78.6712 214.588 78.6513C214.436 78.6281 214.283 78.6165 214.131 78.6165C213.779 78.6165 213.466 78.6911 213.191 78.8402C212.919 78.986 212.704 79.1899 212.545 79.4517C212.386 79.7102 212.306 80.0052 212.306 80.3366V85H210.82ZM217.679 74.8182V85H216.193V74.8182H217.679ZM220.619 87.8636C220.397 87.8636 220.194 87.8454 220.012 87.8089C219.83 87.7758 219.694 87.7393 219.604 87.6996L219.962 86.4815C220.234 86.5545 220.476 86.5859 220.688 86.576C220.9 86.5661 221.088 86.4865 221.25 86.3374C221.416 86.1882 221.562 85.9446 221.688 85.6065L221.871 85.0994L219.077 77.3636H220.668L222.602 83.2898H222.682L224.616 77.3636H226.212L223.065 86.0192C222.919 86.4169 222.733 86.7533 222.508 87.0284C222.282 87.3068 222.014 87.5156 221.702 87.6548C221.391 87.794 221.03 87.8636 220.619 87.8636ZM233.536 85.169C233.052 85.169 232.615 85.0795 232.224 84.9006C231.832 84.7183 231.523 84.4548 231.294 84.1101C231.068 83.7654 230.956 83.3428 230.956 82.8423C230.956 82.4115 231.039 82.0568 231.204 81.7784C231.37 81.5 231.594 81.2796 231.876 81.1172C232.157 80.9548 232.472 80.8321 232.82 80.7493C233.168 80.6664 233.523 80.6035 233.884 80.5604C234.341 80.5073 234.713 80.4643 234.998 80.4311C235.283 80.3946 235.49 80.3366 235.619 80.2571C235.748 80.1776 235.813 80.0483 235.813 79.8693V79.8345C235.813 79.4003 235.69 79.0639 235.445 78.8253C235.203 78.5866 234.842 78.4673 234.361 78.4673C233.861 78.4673 233.466 78.5784 233.178 78.8004C232.893 79.0192 232.696 79.2628 232.586 79.5312L231.189 79.2131C231.355 78.7491 231.597 78.3745 231.915 78.0895C232.237 77.8011 232.606 77.5923 233.024 77.4631C233.442 77.3305 233.881 77.2642 234.341 77.2642C234.646 77.2642 234.97 77.3007 235.311 77.3736C235.656 77.4432 235.977 77.5724 236.275 77.7614C236.577 77.9503 236.824 78.2204 237.016 78.5717C237.208 78.9197 237.305 79.3722 237.305 79.929V85H235.853V83.956H235.793C235.697 84.1482 235.553 84.3371 235.361 84.5227C235.168 84.7083 234.921 84.8625 234.62 84.9851C234.318 85.1077 233.957 85.169 233.536 85.169ZM233.859 83.9759C234.27 83.9759 234.622 83.8946 234.913 83.7322C235.208 83.5698 235.432 83.3577 235.584 83.0959C235.74 82.8307 235.818 82.5473 235.818 82.2457V81.2614C235.765 81.3144 235.662 81.3641 235.51 81.4105C235.361 81.4536 235.19 81.4917 234.998 81.5249C234.805 81.5547 234.618 81.5829 234.436 81.6094C234.254 81.6326 234.101 81.6525 233.979 81.669C233.69 81.7055 233.427 81.7668 233.188 81.853C232.953 81.9392 232.764 82.0634 232.621 82.2259C232.482 82.3849 232.412 82.5971 232.412 82.8622C232.412 83.2301 232.548 83.5085 232.82 83.6974C233.092 83.883 233.438 83.9759 233.859 83.9759ZM240.771 74.8182V85H239.284V74.8182H240.771ZM246.062 85.1541C245.31 85.1541 244.662 84.9934 244.118 84.6719C243.578 84.3471 243.16 83.8913 242.865 83.3047C242.574 82.7147 242.428 82.0237 242.428 81.2315C242.428 80.4493 242.574 79.7599 242.865 79.1634C243.16 78.5668 243.571 78.1011 244.098 77.7663C244.628 77.4316 245.248 77.2642 245.958 77.2642C246.388 77.2642 246.806 77.3355 247.21 77.478C247.615 77.6205 247.978 77.8442 248.299 78.1491C248.621 78.4541 248.874 78.8501 249.06 79.3374C249.245 79.8213 249.338 80.4096 249.338 81.1023V81.6293H243.268V80.5156H247.882C247.882 80.1245 247.802 79.7782 247.643 79.4766C247.484 79.1716 247.26 78.9313 246.972 78.7557C246.687 78.58 246.352 78.4922 245.968 78.4922C245.55 78.4922 245.185 78.5949 244.874 78.8004C244.566 79.0026 244.327 79.2678 244.158 79.5959C243.992 79.9207 243.909 80.2737 243.909 80.6548V81.5249C243.909 82.0353 243.999 82.4695 244.178 82.8274C244.36 83.1854 244.614 83.4588 244.938 83.6477C245.263 83.8333 245.643 83.9261 246.077 83.9261C246.359 83.9261 246.615 83.8864 246.847 83.8068C247.079 83.724 247.28 83.6013 247.449 83.4389C247.618 83.2765 247.747 83.076 247.837 82.8374L249.244 83.0909C249.131 83.5052 248.929 83.8681 248.637 84.1797C248.349 84.4879 247.986 84.7282 247.548 84.9006C247.114 85.0696 246.619 85.1541 246.062 85.1541ZM250.988 85V77.3636H252.424V78.5767H252.504C252.643 78.1657 252.888 77.8426 253.24 77.6072C253.594 77.3686 253.995 77.2493 254.443 77.2493C254.536 77.2493 254.645 77.2526 254.771 77.2592C254.9 77.2659 255.001 77.2741 255.074 77.2841V78.706C255.015 78.6894 254.908 78.6712 254.756 78.6513C254.604 78.6281 254.451 78.6165 254.299 78.6165C253.947 78.6165 253.634 78.6911 253.359 78.8402C253.087 78.986 252.872 79.1899 252.713 79.4517C252.554 79.7102 252.474 80.0052 252.474 80.3366V85H250.988ZM260.376 77.3636V78.5568H256.205V77.3636H260.376ZM257.324 75.5341H258.81V82.7578C258.81 83.0462 258.853 83.2633 258.94 83.4091C259.026 83.5516 259.137 83.6494 259.273 83.7024C259.412 83.7521 259.563 83.777 259.725 83.777C259.844 83.777 259.949 83.7687 260.038 83.7521C260.128 83.7356 260.197 83.7223 260.247 83.7124L260.516 84.9403C260.429 84.9735 260.307 85.0066 260.148 85.0398C259.989 85.0762 259.79 85.0961 259.551 85.0994C259.16 85.1061 258.795 85.0365 258.457 84.8906C258.119 84.7448 257.846 84.5194 257.637 84.2145C257.428 83.9096 257.324 83.5268 257.324 83.0661V75.5341ZM263.955 83.608L263.88 84.1499C263.83 84.5476 263.746 84.9619 263.627 85.3928C263.511 85.8269 263.39 86.2296 263.264 86.6009C263.141 86.9721 263.04 87.267 262.96 87.4858H261.906C261.95 87.2803 262.009 87.0019 262.085 86.6506C262.162 86.3026 262.236 85.9131 262.309 85.4822C262.382 85.0514 262.437 84.6122 262.473 84.1648L262.523 83.608H263.955ZM45.646 102V91.8182H47.1325V95.6016H47.2219C47.3081 95.4425 47.4324 95.2585 47.5948 95.0497C47.7572 94.8409 47.9826 94.6586 48.271 94.5028C48.5593 94.3438 48.9405 94.2642 49.4144 94.2642C50.0309 94.2642 50.5811 94.42 51.065 94.7315C51.5489 95.0431 51.9284 95.4922 52.2035 96.0788C52.4819 96.6655 52.6211 97.3714 52.6211 98.1967C52.6211 99.022 52.4835 99.7296 52.2085 100.32C51.9334 100.906 51.5555 101.359 51.0749 101.677C50.5943 101.992 50.0458 102.149 49.4293 102.149C48.9653 102.149 48.5858 102.071 48.2908 101.915C47.9992 101.76 47.7705 101.577 47.6048 101.369C47.439 101.16 47.3114 100.974 47.2219 100.812H47.0977V102H45.646ZM47.1026 98.1818C47.1026 98.7187 47.1805 99.1894 47.3363 99.5938C47.4921 99.9981 47.7174 100.315 48.0124 100.543C48.3074 100.769 48.6687 100.881 49.0962 100.881C49.5404 100.881 49.9116 100.764 50.2099 100.528C50.5082 100.29 50.7335 99.9666 50.886 99.5589C51.0418 99.1513 51.1197 98.6922 51.1197 98.1818C51.1197 97.678 51.0434 97.2256 50.891 96.8246C50.7418 96.4235 50.5165 96.107 50.2148 95.875C49.9165 95.643 49.5437 95.527 49.0962 95.527C48.6654 95.527 48.3008 95.638 48.0025 95.8601C47.7075 96.0821 47.4838 96.392 47.3313 96.7898C47.1789 97.1875 47.1026 97.6515 47.1026 98.1818ZM56.5126 102.169C56.0287 102.169 55.5912 102.08 55.2001 101.901C54.809 101.718 54.4991 101.455 54.2704 101.11C54.045 100.765 53.9324 100.343 53.9324 99.8423C53.9324 99.4115 54.0152 99.0568 54.1809 98.7784C54.3467 98.5 54.5704 98.2796 54.8521 98.1172C55.1338 97.9548 55.4487 97.8321 55.7967 97.7493C56.1447 97.6664 56.4993 97.6035 56.8606 97.5604C57.318 97.5073 57.6892 97.4643 57.9743 97.4311C58.2593 97.3946 58.4664 97.3366 58.5957 97.2571C58.725 97.1776 58.7896 97.0483 58.7896 96.8693V96.8345C58.7896 96.4003 58.667 96.0639 58.4217 95.8253C58.1797 95.5866 57.8185 95.4673 57.3379 95.4673C56.8374 95.4673 56.443 95.5784 56.1547 95.8004C55.8696 96.0192 55.6724 96.2628 55.563 96.5312L54.166 96.2131C54.3317 95.7491 54.5737 95.3745 54.8919 95.0895C55.2134 94.8011 55.5829 94.5923 56.0005 94.4631C56.4181 94.3305 56.8573 94.2642 57.318 94.2642C57.6229 94.2642 57.9461 94.3007 58.2875 94.3736C58.6322 94.4432 58.9537 94.5724 59.252 94.7614C59.5536 94.9503 59.8005 95.2204 59.9927 95.5717C60.185 95.9197 60.2811 96.3722 60.2811 96.929V102H58.8294V100.956H58.7697C58.6736 101.148 58.5294 101.337 58.3372 101.523C58.1449 101.708 57.898 101.862 57.5964 101.985C57.2948 102.108 56.9335 102.169 56.5126 102.169ZM56.8358 100.976C57.2467 100.976 57.5981 100.895 57.8897 100.732C58.1847 100.57 58.4084 100.358 58.5609 100.096C58.7167 99.8307 58.7946 99.5473 58.7946 99.2457V98.2614C58.7415 98.3144 58.6388 98.3641 58.4863 98.4105C58.3372 98.4536 58.1665 98.4917 57.9743 98.5249C57.782 98.5547 57.5948 98.5829 57.4125 98.6094C57.2302 98.6326 57.0777 98.6525 56.9551 98.669C56.6667 98.7055 56.4032 98.7668 56.1646 98.853C55.9293 98.9392 55.7404 99.0634 55.5978 99.2259C55.4586 99.3849 55.389 99.5971 55.389 99.8622C55.389 100.23 55.5249 100.509 55.7967 100.697C56.0685 100.883 56.4148 100.976 56.8358 100.976ZM67.9833 96.228L66.636 96.4666C66.5797 96.2943 66.4902 96.1302 66.3675 95.9744C66.2482 95.8187 66.0858 95.6911 65.8803 95.5916C65.6748 95.4922 65.418 95.4425 65.1097 95.4425C64.6888 95.4425 64.3375 95.5369 64.0558 95.7259C63.774 95.9115 63.6332 96.1518 63.6332 96.4467C63.6332 96.7019 63.7276 96.9074 63.9165 97.0632C64.1055 97.219 64.4104 97.3466 64.8313 97.446L66.0444 97.7244C66.747 97.8868 67.2707 98.1371 67.6154 98.4751C67.9601 98.8132 68.1325 99.2524 68.1325 99.7926C68.1325 100.25 67.9999 100.658 67.7347 101.016C67.4729 101.37 67.1067 101.649 66.636 101.851C66.1687 102.053 65.6268 102.154 65.0103 102.154C64.1552 102.154 63.4575 101.972 62.9173 101.607C62.377 101.239 62.0456 100.717 61.9229 100.041L63.3597 99.8224C63.4492 100.197 63.6332 100.48 63.9116 100.673C64.19 100.862 64.5529 100.956 65.0004 100.956C65.4876 100.956 65.877 100.855 66.1687 100.653C66.4603 100.447 66.6062 100.197 66.6062 99.902C66.6062 99.6634 66.5167 99.4628 66.3377 99.3004C66.1621 99.138 65.8919 99.0154 65.5273 98.9325L64.2347 98.6491C63.5221 98.4867 62.9951 98.2282 62.6538 97.8736C62.3157 97.5189 62.1467 97.0698 62.1467 96.5263C62.1467 96.0755 62.2726 95.6811 62.5245 95.343C62.7764 95.005 63.1244 94.7415 63.5685 94.5526C64.0127 94.3603 64.5214 94.2642 65.0948 94.2642C65.9201 94.2642 66.5697 94.4432 67.0437 94.8011C67.5176 95.1558 67.8308 95.6314 67.9833 96.228ZM69.7669 102V94.3636H71.2534V102H69.7669ZM70.5176 93.1854C70.2591 93.1854 70.037 93.0992 69.8514 92.9268C69.6691 92.7512 69.5779 92.5424 69.5779 92.3004C69.5779 92.0552 69.6691 91.8464 69.8514 91.674C70.037 91.4983 70.2591 91.4105 70.5176 91.4105C70.7761 91.4105 70.9965 91.4983 71.1788 91.674C71.3644 91.8464 71.4572 92.0552 71.4572 92.3004C71.4572 92.5424 71.3644 92.7512 71.1788 92.9268C70.9965 93.0992 70.7761 93.1854 70.5176 93.1854ZM76.4698 102.154C75.7307 102.154 75.0943 101.987 74.5607 101.652C74.0304 101.314 73.6228 100.848 73.3377 100.255C73.0527 99.6617 72.9102 98.9822 72.9102 98.2166C72.9102 97.4411 73.056 96.7566 73.3477 96.1634C73.6393 95.5668 74.0503 95.1011 74.5806 94.7663C75.1109 94.4316 75.7357 94.2642 76.4549 94.2642C77.0349 94.2642 77.552 94.3719 78.006 94.5874C78.4601 94.7995 78.8263 95.0978 79.1048 95.4822C79.3865 95.8667 79.5539 96.3158 79.6069 96.8295H78.1602C78.0806 96.4716 77.8983 96.1634 77.6133 95.9048C77.3316 95.6463 76.9537 95.517 76.4798 95.517C76.0655 95.517 75.7025 95.6264 75.391 95.8452C75.0827 96.0606 74.8424 96.3688 74.6701 96.7699C74.4978 97.1676 74.4116 97.6383 74.4116 98.1818C74.4116 98.7386 74.4961 99.2192 74.6651 99.6236C74.8342 100.028 75.0728 100.341 75.381 100.563C75.6926 100.785 76.0588 100.896 76.4798 100.896C76.7615 100.896 77.0167 100.845 77.2454 100.742C77.4774 100.636 77.6713 100.485 77.8271 100.29C77.9862 100.094 78.0972 99.8589 78.1602 99.5838H79.6069C79.5539 100.078 79.3931 100.518 79.1246 100.906C78.8562 101.294 78.4966 101.599 78.0458 101.821C77.5984 102.043 77.073 102.154 76.4698 102.154ZM86.3881 97.4659V102H84.9016V94.3636H86.3285V95.6065H86.4229C86.5986 95.2022 86.8737 94.8774 87.2482 94.6321C87.6261 94.3868 88.1017 94.2642 88.6751 94.2642C89.1954 94.2642 89.6512 94.3736 90.0423 94.5923C90.4334 94.8078 90.7366 95.1293 90.9521 95.5568C91.1675 95.9844 91.2752 96.513 91.2752 97.1428V102H89.7887V97.3217C89.7887 96.7682 89.6445 96.3357 89.3562 96.0241C89.0678 95.7093 88.6718 95.5518 88.168 95.5518C87.8233 95.5518 87.5167 95.6264 87.2482 95.7756C86.9831 95.9247 86.7726 96.1435 86.6168 96.4318C86.4644 96.7169 86.3881 97.0616 86.3881 97.4659ZM96.56 102.154C95.8076 102.154 95.1597 101.993 94.6161 101.672C94.0759 101.347 93.6583 100.891 93.3633 100.305C93.0716 99.7147 92.9258 99.0237 92.9258 98.2315C92.9258 97.4493 93.0716 96.7599 93.3633 96.1634C93.6583 95.5668 94.0692 95.1011 94.5962 94.7663C95.1265 94.4316 95.7463 94.2642 96.4556 94.2642C96.8865 94.2642 97.3041 94.3355 97.7085 94.478C98.1128 94.6205 98.4757 94.8442 98.7972 95.1491C99.1187 95.4541 99.3723 95.8501 99.5579 96.3374C99.7435 96.8213 99.8363 97.4096 99.8363 98.1023V98.6293H93.766V97.5156H98.3796C98.3796 97.1245 98.3001 96.7782 98.141 96.4766C97.9819 96.1716 97.7582 95.9313 97.4698 95.7557C97.1848 95.58 96.85 95.4922 96.4656 95.4922C96.0479 95.4922 95.6834 95.5949 95.3718 95.8004C95.0636 96.0026 94.8249 96.2678 94.6559 96.5959C94.4902 96.9207 94.4073 97.2737 94.4073 97.6548V98.5249C94.4073 99.0353 94.4968 99.4695 94.6758 99.8274C94.8581 100.185 95.1116 100.459 95.4364 100.648C95.7612 100.833 96.1407 100.926 96.5749 100.926C96.8567 100.926 97.1135 100.886 97.3455 100.807C97.5775 100.724 97.7781 100.601 97.9471 100.439C98.1161 100.277 98.2454 100.076 98.3349 99.8374L99.7418 100.091C99.6291 100.505 99.427 100.868 99.1353 101.18C98.8469 101.488 98.484 101.728 98.0465 101.901C97.6123 102.07 97.1168 102.154 96.56 102.154ZM104.777 102.154C104.024 102.154 103.376 101.993 102.833 101.672C102.293 101.347 101.875 100.891 101.58 100.305C101.288 99.7147 101.143 99.0237 101.143 98.2315C101.143 97.4493 101.288 96.7599 101.58 96.1634C101.875 95.5668 102.286 95.1011 102.813 94.7663C103.343 94.4316 103.963 94.2642 104.672 94.2642C105.103 94.2642 105.521 94.3355 105.925 94.478C106.33 94.6205 106.693 94.8442 107.014 95.1491C107.336 95.4541 107.589 95.8501 107.775 96.3374C107.96 96.8213 108.053 97.4096 108.053 98.1023V98.6293H101.983V97.5156H106.596C106.596 97.1245 106.517 96.7782 106.358 96.4766C106.199 96.1716 105.975 95.9313 105.687 95.7557C105.402 95.58 105.067 95.4922 104.682 95.4922C104.265 95.4922 103.9 95.5949 103.589 95.8004C103.28 96.0026 103.042 96.2678 102.873 96.5959C102.707 96.9207 102.624 97.2737 102.624 97.6548V98.5249C102.624 99.0353 102.714 99.4695 102.893 99.8274C103.075 100.185 103.328 100.459 103.653 100.648C103.978 100.833 104.358 100.926 104.792 100.926C105.073 100.926 105.33 100.886 105.562 100.807C105.794 100.724 105.995 100.601 106.164 100.439C106.333 100.277 106.462 100.076 106.552 99.8374L107.959 100.091C107.846 100.505 107.644 100.868 107.352 101.18C107.064 101.488 106.701 101.728 106.263 101.901C105.829 102.07 105.334 102.154 104.777 102.154ZM112.561 102.149C111.945 102.149 111.394 101.992 110.911 101.677C110.43 101.359 110.052 100.906 109.777 100.32C109.505 99.7296 109.369 99.022 109.369 98.1967C109.369 97.3714 109.507 96.6655 109.782 96.0788C110.06 95.4922 110.442 95.0431 110.925 94.7315C111.409 94.42 111.958 94.2642 112.571 94.2642C113.045 94.2642 113.426 94.3438 113.714 94.5028C114.006 94.6586 114.232 94.8409 114.391 95.0497C114.553 95.2585 114.679 95.4425 114.768 95.6016H114.858V91.8182H116.344V102H114.893V100.812H114.768C114.679 100.974 114.55 101.16 114.381 101.369C114.215 101.577 113.986 101.76 113.695 101.915C113.403 102.071 113.025 102.149 112.561 102.149ZM112.889 100.881C113.317 100.881 113.678 100.769 113.973 100.543C114.271 100.315 114.497 99.9981 114.649 99.5938C114.805 99.1894 114.883 98.7187 114.883 98.1818C114.883 97.6515 114.807 97.1875 114.654 96.7898C114.502 96.392 114.278 96.0821 113.983 95.8601C113.688 95.638 113.323 95.527 112.889 95.527C112.442 95.527 112.069 95.643 111.771 95.875C111.472 96.107 111.247 96.4235 111.094 96.8246C110.945 97.2256 110.871 97.678 110.871 98.1818C110.871 98.6922 110.947 99.1513 111.099 99.5589C111.252 99.9666 111.477 100.29 111.776 100.528C112.077 100.764 112.448 100.881 112.889 100.881ZM124.188 96.228L122.841 96.4666C122.785 96.2943 122.695 96.1302 122.573 95.9744C122.453 95.8187 122.291 95.6911 122.085 95.5916C121.88 95.4922 121.623 95.4425 121.315 95.4425C120.894 95.4425 120.543 95.5369 120.261 95.7259C119.979 95.9115 119.838 96.1518 119.838 96.4467C119.838 96.7019 119.933 96.9074 120.122 97.0632C120.311 97.219 120.615 97.3466 121.036 97.446L122.249 97.7244C122.952 97.8868 123.476 98.1371 123.82 98.4751C124.165 98.8132 124.338 99.2524 124.338 99.7926C124.338 100.25 124.205 100.658 123.94 101.016C123.678 101.37 123.312 101.649 122.841 101.851C122.374 102.053 121.832 102.154 121.215 102.154C120.36 102.154 119.663 101.972 119.122 101.607C118.582 101.239 118.251 100.717 118.128 100.041L119.565 99.8224C119.654 100.197 119.838 100.48 120.117 100.673C120.395 100.862 120.758 100.956 121.205 100.956C121.693 100.956 122.082 100.855 122.374 100.653C122.665 100.447 122.811 100.197 122.811 99.902C122.811 99.6634 122.722 99.4628 122.543 99.3004C122.367 99.138 122.097 99.0154 121.732 98.9325L120.44 98.6491C119.727 98.4867 119.2 98.2282 118.859 97.8736C118.521 97.5189 118.352 97.0698 118.352 96.5263C118.352 96.0755 118.478 95.6811 118.73 95.343C118.981 95.005 119.329 94.7415 119.774 94.5526C120.218 94.3603 120.727 94.2642 121.3 94.2642C122.125 94.2642 122.775 94.4432 123.249 94.8011C123.723 95.1558 124.036 95.6314 124.188 96.228ZM127.906 100.608L127.831 101.15C127.782 101.548 127.697 101.962 127.578 102.393C127.462 102.827 127.341 103.23 127.215 103.601C127.092 103.972 126.991 104.267 126.912 104.486H125.858C125.901 104.28 125.96 104.002 126.037 103.651C126.113 103.303 126.187 102.913 126.26 102.482C126.333 102.051 126.388 101.612 126.424 101.165L126.474 100.608H127.906ZM137.111 94.3636V95.5568H132.94V94.3636H137.111ZM134.058 92.5341H135.545V99.7578C135.545 100.046 135.588 100.263 135.674 100.409C135.76 100.552 135.871 100.649 136.007 100.702C136.146 100.752 136.297 100.777 136.46 100.777C136.579 100.777 136.683 100.769 136.773 100.752C136.862 100.736 136.932 100.722 136.982 100.712L137.25 101.94C137.164 101.973 137.041 102.007 136.882 102.04C136.723 102.076 136.524 102.096 136.286 102.099C135.894 102.106 135.53 102.036 135.192 101.891C134.854 101.745 134.58 101.519 134.371 101.214C134.163 100.91 134.058 100.527 134.058 100.066V92.5341ZM143.593 98.8331V94.3636H145.084V102H143.622V100.678H143.543C143.367 101.085 143.085 101.425 142.698 101.697C142.313 101.965 141.834 102.099 141.261 102.099C140.77 102.099 140.336 101.992 139.958 101.776C139.584 101.558 139.289 101.234 139.073 100.807C138.861 100.379 138.755 99.8506 138.755 99.2209V94.3636H140.242V99.0419C140.242 99.5623 140.386 99.9766 140.674 100.285C140.963 100.593 141.337 100.747 141.798 100.747C142.076 100.747 142.353 100.678 142.628 100.538C142.906 100.399 143.137 100.189 143.319 99.907C143.505 99.6252 143.596 99.2673 143.593 98.8331ZM150.646 94.3636V95.5568H146.475V94.3636H150.646ZM147.593 92.5341H149.08V99.7578C149.08 100.046 149.123 100.263 149.209 100.409C149.295 100.552 149.406 100.649 149.542 100.702C149.681 100.752 149.832 100.777 149.995 100.777C150.114 100.777 150.218 100.769 150.308 100.752C150.397 100.736 150.467 100.722 150.517 100.712L150.785 101.94C150.699 101.973 150.576 102.007 150.417 102.04C150.258 102.076 150.059 102.096 149.821 102.099C149.43 102.106 149.065 102.036 148.727 101.891C148.389 101.745 148.115 101.519 147.907 101.214C147.698 100.91 147.593 100.527 147.593 100.066V92.5341ZM155.425 102.154C154.709 102.154 154.084 101.99 153.551 101.662C153.017 101.334 152.603 100.875 152.308 100.285C152.013 99.6948 151.865 99.0054 151.865 98.2166C151.865 97.4245 152.013 96.7318 152.308 96.1385C152.603 95.5452 153.017 95.0845 153.551 94.7564C154.084 94.4283 154.709 94.2642 155.425 94.2642C156.141 94.2642 156.766 94.4283 157.299 94.7564C157.833 95.0845 158.247 95.5452 158.542 96.1385C158.837 96.7318 158.985 97.4245 158.985 98.2166C158.985 99.0054 158.837 99.6948 158.542 100.285C158.247 100.875 157.833 101.334 157.299 101.662C156.766 101.99 156.141 102.154 155.425 102.154ZM155.43 100.906C155.894 100.906 156.278 100.784 156.583 100.538C156.888 100.293 157.114 99.9666 157.259 99.5589C157.409 99.1513 157.483 98.7022 157.483 98.2116C157.483 97.7244 157.409 97.277 157.259 96.8693C157.114 96.4583 156.888 96.1286 156.583 95.88C156.278 95.6314 155.894 95.5071 155.43 95.5071C154.963 95.5071 154.575 95.6314 154.267 95.88C153.962 96.1286 153.735 96.4583 153.585 96.8693C153.44 97.277 153.367 97.7244 153.367 98.2116C153.367 98.7022 153.44 99.1513 153.585 99.5589C153.735 99.9666 153.962 100.293 154.267 100.538C154.575 100.784 154.963 100.906 155.43 100.906ZM160.644 102V94.3636H162.081V95.5767H162.16C162.299 95.1657 162.545 94.8426 162.896 94.6072C163.251 94.3686 163.652 94.2493 164.099 94.2493C164.192 94.2493 164.301 94.2526 164.427 94.2592C164.556 94.2659 164.658 94.2741 164.73 94.2841V95.706C164.671 95.6894 164.565 95.6712 164.412 95.6513C164.26 95.6281 164.107 95.6165 163.955 95.6165C163.604 95.6165 163.29 95.6911 163.015 95.8402C162.743 95.986 162.528 96.1899 162.369 96.4517C162.21 96.7102 162.13 97.0052 162.13 97.3366V102H160.644ZM166.017 102V94.3636H167.503V102H166.017ZM166.768 93.1854C166.509 93.1854 166.287 93.0992 166.101 92.9268C165.919 92.7512 165.828 92.5424 165.828 92.3004C165.828 92.0552 165.919 91.8464 166.101 91.674C166.287 91.4983 166.509 91.4105 166.768 91.4105C167.026 91.4105 167.247 91.4983 167.429 91.674C167.614 91.8464 167.707 92.0552 167.707 92.3004C167.707 92.5424 167.614 92.7512 167.429 92.9268C167.247 93.0992 167.026 93.1854 166.768 93.1854ZM170.99 97.4659V102H169.503V94.3636H170.93V95.6065H171.025C171.2 95.2022 171.475 94.8774 171.85 94.6321C172.228 94.3868 172.703 94.2642 173.277 94.2642C173.797 94.2642 174.253 94.3736 174.644 94.5923C175.035 94.8078 175.338 95.1293 175.554 95.5568C175.769 95.9844 175.877 96.513 175.877 97.1428V102H174.39V97.3217C174.39 96.7682 174.246 96.3357 173.958 96.0241C173.669 95.7093 173.273 95.5518 172.77 95.5518C172.425 95.5518 172.118 95.6264 171.85 95.7756C171.585 95.9247 171.374 96.1435 171.218 96.4318C171.066 96.7169 170.99 97.0616 170.99 97.4659ZM181.072 105.023C180.466 105.023 179.944 104.943 179.506 104.784C179.072 104.625 178.717 104.415 178.442 104.153C178.167 103.891 177.962 103.604 177.826 103.293L179.103 102.766C179.193 102.911 179.312 103.066 179.461 103.228C179.614 103.394 179.819 103.535 180.078 103.651C180.34 103.767 180.676 103.825 181.087 103.825C181.65 103.825 182.116 103.687 182.484 103.412C182.852 103.14 183.036 102.706 183.036 102.109V100.608H182.941C182.852 100.77 182.723 100.951 182.554 101.15C182.388 101.349 182.159 101.521 181.868 101.667C181.576 101.813 181.196 101.886 180.729 101.886C180.126 101.886 179.582 101.745 179.098 101.463C178.618 101.178 178.237 100.759 177.955 100.205C177.676 99.6484 177.537 98.964 177.537 98.152C177.537 97.34 177.675 96.6439 177.95 96.0639C178.228 95.4839 178.609 95.0398 179.093 94.7315C179.577 94.42 180.126 94.2642 180.739 94.2642C181.213 94.2642 181.596 94.3438 181.887 94.5028C182.179 94.6586 182.406 94.8409 182.569 95.0497C182.734 95.2585 182.862 95.4425 182.951 95.6016H183.061V94.3636H184.517V102.169C184.517 102.825 184.365 103.364 184.06 103.785C183.755 104.206 183.342 104.517 182.822 104.719C182.305 104.922 181.722 105.023 181.072 105.023ZM181.057 100.653C181.485 100.653 181.846 100.553 182.141 100.354C182.439 100.152 182.665 99.8639 182.817 99.4893C182.973 99.1115 183.051 98.6591 183.051 98.1321C183.051 97.6184 182.975 97.166 182.822 96.7749C182.67 96.3838 182.446 96.0788 182.151 95.8601C181.856 95.638 181.491 95.527 181.057 95.527C180.61 95.527 180.237 95.643 179.939 95.875C179.64 96.1037 179.415 96.4152 179.262 96.8097C179.113 97.2041 179.039 97.6449 179.039 98.1321C179.039 98.6326 179.115 99.0717 179.267 99.4496C179.42 99.8274 179.645 100.122 179.944 100.335C180.245 100.547 180.616 100.653 181.057 100.653ZM188.445 100.608L188.37 101.15C188.321 101.548 188.236 101.962 188.117 102.393C188.001 102.827 187.88 103.23 187.754 103.601C187.631 103.972 187.53 104.267 187.451 104.486H186.397C186.44 104.28 186.499 104.002 186.576 103.651C186.652 103.303 186.726 102.913 186.799 102.482C186.872 102.051 186.927 101.612 186.963 101.165L187.013 100.608H188.445ZM194.085 102V94.3636H195.512V95.6065H195.607C195.766 95.1856 196.026 94.8575 196.387 94.6222C196.748 94.3835 197.181 94.2642 197.685 94.2642C198.195 94.2642 198.623 94.3835 198.967 94.6222C199.315 94.8608 199.572 95.1889 199.738 95.6065H199.817C200 95.1989 200.29 94.8741 200.688 94.6321C201.085 94.3868 201.559 94.2642 202.109 94.2642C202.802 94.2642 203.367 94.4813 203.805 94.9155C204.246 95.3497 204.466 96.0043 204.466 96.8793V102H202.979V97.0185C202.979 96.5014 202.839 96.1269 202.557 95.8949C202.275 95.6629 201.939 95.5469 201.548 95.5469C201.064 95.5469 200.688 95.696 200.419 95.9943C200.151 96.2893 200.016 96.6688 200.016 97.1328V102H198.535V96.924C198.535 96.5097 198.406 96.1766 198.147 95.9247C197.888 95.6728 197.552 95.5469 197.138 95.5469C196.856 95.5469 196.596 95.6214 196.357 95.7706C196.122 95.9164 195.931 96.1203 195.786 96.3821C195.643 96.6439 195.572 96.9472 195.572 97.2919V102H194.085ZM209.749 102.154C208.997 102.154 208.349 101.993 207.806 101.672C207.265 101.347 206.848 100.891 206.553 100.305C206.261 99.7147 206.115 99.0237 206.115 98.2315C206.115 97.4493 206.261 96.7599 206.553 96.1634C206.848 95.5668 207.259 95.1011 207.786 94.7663C208.316 94.4316 208.936 94.2642 209.645 94.2642C210.076 94.2642 210.494 94.3355 210.898 94.478C211.302 94.6205 211.665 94.8442 211.987 95.1491C212.308 95.4541 212.562 95.8501 212.747 96.3374C212.933 96.8213 213.026 97.4096 213.026 98.1023V98.6293H206.955V97.5156H211.569C211.569 97.1245 211.49 96.7782 211.33 96.4766C211.171 96.1716 210.948 95.9313 210.659 95.7557C210.374 95.58 210.039 95.4922 209.655 95.4922C209.237 95.4922 208.873 95.5949 208.561 95.8004C208.253 96.0026 208.014 96.2678 207.845 96.5959C207.68 96.9207 207.597 97.2737 207.597 97.6548V98.5249C207.597 99.0353 207.686 99.4695 207.865 99.8274C208.048 100.185 208.301 100.459 208.626 100.648C208.951 100.833 209.33 100.926 209.764 100.926C210.046 100.926 210.303 100.886 210.535 100.807C210.767 100.724 210.968 100.601 211.137 100.439C211.306 100.277 211.435 100.076 211.524 99.8374L212.931 100.091C212.819 100.505 212.616 100.868 212.325 101.18C212.036 101.488 211.673 101.728 211.236 101.901C210.802 102.07 210.306 102.154 209.749 102.154ZM216.162 97.4659V102H214.675V94.3636H216.102V95.6065H216.196C216.372 95.2022 216.647 94.8774 217.022 94.6321C217.4 94.3868 217.875 94.2642 218.449 94.2642C218.969 94.2642 219.425 94.3736 219.816 94.5923C220.207 94.8078 220.51 95.1293 220.725 95.5568C220.941 95.9844 221.049 96.513 221.049 97.1428V102H219.562V97.3217C219.562 96.7682 219.418 96.3357 219.13 96.0241C218.841 95.7093 218.445 95.5518 217.941 95.5518C217.597 95.5518 217.29 95.6264 217.022 95.7756C216.757 95.9247 216.546 96.1435 216.39 96.4318C216.238 96.7169 216.162 97.0616 216.162 97.4659ZM226.607 94.3636V95.5568H222.436V94.3636H226.607ZM223.554 92.5341H225.041V99.7578C225.041 100.046 225.084 100.263 225.17 100.409C225.256 100.552 225.367 100.649 225.503 100.702C225.642 100.752 225.793 100.777 225.956 100.777C226.075 100.777 226.179 100.769 226.269 100.752C226.358 100.736 226.428 100.722 226.478 100.712L226.746 101.94C226.66 101.973 226.537 102.007 226.378 102.04C226.219 102.076 226.02 102.096 225.782 102.099C225.391 102.106 225.026 102.036 224.688 101.891C224.35 101.745 224.076 101.519 223.868 101.214C223.659 100.91 223.554 100.527 223.554 100.066V92.5341ZM231.386 102.154C230.67 102.154 230.045 101.99 229.512 101.662C228.978 101.334 228.564 100.875 228.269 100.285C227.974 99.6948 227.826 99.0054 227.826 98.2166C227.826 97.4245 227.974 96.7318 228.269 96.1385C228.564 95.5452 228.978 95.0845 229.512 94.7564C230.045 94.4283 230.67 94.2642 231.386 94.2642C232.102 94.2642 232.727 94.4283 233.26 94.7564C233.794 95.0845 234.208 95.5452 234.503 96.1385C234.798 96.7318 234.945 97.4245 234.945 98.2166C234.945 99.0054 234.798 99.6948 234.503 100.285C234.208 100.875 233.794 101.334 233.26 101.662C232.727 101.99 232.102 102.154 231.386 102.154ZM231.391 100.906C231.855 100.906 232.239 100.784 232.544 100.538C232.849 100.293 233.075 99.9666 233.22 99.5589C233.369 99.1513 233.444 98.7022 233.444 98.2116C233.444 97.7244 233.369 97.277 233.22 96.8693C233.075 96.4583 232.849 96.1286 232.544 95.88C232.239 95.6314 231.855 95.5071 231.391 95.5071C230.923 95.5071 230.536 95.6314 230.227 95.88C229.923 96.1286 229.695 96.4583 229.546 96.8693C229.401 97.277 229.328 97.7244 229.328 98.2116C229.328 98.7022 229.401 99.1513 229.546 99.5589C229.695 99.9666 229.923 100.293 230.227 100.538C230.536 100.784 230.923 100.906 231.391 100.906ZM236.605 102V94.3636H238.042V95.5767H238.121C238.26 95.1657 238.506 94.8426 238.857 94.6072C239.212 94.3686 239.613 94.2493 240.06 94.2493C240.153 94.2493 240.262 94.2526 240.388 94.2592C240.517 94.2659 240.618 94.2741 240.691 94.2841V95.706C240.632 95.6894 240.526 95.6712 240.373 95.6513C240.221 95.6281 240.068 95.6165 239.916 95.6165C239.565 95.6165 239.251 95.6911 238.976 95.8402C238.704 95.986 238.489 96.1899 238.33 96.4517C238.171 96.7102 238.091 97.0052 238.091 97.3366V102H236.605ZM241.978 102V94.3636H243.464V102H241.978ZM242.729 93.1854C242.47 93.1854 242.248 93.0992 242.062 92.9268C241.88 92.7512 241.789 92.5424 241.789 92.3004C241.789 92.0552 241.88 91.8464 242.062 91.674C242.248 91.4983 242.47 91.4105 242.729 91.4105C242.987 91.4105 243.207 91.4983 243.39 91.674C243.575 91.8464 243.668 92.0552 243.668 92.3004C243.668 92.5424 243.575 92.7512 243.39 92.9268C243.207 93.0992 242.987 93.1854 242.729 93.1854ZM246.951 97.4659V102H245.464V94.3636H246.891V95.6065H246.985C247.161 95.2022 247.436 94.8774 247.811 94.6321C248.189 94.3868 248.664 94.2642 249.238 94.2642C249.758 94.2642 250.214 94.3736 250.605 94.5923C250.996 94.8078 251.299 95.1293 251.515 95.5568C251.73 95.9844 251.838 96.513 251.838 97.1428V102H250.351V97.3217C250.351 96.7682 250.207 96.3357 249.919 96.0241C249.63 95.7093 249.234 95.5518 248.73 95.5518C248.386 95.5518 248.079 95.6264 247.811 95.7756C247.546 95.9247 247.335 96.1435 247.179 96.4318C247.027 96.7169 246.951 97.0616 246.951 97.4659ZM257.033 105.023C256.426 105.023 255.904 104.943 255.467 104.784C255.033 104.625 254.678 104.415 254.403 104.153C254.128 103.891 253.922 103.604 253.787 103.293L255.064 102.766C255.154 102.911 255.273 103.066 255.422 103.228C255.575 103.394 255.78 103.535 256.039 103.651C256.301 103.767 256.637 103.825 257.048 103.825C257.611 103.825 258.077 103.687 258.445 103.412C258.813 103.14 258.997 102.706 258.997 102.109V100.608H258.902C258.813 100.77 258.684 100.951 258.515 101.15C258.349 101.349 258.12 101.521 257.828 101.667C257.537 101.813 257.157 101.886 256.69 101.886C256.087 101.886 255.543 101.745 255.059 101.463C254.579 101.178 254.198 100.759 253.916 100.205C253.637 99.6484 253.498 98.964 253.498 98.152C253.498 97.34 253.636 96.6439 253.911 96.0639C254.189 95.4839 254.57 95.0398 255.054 94.7315C255.538 94.42 256.087 94.2642 256.7 94.2642C257.174 94.2642 257.557 94.3438 257.848 94.5028C258.14 94.6586 258.367 94.8409 258.529 95.0497C258.695 95.2585 258.823 95.4425 258.912 95.6016H259.022V94.3636H260.478V102.169C260.478 102.825 260.326 103.364 260.021 103.785C259.716 104.206 259.303 104.517 258.783 104.719C258.266 104.922 257.683 105.023 257.033 105.023ZM257.018 100.653C257.446 100.653 257.807 100.553 258.102 100.354C258.4 100.152 258.626 99.8639 258.778 99.4893C258.934 99.1115 259.012 98.6591 259.012 98.1321C259.012 97.6184 258.935 97.166 258.783 96.7749C258.631 96.3838 258.407 96.0788 258.112 95.8601C257.817 95.638 257.452 95.527 257.018 95.527C256.571 95.527 256.198 95.643 255.9 95.875C255.601 96.1037 255.376 96.4152 255.223 96.8097C255.074 97.2041 255 97.6449 255 98.1321C255 98.6326 255.076 99.0717 255.228 99.4496C255.381 99.8274 255.606 100.122 255.904 100.335C256.206 100.547 256.577 100.653 257.018 100.653Z" fill="#EEF6FF"/>
</g>
<defs>
<filter id="filter0_d_2606_8265" x="0" y="0" width="306" height="144" filterUnits="userSpaceOnUse" color-interpolation-filters="sRGB">
<feFlood flood-opacity="0" result="BackgroundImageFix"/>
<feColorMatrix in="SourceAlpha" type="matrix" values="0 0 0 0 0 0 0 0 0 0 0 0 0 0 0 0 0 0 127 0" result="hardAlpha"/>
<feMorphology radius="8" operator="dilate" in="SourceAlpha" result="effect1_dropShadow_2606_8265"/>
<feOffset dy="4"/>
<feGaussianBlur stdDeviation="2"/>
<feComposite in2="hardAlpha" operator="out"/>
<feColorMatrix type="matrix" values="0 0 0 0 0.0156863 0 0 0 0 0.0470588 0 0 0 0 0.396078 0 0 0 1 0"/>
<feBlend mode="normal" in2="BackgroundImageFix" result="effect1_dropShadow_2606_8265"/>
<feBlend mode="normal" in="SourceGraphic" in2="effect1_dropShadow_2606_8265" result="shape"/>
</filter>
<linearGradient id="paint0_linear_2606_8265" x1="138.661" y1="3.9322" x2="141.763" y2="110.11" gradientUnits="userSpaceOnUse">
<stop stop-color="#2BB2DF"/>
<stop offset="1" stop-color="#3842B1"/>
</linearGradient>
</defs>
</svg>
