<svg width="66" height="85" viewBox="0 0 66 85" fill="none" xmlns="http://www.w3.org/2000/svg">
<path d="M0.369491 82.1493C1.66611 82.4075 4.34859 83.004 7.77818 83.3065C9.4912 83.4595 11.3876 83.5398 13.37 83.4953C15.3522 83.4522 17.4194 83.2856 19.4678 82.9824C21.5166 82.6818 23.545 82.2459 25.4573 81.711C27.3701 81.1776 29.1656 80.5458 30.7669 79.8907C33.9731 78.5811 36.3871 77.1803 37.6093 76.4604C38.9204 75.686 41.8778 73.8827 45.133 70.973C46.7591 69.5224 48.4521 67.8006 50.0472 65.8601C51.6447 63.922 53.1408 61.7654 54.4247 59.511C55.781 57.1342 57.0272 54.4461 58.0195 51.5454C59.0144 48.6464 59.7529 45.5368 60.1631 42.3645C60.5756 39.1929 60.6585 35.9614 60.4241 32.8327C60.1924 29.7033 59.645 26.6795 58.8773 23.899C58.1112 21.1168 57.1274 18.5791 56.0791 16.3716C55.0316 14.1626 53.9227 12.2821 52.9235 10.7651C52.2584 9.75525 51.6455 8.90851 51.1239 8.22127C51.6218 11.0139 52.0636 13.5316 52.096 13.9508C52.2539 15.985 48.3766 17.9597 48.235 17.088C47.9517 15.3437 47.3081 5.68328 47.0837 2.11379C47.0552 1.66109 48.401 0.250993 49.1948 0.065132C49.2858 0.00623841 49.3795 -0.0155808 49.4732 0.0117749C51.3407 0.559331 60.5794 4.6344 64.2957 5.93174C64.8835 6.13675 65.4965 9.07696 64.5791 9.00513C62.9354 8.87626 58.4093 7.66506 54.7587 6.60934C55.1758 7.21512 55.633 7.90705 56.115 8.68556C57.1438 10.3473 58.2804 12.4014 59.3416 14.8025C60.4043 17.2017 61.3876 19.949 62.1317 22.9457C62.8785 25.9406 63.3834 29.183 63.5509 32.5236C63.7217 35.8636 63.5542 39.2988 63.0402 42.6599C62.5298 46.0219 61.6735 49.3066 60.553 52.3642C59.4349 55.4235 58.0538 58.2534 56.5617 60.7568C55.2518 62.9583 53.7549 65.0884 52.1551 67.0367C50.5567 68.9867 48.8572 70.7538 47.1907 72.28C43.8588 75.3416 40.6682 77.4148 38.8148 78.5035C37.5684 79.2398 36.0751 80.0292 34.3922 80.7812C32.7095 81.5329 30.8367 82.2446 28.8506 82.8437C26.8653 83.4442 24.7675 83.9316 22.6526 84.2715C20.5376 84.6139 18.4064 84.8084 16.3582 84.8666C12.2575 84.9923 8.50983 84.5421 5.78747 84.0081C3.06058 83.4752 1.33897 82.9152 1.13962 82.856C0.794438 82.7471 -0.678411 81.9354 0.369491 82.1493Z" fill="#60A1EB"/>
</svg>
