<svg width="98" height="57" viewBox="0 0 98 57" fill="none" xmlns="http://www.w3.org/2000/svg">
<path d="M95.0374 28.4332C95.1831 30.4536 92.7806 28.0735 92.4231 26.7675C91.6055 23.7819 89.5381 16.1514 89.3007 14.6435C89.1822 13.8898 92.7888 13.5785 93.2401 15.2853C93.4355 16.0249 94.8801 26.2515 95.0374 28.4332Z" fill="#60A1EB"/>
<path d="M80.6457 26.2241C79.507 25.8857 81.764 22.837 82.4058 23.0277C85.2533 23.8732 93.8557 26.2607 94.6834 26.5693C94.9668 26.6751 95.1529 29.4253 94.6121 29.3692C94.1678 29.3234 82.6603 26.8222 80.6457 26.2241Z" fill="#60A1EB"/>
<path d="M1.01409 41.417C0.857574 42.2189 0.617683 42.3915 0.416717 42.2543C0.21764 42.1179 0.0713846 41.6644 0.149436 41.2402L0.399982 39.8004C0.514835 39.1867 0.673299 38.3946 0.973823 37.3127C1.2779 36.2328 1.71975 34.858 2.49045 33.1299C3.26465 31.4067 4.36951 29.3225 6.10018 26.9573C7.48971 25.0686 8.9026 23.6872 10.2279 22.5292C11.5586 21.3718 12.8105 20.4354 14.0218 19.4644C14.3496 19.2031 15.0326 18.6376 15.9473 17.9489C16.8611 17.2588 18.0093 16.449 19.238 15.6734C20.4656 14.8958 21.7723 14.1528 22.9635 13.5417C24.1541 12.9289 25.2261 12.4445 25.9658 12.1403C27.434 11.5349 29.4439 10.7633 31.8332 10.0431C34.2205 9.31998 36.9872 8.65347 39.9168 8.18442C42.8455 7.7116 45.9343 7.43807 48.9336 7.38879C51.9333 7.33532 54.8406 7.50506 57.4122 7.81042C61.4667 8.29186 65.1301 9.0928 68.3999 10.0629C71.6712 11.0328 74.5504 12.1685 77.0704 13.3489C79.591 14.53 81.7525 15.7571 83.6061 16.9411C85.4605 18.125 87.0053 19.27 88.2998 20.3133C90.8853 22.4089 92.4743 24.0853 93.4579 25.1725C94.4372 26.2663 94.8104 26.7868 94.8144 26.7832L93.1094 28.3859C93.1059 28.39 92.655 27.9784 91.598 27.0691C90.5373 26.1659 88.8748 24.7537 86.3098 22.9514C83.7415 21.162 80.2595 18.9703 75.4761 16.8356C73.0845 15.7725 70.3676 14.7314 67.2861 13.814C64.2056 12.8968 60.7588 12.1058 56.932 11.5734C54.5105 11.2368 51.7718 10.9767 48.9304 10.9025C46.0895 10.8243 43.148 10.9335 40.3398 11.2352C37.5314 11.5333 34.8593 12.0229 32.5436 12.5961C30.2262 13.1664 28.2663 13.8151 26.8421 14.3548C26.1271 14.6249 25.0741 15.0202 23.8913 15.5189C22.7077 16.0156 21.3964 16.6196 20.1524 17.2621C18.9078 17.9028 17.7324 18.5827 16.7933 19.1731C15.8534 19.7621 15.1482 20.2579 14.8209 20.5004C13.6132 21.3997 12.5176 22.456 11.3678 23.6988C10.22 24.9455 9.01372 26.374 7.63811 28.1235C5.85265 30.4068 4.68095 32.4138 3.8317 34.0643C2.98658 35.7197 2.46228 37.0252 2.08283 38.032C1.70649 39.0409 1.47924 39.7552 1.31774 40.2801C1.15878 40.8057 1.06857 41.1435 1.01409 41.417Z" fill="#60A1EB"/>
</svg>
