<svg width="304" height="304" viewBox="0 0 304 304" fill="none" xmlns="http://www.w3.org/2000/svg" xmlns:xlink="http://www.w3.org/1999/xlink">
<g filter="url(#filter0_d_5308_1602)">
<circle cx="152" cy="148" r="140" fill="url(#paint0_linear_5308_1602)" fill-opacity="0.5" shape-rendering="crispEdges"></circle>
</g>
<rect x="67.5" y="44" width="169" height="157" fill="url(#pattern0_5308_1602)"></rect>
<path d="M70.7633 209.453C70.697 208.833 70.4177 208.35 69.9252 208.004C69.4376 207.659 68.8031 207.486 68.0218 207.486C67.4726 207.486 67.0015 207.569 66.6085 207.734C66.2155 207.9 65.9148 208.125 65.7065 208.409C65.4982 208.693 65.3916 209.018 65.3869 209.382C65.3869 209.685 65.4556 209.948 65.5929 210.17C65.7349 210.393 65.9267 210.582 66.1681 210.739C66.4096 210.89 66.6771 211.018 66.9707 211.122C67.2643 211.226 67.5602 211.314 67.8585 211.385L69.2221 211.726C69.7714 211.854 70.2993 212.027 70.8059 212.244C71.3173 212.462 71.7742 212.737 72.1767 213.068C72.5839 213.4 72.9058 213.8 73.1426 214.268C73.3793 214.737 73.4977 215.286 73.4977 215.916C73.4977 216.768 73.2799 217.519 72.8443 218.168C72.4087 218.812 71.7789 219.316 70.9551 219.68C70.1359 220.04 69.144 220.22 67.9792 220.22C66.8476 220.22 65.8651 220.045 65.0318 219.695C64.2032 219.344 63.5545 218.833 63.0858 218.161C62.6217 217.488 62.3708 216.669 62.3329 215.703H64.9252C64.9631 216.21 65.1194 216.631 65.394 216.967C65.6686 217.304 66.0261 217.554 66.4664 217.72C66.9115 217.886 67.4087 217.969 67.9579 217.969C68.5308 217.969 69.0327 217.884 69.4636 217.713C69.8992 217.538 70.2401 217.296 70.4863 216.989C70.7325 216.676 70.858 216.312 70.8627 215.895C70.858 215.516 70.7467 215.204 70.5289 214.957C70.3111 214.706 70.0057 214.498 69.6127 214.332C69.2245 214.162 68.7699 214.01 68.2491 213.878L66.5943 213.452C65.3964 213.144 64.4494 212.678 63.7534 212.053C63.0621 211.423 62.7164 210.587 62.7164 209.545C62.7164 208.688 62.9484 207.938 63.4125 207.294C63.8812 206.65 64.5181 206.151 65.323 205.795C66.1279 205.436 67.0394 205.256 68.0574 205.256C69.0895 205.256 69.9939 205.436 70.7704 205.795C71.5517 206.151 72.1648 206.645 72.6099 207.28C73.055 207.91 73.2846 208.634 73.2988 209.453H70.7633ZM81.1806 209.091V211.08H74.9093V209.091H81.1806ZM76.4576 206.477H79.0286V216.719C79.0286 217.064 79.0807 217.33 79.1848 217.514C79.2937 217.694 79.4358 217.817 79.611 217.884C79.7862 217.95 79.9803 217.983 80.1934 217.983C80.3543 217.983 80.5011 217.971 80.6337 217.947C80.771 217.924 80.8752 217.902 80.9462 217.884L81.3794 219.893C81.2421 219.941 81.0456 219.993 80.79 220.05C80.539 220.107 80.2312 220.14 79.8667 220.149C79.2227 220.168 78.6427 220.071 78.1266 219.858C77.6105 219.64 77.2009 219.304 76.8979 218.849C76.5996 218.395 76.4528 217.827 76.4576 217.145V206.477ZM90.2839 215.412V209.091H92.8549V220H90.362V218.061H90.2484C90.0022 218.672 89.5974 219.171 89.0339 219.56C88.4752 219.948 87.7863 220.142 86.9672 220.142C86.2522 220.142 85.6201 219.983 85.0708 219.666C84.5263 219.344 84.1002 218.878 83.7924 218.267C83.4847 217.652 83.3308 216.908 83.3308 216.037V209.091H85.9018V215.639C85.9018 216.33 86.0912 216.88 86.47 217.287C86.8488 217.694 87.3459 217.898 87.9615 217.898C88.3403 217.898 88.7072 217.805 89.0623 217.621C89.4174 217.436 89.7086 217.161 89.9359 216.797C90.1679 216.428 90.2839 215.966 90.2839 215.412ZM99.5471 220.192C98.69 220.192 97.923 219.972 97.2459 219.531C96.5688 219.091 96.0338 218.452 95.6408 217.614C95.2478 216.776 95.0513 215.758 95.0513 214.56C95.0513 213.348 95.2502 212.325 95.6479 211.491C96.0504 210.653 96.5925 210.021 97.2743 209.595C97.9561 209.164 98.7161 208.949 99.5542 208.949C100.193 208.949 100.719 209.058 101.131 209.276C101.543 209.489 101.869 209.747 102.111 210.05C102.352 210.348 102.539 210.63 102.672 210.895H102.779V205.455H105.357V220H102.828V218.281H102.672C102.539 218.546 102.348 218.828 102.097 219.126C101.846 219.42 101.514 219.671 101.102 219.879C100.691 220.088 100.172 220.192 99.5471 220.192ZM100.264 218.082C100.809 218.082 101.273 217.936 101.656 217.642C102.04 217.344 102.331 216.929 102.53 216.399C102.729 215.869 102.828 215.251 102.828 214.545C102.828 213.84 102.729 213.227 102.53 212.706C102.336 212.185 102.047 211.78 101.664 211.491C101.285 211.203 100.818 211.058 100.264 211.058C99.6915 211.058 99.2132 211.207 98.8297 211.506C98.4462 211.804 98.1574 212.216 97.9632 212.741C97.7691 213.267 97.6721 213.868 97.6721 214.545C97.6721 215.227 97.7691 215.836 97.9632 216.371C98.1621 216.901 98.4533 217.32 98.8368 217.628C99.2251 217.931 99.7009 218.082 100.264 218.082ZM112.926 220.213C111.832 220.213 110.888 219.986 110.092 219.531C109.301 219.072 108.693 218.423 108.267 217.585C107.841 216.742 107.628 215.75 107.628 214.609C107.628 213.487 107.841 212.502 108.267 211.655C108.698 210.803 109.299 210.14 110.071 209.666C110.843 209.188 111.749 208.949 112.791 208.949C113.463 208.949 114.098 209.058 114.694 209.276C115.296 209.489 115.826 209.82 116.285 210.27C116.749 210.72 117.114 211.293 117.379 211.989C117.644 212.68 117.777 213.504 117.777 214.46V215.249H108.835V213.516H115.312C115.308 213.023 115.201 212.585 114.993 212.202C114.784 211.813 114.493 211.508 114.119 211.286C113.75 211.063 113.319 210.952 112.827 210.952C112.301 210.952 111.839 211.08 111.442 211.335C111.044 211.586 110.734 211.918 110.511 212.33C110.293 212.737 110.182 213.184 110.177 213.672V215.185C110.177 215.819 110.293 216.364 110.525 216.818C110.757 217.268 111.082 217.614 111.498 217.855C111.915 218.092 112.403 218.21 112.961 218.21C113.336 218.21 113.674 218.158 113.977 218.054C114.28 217.945 114.543 217.786 114.765 217.578C114.988 217.37 115.156 217.112 115.27 216.804L117.67 217.074C117.519 217.708 117.23 218.262 116.804 218.736C116.382 219.205 115.843 219.569 115.184 219.83C114.526 220.085 113.773 220.213 112.926 220.213ZM122.523 213.608V220H119.952V209.091H122.409V210.945H122.537C122.788 210.334 123.188 209.848 123.737 209.489C124.291 209.129 124.976 208.949 125.79 208.949C126.543 208.949 127.199 209.11 127.757 209.432C128.321 209.754 128.756 210.22 129.064 210.831C129.377 211.442 129.53 212.183 129.526 213.054V220H126.955V213.452C126.955 212.723 126.765 212.152 126.387 211.74C126.012 211.328 125.494 211.122 124.831 211.122C124.381 211.122 123.981 211.222 123.631 211.42C123.285 211.615 123.013 211.896 122.814 212.266C122.62 212.635 122.523 213.082 122.523 213.608ZM137.587 209.091V211.08H131.316V209.091H137.587ZM132.864 206.477H135.435V216.719C135.435 217.064 135.487 217.33 135.591 217.514C135.7 217.694 135.842 217.817 136.017 217.884C136.192 217.95 136.387 217.983 136.6 217.983C136.761 217.983 136.907 217.971 137.04 217.947C137.177 217.924 137.281 217.902 137.352 217.884L137.786 219.893C137.648 219.941 137.452 219.993 137.196 220.05C136.945 220.107 136.637 220.14 136.273 220.149C135.629 220.168 135.049 220.071 134.533 219.858C134.017 219.64 133.607 219.304 133.304 218.849C133.006 218.395 132.859 217.827 132.864 217.145V206.477ZM148.203 211.974L145.859 212.23C145.793 211.993 145.677 211.771 145.511 211.562C145.35 211.354 145.132 211.186 144.858 211.058C144.583 210.93 144.247 210.866 143.849 210.866C143.314 210.866 142.864 210.982 142.5 211.214C142.14 211.446 141.962 211.747 141.967 212.116C141.962 212.434 142.078 212.692 142.315 212.891C142.557 213.089 142.954 213.253 143.508 213.381L145.369 213.778C146.401 214.001 147.168 214.354 147.67 214.837C148.177 215.32 148.433 215.952 148.437 216.733C148.433 217.42 148.231 218.026 147.834 218.551C147.441 219.072 146.894 219.479 146.193 219.773C145.492 220.066 144.687 220.213 143.778 220.213C142.443 220.213 141.368 219.934 140.554 219.375C139.739 218.812 139.254 218.028 139.098 217.024L141.605 216.783C141.719 217.275 141.96 217.647 142.329 217.898C142.699 218.149 143.179 218.274 143.771 218.274C144.382 218.274 144.872 218.149 145.241 217.898C145.615 217.647 145.802 217.337 145.802 216.967C145.802 216.655 145.682 216.397 145.44 216.193C145.203 215.99 144.834 215.833 144.332 215.724L142.471 215.334C141.425 215.116 140.651 214.749 140.149 214.233C139.647 213.712 139.398 213.054 139.403 212.259C139.398 211.586 139.581 211.004 139.95 210.511C140.324 210.014 140.843 209.631 141.506 209.361C142.173 209.086 142.943 208.949 143.814 208.949C145.092 208.949 146.098 209.221 146.832 209.766C147.571 210.31 148.028 211.046 148.203 211.974ZM158.657 220.22C157.966 220.22 157.344 220.097 156.79 219.851C156.24 219.6 155.805 219.231 155.483 218.743C155.166 218.255 155.007 217.654 155.007 216.939C155.007 216.323 155.121 215.814 155.348 215.412C155.575 215.009 155.885 214.688 156.278 214.446C156.671 214.205 157.114 214.022 157.606 213.899C158.104 213.771 158.617 213.679 159.148 213.622C159.787 213.556 160.305 213.497 160.703 213.445C161.101 213.388 161.39 213.303 161.569 213.189C161.754 213.071 161.846 212.888 161.846 212.642V212.599C161.846 212.064 161.688 211.65 161.371 211.357C161.053 211.063 160.596 210.916 160 210.916C159.37 210.916 158.871 211.054 158.501 211.328C158.137 211.603 157.89 211.927 157.763 212.301L155.362 211.96C155.551 211.297 155.864 210.743 156.3 210.298C156.735 209.848 157.268 209.512 157.898 209.29C158.527 209.062 159.223 208.949 159.986 208.949C160.511 208.949 161.034 209.01 161.555 209.134C162.076 209.257 162.552 209.46 162.983 209.744C163.414 210.024 163.759 210.405 164.02 210.888C164.285 211.371 164.417 211.974 164.417 212.699V220H161.946V218.501H161.861C161.704 218.804 161.484 219.089 161.2 219.354C160.921 219.614 160.568 219.825 160.142 219.986C159.72 220.142 159.226 220.22 158.657 220.22ZM159.325 218.331C159.841 218.331 160.289 218.229 160.667 218.026C161.046 217.817 161.337 217.543 161.541 217.202C161.749 216.861 161.854 216.489 161.854 216.087V214.801C161.773 214.867 161.636 214.929 161.442 214.986C161.252 215.043 161.039 215.092 160.802 215.135C160.566 215.178 160.331 215.215 160.099 215.249C159.867 215.282 159.666 215.31 159.496 215.334C159.112 215.386 158.769 215.471 158.466 215.589C158.163 215.708 157.924 215.874 157.748 216.087C157.573 216.295 157.486 216.565 157.486 216.896C157.486 217.37 157.658 217.727 158.004 217.969C158.35 218.21 158.79 218.331 159.325 218.331ZM169.574 213.608V220H167.003V209.091H169.46V210.945H169.588C169.839 210.334 170.239 209.848 170.788 209.489C171.342 209.129 172.026 208.949 172.841 208.949C173.594 208.949 174.249 209.11 174.808 209.432C175.372 209.754 175.807 210.22 176.115 210.831C176.427 211.442 176.581 212.183 176.577 213.054V220H174.006V213.452C174.006 212.723 173.816 212.152 173.437 211.74C173.063 211.328 172.545 211.122 171.882 211.122C171.432 211.122 171.032 211.222 170.682 211.42C170.336 211.615 170.064 211.896 169.865 212.266C169.671 212.635 169.574 213.082 169.574 213.608ZM183.238 220.192C182.381 220.192 181.614 219.972 180.937 219.531C180.26 219.091 179.725 218.452 179.332 217.614C178.939 216.776 178.743 215.758 178.743 214.56C178.743 213.348 178.942 212.325 179.339 211.491C179.742 210.653 180.284 210.021 180.966 209.595C181.648 209.164 182.407 208.949 183.246 208.949C183.885 208.949 184.41 209.058 184.822 209.276C185.234 209.489 185.561 209.747 185.802 210.05C186.044 210.348 186.231 210.63 186.363 210.895H186.47V205.455H189.048V220H186.52V218.281H186.363C186.231 218.546 186.039 218.828 185.788 219.126C185.537 219.42 185.206 219.671 184.794 219.879C184.382 220.088 183.863 220.192 183.238 220.192ZM183.956 218.082C184.5 218.082 184.964 217.936 185.348 217.642C185.731 217.344 186.023 216.929 186.221 216.399C186.42 215.869 186.52 215.251 186.52 214.545C186.52 213.84 186.42 213.227 186.221 212.706C186.027 212.185 185.738 211.78 185.355 211.491C184.976 211.203 184.51 211.058 183.956 211.058C183.383 211.058 182.905 211.207 182.521 211.506C182.138 211.804 181.849 212.216 181.655 212.741C181.461 213.267 181.363 213.868 181.363 214.545C181.363 215.227 181.461 215.836 181.655 216.371C181.854 216.901 182.145 217.32 182.528 217.628C182.916 217.931 183.392 218.082 183.956 218.082ZM204.767 209.453C204.701 208.833 204.422 208.35 203.929 208.004C203.441 207.659 202.807 207.486 202.026 207.486C201.477 207.486 201.005 207.569 200.612 207.734C200.219 207.9 199.919 208.125 199.71 208.409C199.502 208.693 199.396 209.018 199.391 209.382C199.391 209.685 199.459 209.948 199.597 210.17C199.739 210.393 199.931 210.582 200.172 210.739C200.414 210.89 200.681 211.018 200.975 211.122C201.268 211.226 201.564 211.314 201.862 211.385L203.226 211.726C203.775 211.854 204.303 212.027 204.81 212.244C205.321 212.462 205.778 212.737 206.181 213.068C206.588 213.4 206.91 213.8 207.146 214.268C207.383 214.737 207.502 215.286 207.502 215.916C207.502 216.768 207.284 217.519 206.848 218.168C206.413 218.812 205.783 219.316 204.959 219.68C204.14 220.04 203.148 220.22 201.983 220.22C200.852 220.22 199.869 220.045 199.036 219.695C198.207 219.344 197.558 218.833 197.09 218.161C196.626 217.488 196.375 216.669 196.337 215.703H198.929C198.967 216.21 199.123 216.631 199.398 216.967C199.673 217.304 200.03 217.554 200.47 217.72C200.915 217.886 201.413 217.969 201.962 217.969C202.535 217.969 203.037 217.884 203.468 217.713C203.903 217.538 204.244 217.296 204.49 216.989C204.736 216.676 204.862 216.312 204.867 215.895C204.862 215.516 204.751 215.204 204.533 214.957C204.315 214.706 204.01 214.498 203.617 214.332C203.228 214.162 202.774 214.01 202.253 213.878L200.598 213.452C199.4 213.144 198.453 212.678 197.757 212.053C197.066 211.423 196.72 210.587 196.72 209.545C196.72 208.688 196.952 207.938 197.416 207.294C197.885 206.65 198.522 206.151 199.327 205.795C200.132 205.436 201.043 205.256 202.061 205.256C203.093 205.256 203.998 205.436 204.774 205.795C205.556 206.151 206.169 206.645 206.614 207.28C207.059 207.91 207.289 208.634 207.303 209.453H204.767ZM215.184 209.091V211.08H208.913V209.091H215.184ZM210.461 206.477H213.032V216.719C213.032 217.064 213.085 217.33 213.189 217.514C213.298 217.694 213.44 217.817 213.615 217.884C213.79 217.95 213.984 217.983 214.197 217.983C214.358 217.983 214.505 217.971 214.638 217.947C214.775 217.924 214.879 217.902 214.95 217.884L215.383 219.893C215.246 219.941 215.05 219.993 214.794 220.05C214.543 220.107 214.235 220.14 213.871 220.149C213.227 220.168 212.647 220.071 212.131 219.858C211.614 219.64 211.205 219.304 210.902 218.849C210.604 218.395 210.457 217.827 210.461 217.145V206.477ZM220.474 220.22C219.783 220.22 219.16 220.097 218.606 219.851C218.057 219.6 217.621 219.231 217.299 218.743C216.982 218.255 216.823 217.654 216.823 216.939C216.823 216.323 216.937 215.814 217.164 215.412C217.392 215.009 217.702 214.688 218.095 214.446C218.488 214.205 218.93 214.022 219.423 213.899C219.92 213.771 220.434 213.679 220.964 213.622C221.603 213.556 222.122 213.497 222.519 213.445C222.917 213.388 223.206 213.303 223.386 213.189C223.57 213.071 223.663 212.888 223.663 212.642V212.599C223.663 212.064 223.504 211.65 223.187 211.357C222.87 211.063 222.413 210.916 221.816 210.916C221.186 210.916 220.687 211.054 220.318 211.328C219.953 211.603 219.707 211.927 219.579 212.301L217.178 211.96C217.368 211.297 217.68 210.743 218.116 210.298C218.552 209.848 219.084 209.512 219.714 209.29C220.344 209.062 221.04 208.949 221.802 208.949C222.328 208.949 222.851 209.01 223.372 209.134C223.892 209.257 224.368 209.46 224.799 209.744C225.23 210.024 225.576 210.405 225.836 210.888C226.101 211.371 226.234 211.974 226.234 212.699V220H223.762V218.501H223.677C223.521 218.804 223.301 219.089 223.017 219.354C222.737 219.614 222.384 219.825 221.958 219.986C221.537 220.142 221.042 220.22 220.474 220.22ZM221.142 218.331C221.658 218.331 222.105 218.229 222.484 218.026C222.863 217.817 223.154 217.543 223.357 217.202C223.566 216.861 223.67 216.489 223.67 216.087V214.801C223.589 214.867 223.452 214.929 223.258 214.986C223.069 215.043 222.856 215.092 222.619 215.135C222.382 215.178 222.148 215.215 221.916 215.249C221.684 215.282 221.482 215.31 221.312 215.334C220.928 215.386 220.585 215.471 220.282 215.589C219.979 215.708 219.74 215.874 219.565 216.087C219.39 216.295 219.302 216.565 219.302 216.896C219.302 217.37 219.475 217.727 219.82 217.969C220.166 218.21 220.606 218.331 221.142 218.331ZM234.345 209.091V211.08H227.896V209.091H234.345ZM229.508 220V208.061C229.508 207.327 229.66 206.716 229.963 206.229C230.27 205.741 230.682 205.376 231.198 205.135C231.714 204.893 232.287 204.773 232.917 204.773C233.362 204.773 233.758 204.808 234.103 204.879C234.449 204.95 234.704 205.014 234.87 205.071L234.359 207.06C234.25 207.027 234.113 206.993 233.947 206.96C233.781 206.922 233.597 206.903 233.393 206.903C232.915 206.903 232.576 207.019 232.377 207.251C232.183 207.479 232.086 207.805 232.086 208.232V220H229.508ZM241.884 209.091V211.08H235.435V209.091H241.884ZM237.047 220V208.061C237.047 207.327 237.199 206.716 237.502 206.229C237.809 205.741 238.221 205.376 238.737 205.135C239.253 204.893 239.826 204.773 240.456 204.773C240.901 204.773 241.297 204.808 241.642 204.879C241.988 204.95 242.244 205.014 242.409 205.071L241.898 207.06C241.789 207.027 241.652 206.993 241.486 206.96C241.32 206.922 241.136 206.903 240.932 206.903C240.454 206.903 240.115 207.019 239.916 207.251C239.722 207.479 239.625 207.805 239.625 208.232V220H237.047Z" fill="#EEF6FF"></path>
<defs>
<filter id="filter0_d_5308_1602" x="0" y="0" width="304" height="304" filterUnits="userSpaceOnUse" color-interpolation-filters="sRGB">
<feFlood flood-opacity="0" result="BackgroundImageFix"></feFlood>
<feColorMatrix in="SourceAlpha" type="matrix" values="0 0 0 0 0 0 0 0 0 0 0 0 0 0 0 0 0 0 127 0" result="hardAlpha"></feColorMatrix>
<feMorphology radius="8" operator="dilate" in="SourceAlpha" result="effect1_dropShadow_5308_1602"></feMorphology>
<feOffset dy="4"></feOffset>
<feGaussianBlur stdDeviation="2"></feGaussianBlur>
<feComposite in2="hardAlpha" operator="out"></feComposite>
<feColorMatrix type="matrix" values="0 0 0 0 0.0156863 0 0 0 0 0.0470588 0 0 0 0 0.396078 0 0 0 1 0"></feColorMatrix>
<feBlend mode="normal" in2="BackgroundImageFix" result="effect1_dropShadow_5308_1602"></feBlend>
<feBlend mode="normal" in="SourceGraphic" in2="effect1_dropShadow_5308_1602" result="shape"></feBlend>
</filter>
<pattern id="pattern0_5308_1602" patternContentUnits="objectBoundingBox" width="1" height="1">
<use xlink:href="#image0_5308_1602" transform="matrix(0.0014864 0 0 0.00160001 -0.427515 -0.165605)"></use>
</pattern>
<linearGradient id="paint0_linear_5308_1602" x1="137.763" y1="-1.49152" x2="154.709" y2="245.305" gradientUnits="userSpaceOnUse">
<stop stop-color="#2BB2DF"></stop>
<stop offset="1" stop-color="#3842B1"></stop>
</linearGradient>
<image id="image0_5308_1602" width="1248" height="832" preserveAspectRatio="none"></image>
</defs>
</svg>