<svg width="507" height="1004" viewBox="0 0 507 1004" fill="none" xmlns="http://www.w3.org/2000/svg">
<g opacity="0.4">
<g clip-path="url(#clip0_2606_8326)">
<path d="M630.402 642.111C111.923 505.328 14.0031 416.002 625.459 205.147" stroke="url(#paint0_linear_2606_8326)" stroke-opacity="0.5" stroke-width="6" stroke-linecap="round"></path>
<path d="M604.737 659.373C134.928 522.039 46.1323 432.611 599.793 222.409" stroke="url(#paint1_linear_2606_8326)" stroke-opacity="0.5" stroke-width="6" stroke-linecap="round"></path>
<path d="M579.073 676.635C157.935 538.75 78.2635 449.218 574.13 239.671" stroke="url(#paint2_linear_2606_8326)" stroke-opacity="0.5" stroke-width="6" stroke-linecap="round"></path>
<path d="M553.41 693.897C180.942 555.462 110.395 465.827 548.466 256.933" stroke="url(#paint3_linear_2606_8326)" stroke-opacity="0.5" stroke-width="6" stroke-linecap="round"></path>
<path d="M527.745 711.159C203.947 572.173 142.524 482.435 522.801 274.195" stroke="url(#paint4_linear_2606_8326)" stroke-opacity="0.5" stroke-width="6" stroke-linecap="round"></path>
<path d="M502.081 728.421C226.954 588.885 174.655 499.043 497.138 291.457" stroke="url(#paint5_linear_2606_8326)" stroke-opacity="0.5" stroke-width="6" stroke-linecap="round"></path>
<path d="M476.416 745.683C249.959 605.596 206.784 515.651 471.472 308.719" stroke="url(#paint6_linear_2606_8326)" stroke-opacity="0.5" stroke-width="6" stroke-linecap="round"></path>
<path d="M450.752 762.945C272.966 622.307 238.915 532.259 445.809 325.981" stroke="url(#paint7_linear_2606_8326)" stroke-opacity="0.5" stroke-width="6" stroke-linecap="round"></path>
<path d="M425.089 780.207C295.973 639.019 271.047 548.867 420.145 343.243" stroke="url(#paint8_linear_2606_8326)" stroke-opacity="0.5" stroke-width="6" stroke-linecap="round"></path>
<path d="M399.423 797.469C318.977 655.73 303.176 565.475 394.48 360.505" stroke="url(#paint9_linear_2606_8326)" stroke-opacity="0.5" stroke-width="6" stroke-linecap="round"></path>
</g>
<g clip-path="url(#clip1_2606_8326)">
<path d="M412.372 372.617C930.851 509.4 1010.67 592.919 399.217 803.775" stroke="url(#paint10_linear_2606_8326)" stroke-opacity="0.5" stroke-width="6" stroke-linecap="round"></path>
<path d="M427.345 352.293C897.154 489.627 978.542 576.311 424.881 786.512" stroke="url(#paint11_linear_2606_8326)" stroke-opacity="0.5" stroke-width="6" stroke-linecap="round"></path>
<path d="M450.471 333.646C871.61 471.53 946.413 559.703 450.547 769.251" stroke="url(#paint12_linear_2606_8326)" stroke-opacity="0.5" stroke-width="6" stroke-linecap="round"></path>
<path d="M472.532 314.657C845 453.092 914.283 543.095 476.211 751.989" stroke="url(#paint13_linear_2606_8326)" stroke-opacity="0.5" stroke-width="6" stroke-linecap="round"></path>
<path d="M496.931 297.763C820.729 436.748 882.152 526.487 501.875 734.727" stroke="url(#paint14_linear_2606_8326)" stroke-opacity="0.5" stroke-width="6" stroke-linecap="round"></path>
</g>
</g>
<defs>
<linearGradient id="paint0_linear_2606_8326" x1="417.432" y1="553.509" x2="414.492" y2="293.626" gradientUnits="userSpaceOnUse">
<stop stop-color="#FF1CF7"></stop>
<stop offset="1" stop-color="#00F0FF"></stop>
</linearGradient>
<linearGradient id="paint1_linear_2606_8326" x1="411.724" y1="570.545" x2="408.783" y2="310.662" gradientUnits="userSpaceOnUse">
<stop stop-color="#FF1CF7"></stop>
<stop offset="1" stop-color="#00F0FF"></stop>
</linearGradient>
<linearGradient id="paint2_linear_2606_8326" x1="406.017" y1="587.581" x2="403.077" y2="327.698" gradientUnits="userSpaceOnUse">
<stop stop-color="#FF1CF7"></stop>
<stop offset="1" stop-color="#00F0FF"></stop>
</linearGradient>
<linearGradient id="paint3_linear_2606_8326" x1="400.311" y1="604.617" x2="397.371" y2="344.734" gradientUnits="userSpaceOnUse">
<stop stop-color="#FF1CF7"></stop>
<stop offset="1" stop-color="#00F0FF"></stop>
</linearGradient>
<linearGradient id="paint4_linear_2606_8326" x1="394.603" y1="621.653" x2="391.663" y2="361.77" gradientUnits="userSpaceOnUse">
<stop stop-color="#FF1CF7"></stop>
<stop offset="1" stop-color="#00F0FF"></stop>
</linearGradient>
<linearGradient id="paint5_linear_2606_8326" x1="388.897" y1="638.69" x2="385.957" y2="378.807" gradientUnits="userSpaceOnUse">
<stop stop-color="#FF1CF7"></stop>
<stop offset="1" stop-color="#00F0FF"></stop>
</linearGradient>
<linearGradient id="paint6_linear_2606_8326" x1="383.189" y1="655.726" x2="380.249" y2="395.843" gradientUnits="userSpaceOnUse">
<stop stop-color="#FF1CF7"></stop>
<stop offset="1" stop-color="#00F0FF"></stop>
</linearGradient>
<linearGradient id="paint7_linear_2606_8326" x1="377.483" y1="672.762" x2="374.543" y2="412.879" gradientUnits="userSpaceOnUse">
<stop stop-color="#FF1CF7"></stop>
<stop offset="1" stop-color="#00F0FF"></stop>
</linearGradient>
<linearGradient id="paint8_linear_2606_8326" x1="371.777" y1="689.798" x2="368.837" y2="429.915" gradientUnits="userSpaceOnUse">
<stop stop-color="#FF1CF7"></stop>
<stop offset="1" stop-color="#00F0FF"></stop>
</linearGradient>
<linearGradient id="paint9_linear_2606_8326" x1="366.069" y1="706.834" x2="363.128" y2="446.951" gradientUnits="userSpaceOnUse">
<stop stop-color="#FF1CF7"></stop>
<stop offset="1" stop-color="#00F0FF"></stop>
</linearGradient>
<linearGradient id="paint10_linear_2606_8326" x1="607.244" y1="455.413" x2="610.184" y2="715.295" gradientUnits="userSpaceOnUse">
<stop stop-color="#FF1CF7"></stop>
<stop offset="1" stop-color="#00F0FF"></stop>
</linearGradient>
<linearGradient id="paint11_linear_2606_8326" x1="612.951" y1="438.376" x2="615.891" y2="698.259" gradientUnits="userSpaceOnUse">
<stop stop-color="#FF1CF7"></stop>
<stop offset="1" stop-color="#00F0FF"></stop>
</linearGradient>
<linearGradient id="paint12_linear_2606_8326" x1="618.659" y1="421.34" x2="621.599" y2="681.223" gradientUnits="userSpaceOnUse">
<stop stop-color="#FF1CF7"></stop>
<stop offset="1" stop-color="#00F0FF"></stop>
</linearGradient>
<linearGradient id="paint13_linear_2606_8326" x1="624.366" y1="404.304" x2="627.306" y2="664.187" gradientUnits="userSpaceOnUse">
<stop stop-color="#FF1CF7"></stop>
<stop offset="1" stop-color="#00F0FF"></stop>
</linearGradient>
<linearGradient id="paint14_linear_2606_8326" x1="630.073" y1="387.268" x2="633.013" y2="647.151" gradientUnits="userSpaceOnUse">
<stop stop-color="#FF1CF7"></stop>
<stop offset="1" stop-color="#00F0FF"></stop>
</linearGradient>
<clipPath id="clip0_2606_8326">
<rect width="627" height="477" fill="white" transform="translate(66.7267 536.051) rotate(-45.6482)"></rect>
</clipPath>
<clipPath id="clip1_2606_8326">
<rect width="586" height="473" fill="white" transform="translate(928.998 502.191) rotate(134.352)"></rect>
</clipPath>
</defs>
</svg>