<svg width="781" height="416" viewBox="0 0 781 416" fill="none" xmlns="http://www.w3.org/2000/svg" xmlns:xlink="http://www.w3.org/1999/xlink">
<rect width="781" height="416" rx="32" fill="url(#paint0_linear_2606_8283)"></rect>
<path d="M227.207 59.7273V83H222.957L212.832 68.3523H212.662V83H207.741V59.7273H212.06L222.105 74.3636H222.31V59.7273H227.207ZM231.182 83V65.5455H236.023V83H231.182ZM233.614 63.2955C232.894 63.2955 232.277 63.0568 231.761 62.5795C231.254 62.0947 231 61.5152 231 60.8409C231 60.1742 231.254 59.6023 231.761 59.125C232.277 58.6402 232.894 58.3977 233.614 58.3977C234.333 58.3977 234.947 58.6402 235.455 59.125C235.97 59.6023 236.227 60.1742 236.227 60.8409C236.227 61.5152 235.97 62.0947 235.455 62.5795C234.947 63.0568 234.333 63.2955 233.614 63.2955ZM244.878 83.3295C243.764 83.3295 242.772 83.1364 241.901 82.75C241.029 82.3561 240.34 81.7765 239.832 81.0114C239.332 80.2386 239.082 79.2765 239.082 78.125C239.082 77.1553 239.26 76.3409 239.616 75.6818C239.973 75.0227 240.457 74.4924 241.071 74.0909C241.685 73.6894 242.382 73.3864 243.162 73.1818C243.95 72.9773 244.776 72.8333 245.639 72.75C246.654 72.6439 247.473 72.5455 248.094 72.4545C248.715 72.3561 249.166 72.2121 249.446 72.0227C249.726 71.8333 249.866 71.553 249.866 71.1818V71.1136C249.866 70.3939 249.639 69.8371 249.185 69.4432C248.738 69.0492 248.101 68.8523 247.276 68.8523C246.404 68.8523 245.711 69.0455 245.196 69.4318C244.681 69.8106 244.34 70.2879 244.173 70.8636L239.696 70.5C239.923 69.4394 240.37 68.5227 241.037 67.75C241.704 66.9697 242.563 66.3712 243.616 65.9545C244.677 65.5303 245.904 65.3182 247.298 65.3182C248.268 65.3182 249.196 65.4318 250.082 65.6591C250.976 65.8864 251.768 66.2386 252.457 66.7159C253.154 67.1932 253.704 67.8068 254.105 68.5568C254.507 69.2992 254.707 70.1894 254.707 71.2273V83H250.116V80.5795H249.98C249.7 81.125 249.325 81.6061 248.855 82.0227C248.385 82.4318 247.821 82.7538 247.162 82.9886C246.503 83.2159 245.741 83.3295 244.878 83.3295ZM246.264 79.9886C246.976 79.9886 247.605 79.8485 248.151 79.5682C248.696 79.2803 249.124 78.8939 249.435 78.4091C249.745 77.9242 249.901 77.375 249.901 76.7614V74.9091C249.749 75.0076 249.541 75.0985 249.276 75.1818C249.018 75.2576 248.726 75.3295 248.401 75.3977C248.075 75.4583 247.749 75.5152 247.423 75.5682C247.098 75.6136 246.802 75.6553 246.537 75.6932C245.969 75.7765 245.473 75.9091 245.048 76.0909C244.624 76.2727 244.295 76.5189 244.06 76.8295C243.825 77.1326 243.707 77.5114 243.707 77.9659C243.707 78.625 243.946 79.1288 244.423 79.4773C244.908 79.8182 245.522 79.9886 246.264 79.9886ZM287.347 71.3636C287.347 73.9015 286.866 76.0606 285.903 77.8409C284.949 79.6212 283.646 80.9811 281.994 81.9205C280.35 82.8523 278.502 83.3182 276.449 83.3182C274.381 83.3182 272.525 82.8485 270.881 81.9091C269.237 80.9697 267.938 79.6098 266.983 77.8295C266.028 76.0492 265.551 73.8939 265.551 71.3636C265.551 68.8258 266.028 66.6667 266.983 64.8864C267.938 63.1061 269.237 61.75 270.881 60.8182C272.525 59.8788 274.381 59.4091 276.449 59.4091C278.502 59.4091 280.35 59.8788 281.994 60.8182C283.646 61.75 284.949 63.1061 285.903 64.8864C286.866 66.6667 287.347 68.8258 287.347 71.3636ZM282.358 71.3636C282.358 69.7197 282.112 68.3333 281.619 67.2045C281.134 66.0758 280.449 65.2197 279.562 64.6364C278.676 64.053 277.638 63.7614 276.449 63.7614C275.259 63.7614 274.222 64.053 273.335 64.6364C272.449 65.2197 271.759 66.0758 271.267 67.2045C270.782 68.3333 270.54 69.7197 270.54 71.3636C270.54 73.0076 270.782 74.3939 271.267 75.5227C271.759 76.6515 272.449 77.5076 273.335 78.0909C274.222 78.6742 275.259 78.9659 276.449 78.9659C277.638 78.9659 278.676 78.6742 279.562 78.0909C280.449 77.5076 281.134 76.6515 281.619 75.5227C282.112 74.3939 282.358 73.0076 282.358 71.3636ZM290.901 83V65.5455H295.594V68.5909H295.776C296.094 67.5076 296.628 66.6894 297.378 66.1364C298.128 65.5758 298.991 65.2955 299.969 65.2955C300.211 65.2955 300.473 65.3106 300.753 65.3409C301.033 65.3712 301.279 65.4129 301.491 65.4659V69.7614C301.264 69.6932 300.95 69.6326 300.548 69.5795C300.147 69.5265 299.779 69.5 299.446 69.5C298.734 69.5 298.098 69.6553 297.537 69.9659C296.984 70.2689 296.545 70.6932 296.219 71.2386C295.901 71.7841 295.741 72.4129 295.741 73.125V83H290.901ZM311.068 83.3409C309.28 83.3409 307.742 82.9621 306.455 82.2045C305.174 81.4394 304.189 80.3788 303.5 79.0227C302.818 77.6667 302.477 76.1061 302.477 74.3409C302.477 72.553 302.822 70.9848 303.511 69.6364C304.208 68.2803 305.197 67.2235 306.477 66.4659C307.758 65.7008 309.28 65.3182 311.045 65.3182C312.568 65.3182 313.902 65.5947 315.045 66.1477C316.189 66.7008 317.095 67.4773 317.761 68.4773C318.428 69.4773 318.795 70.6515 318.864 72H314.295C314.167 71.1288 313.826 70.428 313.273 69.8977C312.727 69.3598 312.011 69.0909 311.125 69.0909C310.375 69.0909 309.72 69.2955 309.159 69.7045C308.606 70.1061 308.174 70.6932 307.864 71.4659C307.553 72.2386 307.398 73.1742 307.398 74.2727C307.398 75.3864 307.549 76.3333 307.852 77.1136C308.163 77.8939 308.598 78.4886 309.159 78.8977C309.72 79.3068 310.375 79.5114 311.125 79.5114C311.678 79.5114 312.174 79.3977 312.614 79.1705C313.061 78.9432 313.428 78.6136 313.716 78.1818C314.011 77.7424 314.205 77.2159 314.295 76.6023H318.864C318.788 77.9356 318.424 79.1098 317.773 80.125C317.129 81.1326 316.239 81.9205 315.102 82.4886C313.966 83.0568 312.621 83.3409 311.068 83.3409ZM326.804 72.9091V83H321.963V59.7273H326.668V68.625H326.872C327.266 67.5947 327.902 66.7879 328.781 66.2045C329.66 65.6136 330.762 65.3182 332.088 65.3182C333.3 65.3182 334.357 65.5833 335.259 66.1136C336.168 66.6364 336.872 67.3902 337.372 68.375C337.88 69.3523 338.13 70.5227 338.122 71.8864V83H333.281V72.75C333.289 71.6742 333.016 70.8371 332.463 70.2386C331.918 69.6402 331.152 69.3409 330.168 69.3409C329.509 69.3409 328.925 69.4811 328.418 69.7614C327.918 70.0417 327.524 70.4508 327.236 70.9886C326.955 71.5189 326.812 72.1591 326.804 72.9091ZM349.886 83.3409C348.091 83.3409 346.545 82.9773 345.25 82.25C343.962 81.5152 342.97 80.4773 342.273 79.1364C341.576 77.7879 341.227 76.1932 341.227 74.3523C341.227 72.5568 341.576 70.9811 342.273 69.625C342.97 68.2689 343.951 67.2121 345.216 66.4545C346.489 65.697 347.981 65.3182 349.693 65.3182C350.845 65.3182 351.917 65.5038 352.909 65.875C353.909 66.2386 354.78 66.7879 355.523 67.5227C356.273 68.2576 356.856 69.1818 357.273 70.2955C357.689 71.4015 357.898 72.697 357.898 74.1818V75.5114H343.159V72.5114H353.341C353.341 71.8144 353.189 71.197 352.886 70.6591C352.583 70.1212 352.163 69.7008 351.625 69.3977C351.095 69.0871 350.477 68.9318 349.773 68.9318C349.038 68.9318 348.386 69.1023 347.818 69.4432C347.258 69.7765 346.818 70.2273 346.5 70.7955C346.182 71.3561 346.019 71.9811 346.011 72.6705V75.5227C346.011 76.3864 346.17 77.1326 346.489 77.7614C346.814 78.3902 347.273 78.875 347.864 79.2159C348.455 79.5568 349.155 79.7273 349.966 79.7273C350.504 79.7273 350.996 79.6515 351.443 79.5C351.89 79.3485 352.273 79.1212 352.591 78.8182C352.909 78.5152 353.152 78.1439 353.318 77.7045L357.795 78C357.568 79.0758 357.102 80.0152 356.398 80.8182C355.701 81.6136 354.799 82.2348 353.693 82.6818C352.595 83.1212 351.326 83.3409 349.886 83.3409ZM375.58 70.5227L371.148 70.7955C371.072 70.4167 370.909 70.0758 370.659 69.7727C370.409 69.4621 370.08 69.2159 369.67 69.0341C369.269 68.8447 368.788 68.75 368.227 68.75C367.477 68.75 366.845 68.9091 366.33 69.2273C365.814 69.5379 365.557 69.9545 365.557 70.4773C365.557 70.8939 365.723 71.2462 366.057 71.5341C366.39 71.822 366.962 72.053 367.773 72.2273L370.932 72.8636C372.629 73.2121 373.894 73.7727 374.727 74.5455C375.561 75.3182 375.977 76.3333 375.977 77.5909C375.977 78.7348 375.64 79.7386 374.966 80.6023C374.299 81.4659 373.383 82.1402 372.216 82.625C371.057 83.1023 369.72 83.3409 368.205 83.3409C365.894 83.3409 364.053 82.8598 362.682 81.8977C361.318 80.928 360.519 79.6098 360.284 77.9432L365.045 77.6932C365.189 78.3977 365.538 78.9356 366.091 79.3068C366.644 79.6705 367.352 79.8523 368.216 79.8523C369.064 79.8523 369.746 79.6894 370.261 79.3636C370.784 79.0303 371.049 78.6023 371.057 78.0795C371.049 77.6402 370.864 77.2803 370.5 77C370.136 76.7121 369.576 76.4924 368.818 76.3409L365.795 75.7386C364.091 75.3977 362.822 74.8068 361.989 73.9659C361.163 73.125 360.75 72.053 360.75 70.75C360.75 69.6288 361.053 68.6629 361.659 67.8523C362.273 67.0417 363.133 66.4167 364.239 65.9773C365.352 65.5379 366.655 65.3182 368.148 65.3182C370.352 65.3182 372.087 65.7841 373.352 66.7159C374.625 67.6477 375.367 68.9167 375.58 70.5227ZM388.31 65.5455V69.1818H377.798V65.5455H388.31ZM380.185 61.3636H385.026V77.6364C385.026 78.0833 385.094 78.4318 385.23 78.6818C385.366 78.9242 385.556 79.0947 385.798 79.1932C386.048 79.2917 386.336 79.3409 386.662 79.3409C386.889 79.3409 387.116 79.322 387.344 79.2841C387.571 79.2386 387.745 79.2045 387.866 79.1818L388.628 82.7841C388.385 82.8598 388.045 82.947 387.605 83.0455C387.166 83.1515 386.632 83.2159 386.003 83.2386C384.836 83.2841 383.813 83.1288 382.935 82.7727C382.063 82.4167 381.385 81.8636 380.901 81.1136C380.416 80.3636 380.177 79.4167 380.185 78.2727V61.3636ZM391.463 83V65.5455H396.156V68.5909H396.338C396.656 67.5076 397.19 66.6894 397.94 66.1364C398.69 65.5758 399.554 65.2955 400.531 65.2955C400.774 65.2955 401.035 65.3106 401.315 65.3409C401.596 65.3712 401.842 65.4129 402.054 65.4659V69.7614C401.827 69.6932 401.512 69.6326 401.111 69.5795C400.709 69.5265 400.342 69.5 400.009 69.5C399.296 69.5 398.66 69.6553 398.099 69.9659C397.546 70.2689 397.107 70.6932 396.781 71.2386C396.463 71.7841 396.304 72.4129 396.304 73.125V83H391.463ZM409.034 83.3295C407.92 83.3295 406.928 83.1364 406.057 82.75C405.186 82.3561 404.496 81.7765 403.989 81.0114C403.489 80.2386 403.239 79.2765 403.239 78.125C403.239 77.1553 403.417 76.3409 403.773 75.6818C404.129 75.0227 404.614 74.4924 405.227 74.0909C405.841 73.6894 406.538 73.3864 407.318 73.1818C408.106 72.9773 408.932 72.8333 409.795 72.75C410.811 72.6439 411.629 72.5455 412.25 72.4545C412.871 72.3561 413.322 72.2121 413.602 72.0227C413.883 71.8333 414.023 71.553 414.023 71.1818V71.1136C414.023 70.3939 413.795 69.8371 413.341 69.4432C412.894 69.0492 412.258 68.8523 411.432 68.8523C410.561 68.8523 409.867 69.0455 409.352 69.4318C408.837 69.8106 408.496 70.2879 408.33 70.8636L403.852 70.5C404.08 69.4394 404.527 68.5227 405.193 67.75C405.86 66.9697 406.72 66.3712 407.773 65.9545C408.833 65.5303 410.061 65.3182 411.455 65.3182C412.424 65.3182 413.352 65.4318 414.239 65.6591C415.133 65.8864 415.924 66.2386 416.614 66.7159C417.311 67.1932 417.86 67.8068 418.261 68.5568C418.663 69.2992 418.864 70.1894 418.864 71.2273V83H414.273V80.5795H414.136C413.856 81.125 413.481 81.6061 413.011 82.0227C412.542 82.4318 411.977 82.7538 411.318 82.9886C410.659 83.2159 409.898 83.3295 409.034 83.3295ZM410.42 79.9886C411.133 79.9886 411.761 79.8485 412.307 79.5682C412.852 79.2803 413.28 78.8939 413.591 78.4091C413.902 77.9242 414.057 77.375 414.057 76.7614V74.9091C413.905 75.0076 413.697 75.0985 413.432 75.1818C413.174 75.2576 412.883 75.3295 412.557 75.3977C412.231 75.4583 411.905 75.5152 411.58 75.5682C411.254 75.6136 410.958 75.6553 410.693 75.6932C410.125 75.7765 409.629 75.9091 409.205 76.0909C408.78 76.2727 408.451 76.5189 408.216 76.8295C407.981 77.1326 407.864 77.5114 407.864 77.9659C407.864 78.625 408.102 79.1288 408.58 79.4773C409.064 79.8182 409.678 79.9886 410.42 79.9886ZM431.903 65.5455V69.1818H421.392V65.5455H431.903ZM423.778 61.3636H428.619V77.6364C428.619 78.0833 428.688 78.4318 428.824 78.6818C428.96 78.9242 429.15 79.0947 429.392 79.1932C429.642 79.2917 429.93 79.3409 430.256 79.3409C430.483 79.3409 430.71 79.322 430.938 79.2841C431.165 79.2386 431.339 79.2045 431.46 79.1818L432.222 82.7841C431.979 82.8598 431.638 82.947 431.199 83.0455C430.759 83.1515 430.225 83.2159 429.597 83.2386C428.43 83.2841 427.407 83.1288 426.528 82.7727C425.657 82.4167 424.979 81.8636 424.494 81.1136C424.009 80.3636 423.771 79.4167 423.778 78.2727V61.3636ZM435.057 83V65.5455H439.898V83H435.057ZM437.489 63.2955C436.769 63.2955 436.152 63.0568 435.636 62.5795C435.129 62.0947 434.875 61.5152 434.875 60.8409C434.875 60.1742 435.129 59.6023 435.636 59.125C436.152 58.6402 436.769 58.3977 437.489 58.3977C438.208 58.3977 438.822 58.6402 439.33 59.125C439.845 59.6023 440.102 60.1742 440.102 60.8409C440.102 61.5152 439.845 62.0947 439.33 62.5795C438.822 63.0568 438.208 63.2955 437.489 63.2955ZM451.662 83.3409C449.897 83.3409 448.37 82.9659 447.082 82.2159C445.802 81.4583 444.813 80.4053 444.116 79.0568C443.42 77.7008 443.071 76.1288 443.071 74.3409C443.071 72.5379 443.42 70.9621 444.116 69.6136C444.813 68.2576 445.802 67.2045 447.082 66.4545C448.37 65.697 449.897 65.3182 451.662 65.3182C453.427 65.3182 454.95 65.697 456.23 66.4545C457.518 67.2045 458.51 68.2576 459.207 69.6136C459.904 70.9621 460.253 72.5379 460.253 74.3409C460.253 76.1288 459.904 77.7008 459.207 79.0568C458.51 80.4053 457.518 81.4583 456.23 82.2159C454.95 82.9659 453.427 83.3409 451.662 83.3409ZM451.685 79.5909C452.488 79.5909 453.158 79.3636 453.696 78.9091C454.234 78.447 454.639 77.8182 454.912 77.0227C455.192 76.2273 455.332 75.322 455.332 74.3068C455.332 73.2917 455.192 72.3864 454.912 71.5909C454.639 70.7955 454.234 70.1667 453.696 69.7045C453.158 69.2424 452.488 69.0114 451.685 69.0114C450.874 69.0114 450.192 69.2424 449.639 69.7045C449.094 70.1667 448.681 70.7955 448.401 71.5909C448.128 72.3864 447.991 73.2917 447.991 74.3068C447.991 75.322 448.128 76.2273 448.401 77.0227C448.681 77.8182 449.094 78.447 449.639 78.9091C450.192 79.3636 450.874 79.5909 451.685 79.5909ZM468.241 72.9091V83H463.401V65.5455H468.014V68.625H468.219C468.605 67.6098 469.253 66.8068 470.162 66.2159C471.071 65.6174 472.173 65.3182 473.469 65.3182C474.681 65.3182 475.738 65.5833 476.639 66.1136C477.541 66.6439 478.241 67.4015 478.741 68.3864C479.241 69.3636 479.491 70.5303 479.491 71.8864V83H474.651V72.75C474.658 71.6818 474.385 70.8485 473.832 70.25C473.279 69.6439 472.518 69.3409 471.548 69.3409C470.897 69.3409 470.321 69.4811 469.821 69.7614C469.329 70.0417 468.942 70.4508 468.662 70.9886C468.389 71.5189 468.249 72.1591 468.241 72.9091ZM490.804 83V59.7273H495.724V78.9432H505.702V83H490.804ZM513.847 83.3295C512.733 83.3295 511.741 83.1364 510.869 82.75C509.998 82.3561 509.309 81.7765 508.801 81.0114C508.301 80.2386 508.051 79.2765 508.051 78.125C508.051 77.1553 508.229 76.3409 508.585 75.6818C508.941 75.0227 509.426 74.4924 510.04 74.0909C510.653 73.6894 511.35 73.3864 512.131 73.1818C512.919 72.9773 513.744 72.8333 514.608 72.75C515.623 72.6439 516.441 72.5455 517.062 72.4545C517.684 72.3561 518.134 72.2121 518.415 72.0227C518.695 71.8333 518.835 71.553 518.835 71.1818V71.1136C518.835 70.3939 518.608 69.8371 518.153 69.4432C517.706 69.0492 517.07 68.8523 516.244 68.8523C515.373 68.8523 514.68 69.0455 514.165 69.4318C513.65 69.8106 513.309 70.2879 513.142 70.8636L508.665 70.5C508.892 69.4394 509.339 68.5227 510.006 67.75C510.672 66.9697 511.532 66.3712 512.585 65.9545C513.646 65.5303 514.873 65.3182 516.267 65.3182C517.237 65.3182 518.165 65.4318 519.051 65.6591C519.945 65.8864 520.737 66.2386 521.426 66.7159C522.123 67.1932 522.672 67.8068 523.074 68.5568C523.475 69.2992 523.676 70.1894 523.676 71.2273V83H519.085V80.5795H518.949C518.669 81.125 518.294 81.6061 517.824 82.0227C517.354 82.4318 516.79 82.7538 516.131 82.9886C515.472 83.2159 514.71 83.3295 513.847 83.3295ZM515.233 79.9886C515.945 79.9886 516.574 79.8485 517.119 79.5682C517.665 79.2803 518.093 78.8939 518.403 78.4091C518.714 77.9242 518.869 77.375 518.869 76.7614V74.9091C518.718 75.0076 518.509 75.0985 518.244 75.1818C517.987 75.2576 517.695 75.3295 517.369 75.3977C517.044 75.4583 516.718 75.5152 516.392 75.5682C516.066 75.6136 515.771 75.6553 515.506 75.6932C514.938 75.7765 514.441 75.9091 514.017 76.0909C513.593 76.2727 513.263 76.5189 513.028 76.8295C512.794 77.1326 512.676 77.5114 512.676 77.9659C512.676 78.625 512.915 79.1288 513.392 79.4773C513.877 79.8182 514.491 79.9886 515.233 79.9886ZM529.795 89.5455C529.182 89.5455 528.606 89.4962 528.068 89.3977C527.538 89.3068 527.098 89.1894 526.75 89.0455L527.841 85.4318C528.409 85.6061 528.92 85.7008 529.375 85.7159C529.837 85.7311 530.235 85.625 530.568 85.3977C530.909 85.1705 531.186 84.7841 531.398 84.2386L531.682 83.5L525.42 65.5455H530.511L534.125 78.3636H534.307L537.955 65.5455H543.08L536.295 84.8864C535.97 85.8258 535.527 86.6439 534.966 87.3409C534.413 88.0455 533.712 88.5871 532.864 88.9659C532.015 89.3523 530.992 89.5455 529.795 89.5455ZM552.949 83.3409C551.153 83.3409 549.608 82.9773 548.312 82.25C547.025 81.5152 546.032 80.4773 545.335 79.1364C544.638 77.7879 544.29 76.1932 544.29 74.3523C544.29 72.5568 544.638 70.9811 545.335 69.625C546.032 68.2689 547.013 67.2121 548.278 66.4545C549.551 65.697 551.044 65.3182 552.756 65.3182C553.907 65.3182 554.979 65.5038 555.972 65.875C556.972 66.2386 557.843 66.7879 558.585 67.5227C559.335 68.2576 559.919 69.1818 560.335 70.2955C560.752 71.4015 560.96 72.697 560.96 74.1818V75.5114H546.222V72.5114H556.403C556.403 71.8144 556.252 71.197 555.949 70.6591C555.646 70.1212 555.225 69.7008 554.688 69.3977C554.157 69.0871 553.54 68.9318 552.835 68.9318C552.1 68.9318 551.449 69.1023 550.881 69.4432C550.32 69.7765 549.881 70.2273 549.562 70.7955C549.244 71.3561 549.081 71.9811 549.074 72.6705V75.5227C549.074 76.3864 549.233 77.1326 549.551 77.7614C549.877 78.3902 550.335 78.875 550.926 79.2159C551.517 79.5568 552.218 79.7273 553.028 79.7273C553.566 79.7273 554.059 79.6515 554.506 79.5C554.953 79.3485 555.335 79.1212 555.653 78.8182C555.972 78.5152 556.214 78.1439 556.381 77.7045L560.858 78C560.631 79.0758 560.165 80.0152 559.46 80.8182C558.763 81.6136 557.862 82.2348 556.756 82.6818C555.657 83.1212 554.388 83.3409 552.949 83.3409ZM564.119 83V65.5455H568.812V68.5909H568.994C569.313 67.5076 569.847 66.6894 570.597 66.1364C571.347 65.5758 572.21 65.2955 573.188 65.2955C573.43 65.2955 573.691 65.3106 573.972 65.3409C574.252 65.3712 574.498 65.4129 574.71 65.4659V69.7614C574.483 69.6932 574.169 69.6326 573.767 69.5795C573.366 69.5265 572.998 69.5 572.665 69.5C571.953 69.5 571.316 69.6553 570.756 69.9659C570.203 70.2689 569.763 70.6932 569.438 71.2386C569.119 71.7841 568.96 72.4129 568.96 73.125V83H564.119Z" fill="#EEF6FF"></path>
<circle cx="135" cy="248" r="48" fill="url(#paint1_linear_2606_8283)" fill-opacity="0.5"></circle>
<mask id="mask0_2606_8283" style="mask-type:alpha" maskUnits="userSpaceOnUse" x="55" y="128" width="161" height="153">
<rect x="55" y="128" width="161" height="153" fill="#D9D9D9"></rect>
</mask>
<g mask="url(#mask0_2606_8283)">
<rect x="56.6797" y="118.157" width="153.721" height="152.615" fill="url(#pattern0_2606_8283)"></rect>
</g>
<path d="M76.3372 325.099C76.2188 324.716 76.0555 324.373 75.8471 324.07C75.6435 323.762 75.3973 323.499 75.1085 323.281C74.8244 323.063 74.4977 322.9 74.1284 322.791C73.7591 322.678 73.3566 322.621 72.921 322.621C72.1397 322.621 71.4437 322.817 70.8329 323.21C70.2221 323.603 69.7415 324.181 69.3912 324.943C69.0455 325.701 68.8727 326.624 68.8727 327.713C68.8727 328.812 69.0455 329.742 69.3912 330.504C69.7368 331.267 70.2174 331.847 70.8329 332.244C71.4484 332.637 72.1634 332.834 72.9778 332.834C73.7164 332.834 74.3556 332.692 74.8954 332.408C75.4399 332.124 75.859 331.721 76.1525 331.2C76.4461 330.675 76.5929 330.059 76.5929 329.354L77.1895 329.446H73.2406V327.386H79.1426V329.134C79.1426 330.379 78.8774 331.456 78.3471 332.365C77.8168 333.274 77.0877 333.975 76.1596 334.467C75.2316 334.955 74.1663 335.199 72.9636 335.199C71.6236 335.199 70.447 334.898 69.4338 334.297C68.4252 333.691 67.6369 332.831 67.0687 331.719C66.5053 330.601 66.2235 329.276 66.2235 327.741C66.2235 326.567 66.3893 325.518 66.7207 324.595C67.0569 323.672 67.5256 322.888 68.127 322.244C68.7283 321.596 69.4338 321.103 70.2434 320.767C71.0531 320.426 71.9338 320.256 72.8855 320.256C73.6904 320.256 74.4409 320.374 75.1369 320.611C75.8329 320.843 76.4508 321.174 76.9906 321.605C77.5351 322.036 77.9825 322.547 78.3329 323.139C78.6833 323.731 78.9129 324.384 79.0218 325.099H76.3372ZM88.53 330.412V324.091H91.101V335H88.6081V333.061H88.4945C88.2483 333.672 87.8435 334.171 87.28 334.56C86.7213 334.948 86.0324 335.142 85.2132 335.142C84.4983 335.142 83.8662 334.983 83.3169 334.666C82.7724 334.344 82.3463 333.878 82.0385 333.267C81.7308 332.652 81.5769 331.908 81.5769 331.037V324.091H84.1479V330.639C84.1479 331.33 84.3373 331.88 84.7161 332.287C85.0949 332.694 85.592 332.898 86.2076 332.898C86.5864 332.898 86.9533 332.805 87.3084 332.621C87.6635 332.436 87.9547 332.161 88.182 331.797C88.414 331.428 88.53 330.966 88.53 330.412ZM96.8841 335.22C96.1928 335.22 95.5701 335.097 95.0162 334.851C94.4669 334.6 94.0313 334.231 93.7093 333.743C93.3921 333.255 93.2335 332.654 93.2335 331.939C93.2335 331.323 93.3471 330.814 93.5744 330.412C93.8017 330.009 94.1118 329.688 94.5048 329.446C94.8978 329.205 95.3405 329.022 95.8329 328.899C96.3301 328.771 96.8438 328.679 97.3741 328.622C98.0133 328.556 98.5318 328.497 98.9295 328.445C99.3272 328.388 99.6161 328.303 99.796 328.189C99.9806 328.071 100.073 327.888 100.073 327.642V327.599C100.073 327.064 99.9144 326.65 99.5971 326.357C99.2799 326.063 98.823 325.916 98.2264 325.916C97.5967 325.916 97.0971 326.054 96.7278 326.328C96.3632 326.603 96.117 326.927 95.9892 327.301L93.5886 326.96C93.778 326.297 94.0905 325.743 94.5261 325.298C94.9617 324.848 95.4944 324.512 96.1241 324.29C96.7538 324.062 97.4499 323.949 98.2122 323.949C98.7377 323.949 99.2609 324.01 99.7818 324.134C100.303 324.257 100.778 324.46 101.209 324.744C101.64 325.024 101.986 325.405 102.246 325.888C102.511 326.371 102.644 326.974 102.644 327.699V335H100.172V333.501H100.087C99.9309 333.804 99.7108 334.089 99.4267 334.354C99.1473 334.614 98.7946 334.825 98.3684 334.986C97.947 335.142 97.4522 335.22 96.8841 335.22ZM97.5517 333.331C98.0678 333.331 98.5152 333.229 98.894 333.026C99.2728 332.817 99.564 332.543 99.7676 332.202C99.9759 331.861 100.08 331.489 100.08 331.087V329.801C99.9996 329.867 99.8623 329.929 99.6681 329.986C99.4788 330.043 99.2657 330.092 99.0289 330.135C98.7922 330.178 98.5578 330.215 98.3258 330.249C98.0938 330.282 97.8926 330.31 97.7221 330.334C97.3386 330.386 96.9953 330.471 96.6923 330.589C96.3893 330.708 96.1502 330.874 95.975 331.087C95.7998 331.295 95.7122 331.565 95.7122 331.896C95.7122 332.37 95.885 332.727 96.2306 332.969C96.5763 333.21 97.0166 333.331 97.5517 333.331ZM105.229 335V324.091H107.722V325.909H107.836C108.035 325.279 108.376 324.794 108.858 324.453C109.346 324.107 109.903 323.935 110.528 323.935C110.67 323.935 110.828 323.942 111.003 323.956C111.183 323.965 111.332 323.982 111.451 324.006V326.371C111.342 326.333 111.169 326.3 110.932 326.271C110.7 326.238 110.475 326.222 110.258 326.222C109.789 326.222 109.367 326.323 108.993 326.527C108.624 326.726 108.333 327.003 108.12 327.358C107.907 327.713 107.8 328.123 107.8 328.587V335H105.229ZM116.758 335.192C115.901 335.192 115.134 334.972 114.457 334.531C113.78 334.091 113.245 333.452 112.852 332.614C112.459 331.776 112.262 330.758 112.262 329.56C112.262 328.348 112.461 327.325 112.859 326.491C113.261 325.653 113.803 325.021 114.485 324.595C115.167 324.164 115.927 323.949 116.765 323.949C117.404 323.949 117.93 324.058 118.342 324.276C118.754 324.489 119.08 324.747 119.322 325.05C119.563 325.348 119.75 325.63 119.883 325.895H119.99V320.455H122.568V335H120.039V333.281H119.883C119.75 333.546 119.559 333.828 119.308 334.126C119.057 334.42 118.725 334.671 118.313 334.879C117.901 335.088 117.383 335.192 116.758 335.192ZM117.475 333.082C118.02 333.082 118.484 332.936 118.867 332.642C119.251 332.344 119.542 331.929 119.741 331.399C119.94 330.869 120.039 330.251 120.039 329.545C120.039 328.84 119.94 328.227 119.741 327.706C119.547 327.185 119.258 326.78 118.874 326.491C118.496 326.203 118.029 326.058 117.475 326.058C116.902 326.058 116.424 326.207 116.041 326.506C115.657 326.804 115.368 327.216 115.174 327.741C114.98 328.267 114.883 328.868 114.883 329.545C114.883 330.227 114.98 330.836 115.174 331.371C115.373 331.901 115.664 332.32 116.048 332.628C116.436 332.931 116.912 333.082 117.475 333.082ZM125.307 335V324.091H127.8V325.909H127.914C128.113 325.279 128.454 324.794 128.937 324.453C129.424 324.107 129.981 323.935 130.606 323.935C130.748 323.935 130.906 323.942 131.081 323.956C131.261 323.965 131.411 323.982 131.529 324.006V326.371C131.42 326.333 131.247 326.3 131.01 326.271C130.778 326.238 130.554 326.222 130.336 326.222C129.867 326.222 129.446 326.323 129.072 326.527C128.702 326.726 128.411 327.003 128.198 327.358C127.985 327.713 127.878 328.123 127.878 328.587V335H125.307ZM136.181 335.22C135.49 335.22 134.867 335.097 134.313 334.851C133.764 334.6 133.328 334.231 133.006 333.743C132.689 333.255 132.53 332.654 132.53 331.939C132.53 331.323 132.644 330.814 132.871 330.412C133.099 330.009 133.409 329.688 133.802 329.446C134.195 329.205 134.637 329.022 135.13 328.899C135.627 328.771 136.141 328.679 136.671 328.622C137.31 328.556 137.829 328.497 138.226 328.445C138.624 328.388 138.913 328.303 139.093 328.189C139.278 328.071 139.37 327.888 139.37 327.642V327.599C139.37 327.064 139.211 326.65 138.894 326.357C138.577 326.063 138.12 325.916 137.523 325.916C136.894 325.916 136.394 326.054 136.025 326.328C135.66 326.603 135.414 326.927 135.286 327.301L132.885 326.96C133.075 326.297 133.387 325.743 133.823 325.298C134.259 324.848 134.791 324.512 135.421 324.29C136.051 324.062 136.747 323.949 137.509 323.949C138.035 323.949 138.558 324.01 139.079 324.134C139.599 324.257 140.075 324.46 140.506 324.744C140.937 325.024 141.283 325.405 141.543 325.888C141.808 326.371 141.941 326.974 141.941 327.699V335H139.469V333.501H139.384C139.228 333.804 139.008 334.089 138.724 334.354C138.444 334.614 138.091 334.825 137.665 334.986C137.244 335.142 136.749 335.22 136.181 335.22ZM136.849 333.331C137.365 333.331 137.812 333.229 138.191 333.026C138.57 332.817 138.861 332.543 139.064 332.202C139.273 331.861 139.377 331.489 139.377 331.087V329.801C139.296 329.867 139.159 329.929 138.965 329.986C138.776 330.043 138.563 330.092 138.326 330.135C138.089 330.178 137.855 330.215 137.623 330.249C137.391 330.282 137.189 330.31 137.019 330.334C136.635 330.386 136.292 330.471 135.989 330.589C135.686 330.708 135.447 330.874 135.272 331.087C135.097 331.295 135.009 331.565 135.009 331.896C135.009 332.37 135.182 332.727 135.528 332.969C135.873 333.21 136.314 333.331 136.849 333.331ZM144.526 335V324.091H147.097V335H144.526ZM145.819 322.543C145.412 322.543 145.061 322.408 144.768 322.138C144.474 321.863 144.327 321.534 144.327 321.151C144.327 320.762 144.474 320.433 144.768 320.163C145.061 319.889 145.412 319.751 145.819 319.751C146.231 319.751 146.581 319.889 146.87 320.163C147.163 320.433 147.31 320.762 147.31 321.151C147.31 321.534 147.163 321.863 146.87 322.138C146.581 322.408 146.231 322.543 145.819 322.543ZM152.312 320.455V335H149.741V320.455H152.312ZM163.578 326.974L161.234 327.23C161.168 326.993 161.052 326.771 160.886 326.562C160.725 326.354 160.507 326.186 160.233 326.058C159.958 325.93 159.622 325.866 159.224 325.866C158.689 325.866 158.239 325.982 157.875 326.214C157.515 326.446 157.337 326.747 157.342 327.116C157.337 327.434 157.453 327.692 157.69 327.891C157.932 328.089 158.329 328.253 158.883 328.381L160.744 328.778C161.776 329.001 162.543 329.354 163.045 329.837C163.552 330.32 163.808 330.952 163.812 331.733C163.808 332.42 163.606 333.026 163.209 333.551C162.816 334.072 162.269 334.479 161.568 334.773C160.867 335.066 160.062 335.213 159.153 335.213C157.818 335.213 156.743 334.934 155.929 334.375C155.114 333.812 154.629 333.028 154.473 332.024L156.98 331.783C157.094 332.275 157.335 332.647 157.704 332.898C158.074 333.149 158.554 333.274 159.146 333.274C159.757 333.274 160.247 333.149 160.616 332.898C160.99 332.647 161.177 332.337 161.177 331.967C161.177 331.655 161.057 331.397 160.815 331.193C160.578 330.99 160.209 330.833 159.707 330.724L157.846 330.334C156.8 330.116 156.026 329.749 155.524 329.233C155.022 328.712 154.773 328.054 154.778 327.259C154.773 326.586 154.956 326.004 155.325 325.511C155.699 325.014 156.218 324.631 156.881 324.361C157.548 324.086 158.318 323.949 159.189 323.949C160.467 323.949 161.473 324.221 162.207 324.766C162.946 325.31 163.403 326.046 163.578 326.974ZM174.032 335.22C173.341 335.22 172.719 335.097 172.165 334.851C171.615 334.6 171.18 334.231 170.858 333.743C170.541 333.255 170.382 332.654 170.382 331.939C170.382 331.323 170.496 330.814 170.723 330.412C170.95 330.009 171.26 329.688 171.653 329.446C172.046 329.205 172.489 329.022 172.981 328.899C173.479 328.771 173.992 328.679 174.523 328.622C175.162 328.556 175.68 328.497 176.078 328.445C176.476 328.388 176.765 328.303 176.944 328.189C177.129 328.071 177.221 327.888 177.221 327.642V327.599C177.221 327.064 177.063 326.65 176.746 326.357C176.428 326.063 175.971 325.916 175.375 325.916C174.745 325.916 174.246 326.054 173.876 326.328C173.512 326.603 173.265 326.927 173.138 327.301L170.737 326.96C170.926 326.297 171.239 325.743 171.675 325.298C172.11 324.848 172.643 324.512 173.273 324.29C173.902 324.062 174.598 323.949 175.361 323.949C175.886 323.949 176.409 324.01 176.93 324.134C177.451 324.257 177.927 324.46 178.358 324.744C178.789 325.024 179.134 325.405 179.395 325.888C179.66 326.371 179.792 326.974 179.792 327.699V335H177.321V333.501H177.236C177.079 333.804 176.859 334.089 176.575 334.354C176.296 334.614 175.943 334.825 175.517 334.986C175.095 335.142 174.601 335.22 174.032 335.22ZM174.7 333.331C175.216 333.331 175.664 333.229 176.042 333.026C176.421 332.817 176.712 332.543 176.916 332.202C177.124 331.861 177.229 331.489 177.229 331.087V329.801C177.148 329.867 177.011 329.929 176.817 329.986C176.627 330.043 176.414 330.092 176.177 330.135C175.941 330.178 175.706 330.215 175.474 330.249C175.242 330.282 175.041 330.31 174.871 330.334C174.487 330.386 174.144 330.471 173.841 330.589C173.538 330.708 173.299 330.874 173.123 331.087C172.948 331.295 172.861 331.565 172.861 331.896C172.861 332.37 173.033 332.727 173.379 332.969C173.725 333.21 174.165 333.331 174.7 333.331ZM184.949 328.608V335H182.378V324.091H184.835V325.945H184.963C185.214 325.334 185.614 324.848 186.163 324.489C186.717 324.129 187.401 323.949 188.216 323.949C188.969 323.949 189.624 324.11 190.183 324.432C190.747 324.754 191.182 325.22 191.49 325.831C191.802 326.442 191.956 327.183 191.952 328.054V335H189.381V328.452C189.381 327.723 189.191 327.152 188.812 326.74C188.438 326.328 187.92 326.122 187.257 326.122C186.807 326.122 186.407 326.222 186.057 326.42C185.711 326.615 185.439 326.896 185.24 327.266C185.046 327.635 184.949 328.082 184.949 328.608ZM198.613 335.192C197.756 335.192 196.989 334.972 196.312 334.531C195.635 334.091 195.1 333.452 194.707 332.614C194.314 331.776 194.118 330.758 194.118 329.56C194.118 328.348 194.317 327.325 194.714 326.491C195.117 325.653 195.659 325.021 196.341 324.595C197.023 324.164 197.782 323.949 198.621 323.949C199.26 323.949 199.785 324.058 200.197 324.276C200.609 324.489 200.936 324.747 201.177 325.05C201.419 325.348 201.606 325.63 201.738 325.895H201.845V320.455H204.423V335H201.895V333.281H201.738C201.606 333.546 201.414 333.828 201.163 334.126C200.912 334.42 200.581 334.671 200.169 334.879C199.757 335.088 199.238 335.192 198.613 335.192ZM199.331 333.082C199.875 333.082 200.339 332.936 200.723 332.642C201.106 332.344 201.398 331.929 201.596 331.399C201.795 330.869 201.895 330.251 201.895 329.545C201.895 328.84 201.795 328.227 201.596 327.706C201.402 327.185 201.113 326.78 200.73 326.491C200.351 326.203 199.885 326.058 199.331 326.058C198.758 326.058 198.28 326.207 197.896 326.506C197.513 326.804 197.224 327.216 197.03 327.741C196.836 328.267 196.738 328.868 196.738 329.545C196.738 330.227 196.836 330.836 197.03 331.371C197.229 331.901 197.52 332.32 197.903 332.628C198.291 332.931 198.767 333.082 199.331 333.082ZM102.163 359V348.091H104.656V349.909H104.769C104.968 349.279 105.309 348.794 105.792 348.453C106.28 348.107 106.836 347.935 107.461 347.935C107.603 347.935 107.762 347.942 107.937 347.956C108.117 347.965 108.266 347.982 108.384 348.006V350.371C108.276 350.333 108.103 350.3 107.866 350.271C107.634 350.238 107.409 350.222 107.191 350.222C106.722 350.222 106.301 350.323 105.927 350.527C105.558 350.726 105.267 351.003 105.053 351.358C104.84 351.713 104.734 352.123 104.734 352.587V359H102.163ZM114.402 359.213C113.336 359.213 112.413 358.979 111.632 358.51C110.851 358.041 110.245 357.385 109.814 356.543C109.388 355.7 109.175 354.715 109.175 353.588C109.175 352.461 109.388 351.474 109.814 350.626C110.245 349.779 110.851 349.121 111.632 348.652C112.413 348.183 113.336 347.949 114.402 347.949C115.467 347.949 116.39 348.183 117.172 348.652C117.953 349.121 118.557 349.779 118.983 350.626C119.414 351.474 119.629 352.461 119.629 353.588C119.629 354.715 119.414 355.7 118.983 356.543C118.557 357.385 117.953 358.041 117.172 358.51C116.39 358.979 115.467 359.213 114.402 359.213ZM114.416 357.153C114.994 357.153 115.477 356.995 115.865 356.678C116.253 356.356 116.542 355.925 116.731 355.385C116.925 354.845 117.023 354.244 117.023 353.581C117.023 352.913 116.925 352.31 116.731 351.77C116.542 351.225 116.253 350.792 115.865 350.47C115.477 350.148 114.994 349.987 114.416 349.987C113.824 349.987 113.332 350.148 112.939 350.47C112.55 350.792 112.259 351.225 112.065 351.77C111.876 352.31 111.781 352.913 111.781 353.581C111.781 354.244 111.876 354.845 112.065 355.385C112.259 355.925 112.55 356.356 112.939 356.678C113.332 356.995 113.824 357.153 114.416 357.153ZM128.764 354.412V348.091H131.335V359H128.843V357.061H128.729C128.483 357.672 128.078 358.171 127.514 358.56C126.956 358.948 126.267 359.142 125.448 359.142C124.733 359.142 124.101 358.983 123.551 358.666C123.007 358.344 122.581 357.878 122.273 357.267C121.965 356.652 121.811 355.908 121.811 355.037V348.091H124.382V354.639C124.382 355.33 124.572 355.88 124.95 356.287C125.329 356.694 125.826 356.898 126.442 356.898C126.821 356.898 127.188 356.805 127.543 356.621C127.898 356.436 128.189 356.161 128.416 355.797C128.648 355.428 128.764 354.966 128.764 354.412ZM139.427 348.091V350.08H133.155V348.091H139.427ZM134.704 345.477H137.275V355.719C137.275 356.064 137.327 356.33 137.431 356.514C137.54 356.694 137.682 356.817 137.857 356.884C138.032 356.95 138.226 356.983 138.439 356.983C138.6 356.983 138.747 356.971 138.88 356.947C139.017 356.924 139.121 356.902 139.192 356.884L139.626 358.893C139.488 358.941 139.292 358.993 139.036 359.05C138.785 359.107 138.477 359.14 138.113 359.149C137.469 359.168 136.889 359.071 136.373 358.858C135.857 358.64 135.447 358.304 135.144 357.849C134.846 357.395 134.699 356.827 134.704 356.145V345.477ZM141.577 359V348.091H144.148V359H141.577ZM142.869 346.543C142.462 346.543 142.112 346.408 141.818 346.138C141.525 345.863 141.378 345.534 141.378 345.151C141.378 344.762 141.525 344.433 141.818 344.163C142.112 343.889 142.462 343.751 142.869 343.751C143.281 343.751 143.632 343.889 143.921 344.163C144.214 344.433 144.361 344.762 144.361 345.151C144.361 345.534 144.214 345.863 143.921 346.138C143.632 346.408 143.281 346.543 142.869 346.543ZM149.363 352.608V359H146.792V348.091H149.249V349.945H149.377C149.628 349.334 150.028 348.848 150.577 348.489C151.131 348.129 151.815 347.949 152.63 347.949C153.383 347.949 154.038 348.11 154.597 348.432C155.161 348.754 155.596 349.22 155.904 349.831C156.216 350.442 156.37 351.183 156.366 352.054V359H153.795V352.452C153.795 351.723 153.605 351.152 153.226 350.74C152.852 350.328 152.334 350.122 151.671 350.122C151.221 350.122 150.821 350.222 150.471 350.42C150.125 350.615 149.853 350.896 149.654 351.266C149.46 351.635 149.363 352.082 149.363 352.608ZM163.724 363.318C162.8 363.318 162.007 363.193 161.344 362.942C160.681 362.696 160.149 362.364 159.746 361.947C159.344 361.531 159.064 361.069 158.908 360.562L161.224 360.001C161.328 360.214 161.479 360.425 161.678 360.634C161.877 360.847 162.144 361.022 162.481 361.159C162.822 361.301 163.25 361.372 163.766 361.372C164.495 361.372 165.099 361.195 165.577 360.839C166.055 360.489 166.295 359.911 166.295 359.107V357.04H166.167C166.034 357.305 165.84 357.577 165.584 357.857C165.333 358.136 165 358.37 164.583 358.56C164.171 358.749 163.653 358.844 163.028 358.844C162.189 358.844 161.43 358.647 160.748 358.254C160.071 357.857 159.531 357.265 159.128 356.479C158.731 355.688 158.532 354.698 158.532 353.51C158.532 352.312 158.731 351.301 159.128 350.477C159.531 349.649 160.073 349.021 160.755 348.595C161.437 348.164 162.197 347.949 163.035 347.949C163.674 347.949 164.199 348.058 164.611 348.276C165.028 348.489 165.359 348.747 165.606 349.05C165.852 349.348 166.039 349.63 166.167 349.895H166.309V348.091H168.844V359.178C168.844 360.11 168.622 360.882 168.177 361.493C167.732 362.104 167.123 362.561 166.351 362.864C165.58 363.167 164.704 363.318 163.724 363.318ZM163.745 356.827C164.289 356.827 164.753 356.694 165.137 356.429C165.52 356.164 165.812 355.783 166.01 355.286C166.209 354.788 166.309 354.192 166.309 353.496C166.309 352.809 166.209 352.208 166.01 351.692C165.816 351.176 165.528 350.776 165.144 350.491C164.765 350.203 164.299 350.058 163.745 350.058C163.172 350.058 162.694 350.207 162.31 350.506C161.927 350.804 161.638 351.214 161.444 351.734C161.25 352.25 161.153 352.838 161.153 353.496C161.153 354.163 161.25 354.748 161.444 355.25C161.643 355.747 161.934 356.135 162.317 356.415C162.706 356.689 163.181 356.827 163.745 356.827Z" fill="#EEF6FF"></path>
<circle cx="358" cy="248" r="48" fill="url(#paint2_linear_2606_8283)" fill-opacity="0.5"></circle>
<rect x="310.844" y="128" width="160.156" height="129.356" fill="url(#pattern1_2606_8283)"></rect>
<path d="M337.656 325.362H335C334.924 324.927 334.785 324.541 334.581 324.205C334.378 323.864 334.124 323.575 333.821 323.338C333.518 323.101 333.173 322.924 332.784 322.805C332.401 322.682 331.986 322.621 331.541 322.621C330.751 322.621 330.05 322.82 329.439 323.217C328.828 323.61 328.35 324.188 328.004 324.95C327.659 325.708 327.486 326.634 327.486 327.727C327.486 328.84 327.659 329.777 328.004 330.54C328.355 331.297 328.833 331.87 329.439 332.259C330.05 332.642 330.748 332.834 331.534 332.834C331.97 332.834 332.377 332.777 332.756 332.663C333.139 332.545 333.483 332.372 333.786 332.145C334.093 331.918 334.352 331.638 334.56 331.307C334.773 330.975 334.92 330.597 335 330.17L337.656 330.185C337.557 330.876 337.342 331.525 337.01 332.131C336.683 332.737 336.255 333.272 335.725 333.736C335.194 334.195 334.574 334.555 333.864 334.815C333.154 335.071 332.365 335.199 331.499 335.199C330.22 335.199 329.079 334.903 328.075 334.311C327.072 333.719 326.281 332.865 325.703 331.747C325.126 330.63 324.837 329.29 324.837 327.727C324.837 326.16 325.128 324.82 325.71 323.707C326.293 322.59 327.086 321.735 328.09 321.143C329.093 320.552 330.23 320.256 331.499 320.256C332.308 320.256 333.061 320.369 333.757 320.597C334.453 320.824 335.074 321.158 335.618 321.598C336.163 322.034 336.61 322.569 336.96 323.203C337.316 323.833 337.548 324.553 337.656 325.362ZM344.714 335.213C343.649 335.213 342.726 334.979 341.944 334.51C341.163 334.041 340.557 333.385 340.126 332.543C339.7 331.7 339.487 330.715 339.487 329.588C339.487 328.461 339.7 327.474 340.126 326.626C340.557 325.779 341.163 325.121 341.944 324.652C342.726 324.183 343.649 323.949 344.714 323.949C345.78 323.949 346.703 324.183 347.484 324.652C348.265 325.121 348.869 325.779 349.295 326.626C349.726 327.474 349.942 328.461 349.942 329.588C349.942 330.715 349.726 331.7 349.295 332.543C348.869 333.385 348.265 334.041 347.484 334.51C346.703 334.979 345.78 335.213 344.714 335.213ZM344.729 333.153C345.306 333.153 345.789 332.995 346.177 332.678C346.566 332.356 346.854 331.925 347.044 331.385C347.238 330.845 347.335 330.244 347.335 329.581C347.335 328.913 347.238 328.31 347.044 327.77C346.854 327.225 346.566 326.792 346.177 326.47C345.789 326.148 345.306 325.987 344.729 325.987C344.137 325.987 343.644 326.148 343.251 326.47C342.863 326.792 342.572 327.225 342.378 327.77C342.188 328.31 342.094 328.913 342.094 329.581C342.094 330.244 342.188 330.845 342.378 331.385C342.572 331.925 342.863 332.356 343.251 332.678C343.644 332.995 344.137 333.153 344.729 333.153ZM355.263 335.22C354.572 335.22 353.949 335.097 353.395 334.851C352.846 334.6 352.41 334.231 352.088 333.743C351.771 333.255 351.612 332.654 351.612 331.939C351.612 331.323 351.726 330.814 351.953 330.412C352.181 330.009 352.491 329.688 352.884 329.446C353.277 329.205 353.719 329.022 354.212 328.899C354.709 328.771 355.223 328.679 355.753 328.622C356.392 328.556 356.911 328.497 357.308 328.445C357.706 328.388 357.995 328.303 358.175 328.189C358.36 328.071 358.452 327.888 358.452 327.642V327.599C358.452 327.064 358.293 326.65 357.976 326.357C357.659 326.063 357.202 325.916 356.605 325.916C355.976 325.916 355.476 326.054 355.107 326.328C354.742 326.603 354.496 326.927 354.368 327.301L351.968 326.96C352.157 326.297 352.469 325.743 352.905 325.298C353.341 324.848 353.873 324.512 354.503 324.29C355.133 324.062 355.829 323.949 356.591 323.949C357.117 323.949 357.64 324.01 358.161 324.134C358.682 324.257 359.157 324.46 359.588 324.744C360.019 325.024 360.365 325.405 360.625 325.888C360.89 326.371 361.023 326.974 361.023 327.699V335H358.551V333.501H358.466C358.31 333.804 358.09 334.089 357.806 334.354C357.526 334.614 357.173 334.825 356.747 334.986C356.326 335.142 355.831 335.22 355.263 335.22ZM355.931 333.331C356.447 333.331 356.894 333.229 357.273 333.026C357.652 332.817 357.943 332.543 358.146 332.202C358.355 331.861 358.459 331.489 358.459 331.087V329.801C358.378 329.867 358.241 329.929 358.047 329.986C357.858 330.043 357.645 330.092 357.408 330.135C357.171 330.178 356.937 330.215 356.705 330.249C356.473 330.282 356.271 330.31 356.101 330.334C355.718 330.386 355.374 330.471 355.071 330.589C354.768 330.708 354.529 330.874 354.354 331.087C354.179 331.295 354.091 331.565 354.091 331.896C354.091 332.37 354.264 332.727 354.61 332.969C354.955 333.21 355.396 333.331 355.931 333.331ZM368.367 335.213C367.278 335.213 366.343 334.974 365.561 334.496C364.785 334.018 364.186 333.357 363.764 332.514C363.348 331.667 363.139 330.691 363.139 329.588C363.139 328.48 363.352 327.502 363.779 326.655C364.205 325.803 364.806 325.14 365.583 324.666C366.364 324.188 367.287 323.949 368.352 323.949C369.238 323.949 370.021 324.112 370.703 324.439C371.39 324.761 371.937 325.218 372.344 325.81C372.751 326.397 372.983 327.083 373.04 327.869H370.583C370.483 327.344 370.246 326.906 369.872 326.555C369.503 326.2 369.008 326.023 368.388 326.023C367.862 326.023 367.401 326.165 367.003 326.449C366.605 326.728 366.295 327.131 366.073 327.656C365.855 328.182 365.746 328.812 365.746 329.545C365.746 330.289 365.855 330.928 366.073 331.463C366.29 331.993 366.596 332.403 366.989 332.692C367.387 332.976 367.853 333.118 368.388 333.118C368.767 333.118 369.105 333.047 369.404 332.905C369.707 332.758 369.96 332.547 370.164 332.273C370.367 331.998 370.507 331.664 370.583 331.271H373.04C372.978 332.043 372.751 332.727 372.358 333.324C371.965 333.916 371.43 334.38 370.753 334.716C370.076 335.047 369.28 335.213 368.367 335.213ZM377.722 328.608V335H375.151V320.455H377.665V325.945H377.793C378.049 325.329 378.444 324.844 378.979 324.489C379.519 324.129 380.206 323.949 381.039 323.949C381.796 323.949 382.457 324.107 383.02 324.425C383.584 324.742 384.019 325.206 384.327 325.817C384.64 326.428 384.796 327.173 384.796 328.054V335H382.225V328.452C382.225 327.718 382.036 327.147 381.657 326.74C381.283 326.328 380.757 326.122 380.08 326.122C379.626 326.122 379.218 326.222 378.858 326.42C378.503 326.615 378.224 326.896 378.02 327.266C377.822 327.635 377.722 328.082 377.722 328.608ZM387.417 335V324.091H389.988V335H387.417ZM388.709 322.543C388.302 322.543 387.952 322.408 387.658 322.138C387.365 321.863 387.218 321.534 387.218 321.151C387.218 320.762 387.365 320.433 387.658 320.163C387.952 319.889 388.302 319.751 388.709 319.751C389.121 319.751 389.472 319.889 389.76 320.163C390.054 320.433 390.201 320.762 390.201 321.151C390.201 321.534 390.054 321.863 389.76 322.138C389.472 322.408 389.121 322.543 388.709 322.543ZM395.203 328.608V335H392.632V324.091H395.089V325.945H395.217C395.468 325.334 395.868 324.848 396.417 324.489C396.971 324.129 397.655 323.949 398.47 323.949C399.222 323.949 399.878 324.11 400.437 324.432C401 324.754 401.436 325.22 401.744 325.831C402.056 326.442 402.21 327.183 402.205 328.054V335H399.634V328.452C399.634 327.723 399.445 327.152 399.066 326.74C398.692 326.328 398.174 326.122 397.511 326.122C397.061 326.122 396.661 326.222 396.311 326.42C395.965 326.615 395.693 326.896 395.494 327.266C395.3 327.635 395.203 328.082 395.203 328.608ZM409.563 339.318C408.64 339.318 407.847 339.193 407.184 338.942C406.521 338.696 405.989 338.364 405.586 337.947C405.184 337.531 404.904 337.069 404.748 336.562L407.063 336.001C407.168 336.214 407.319 336.425 407.518 336.634C407.717 336.847 407.984 337.022 408.32 337.159C408.661 337.301 409.09 337.372 409.606 337.372C410.335 337.372 410.939 337.195 411.417 336.839C411.895 336.489 412.134 335.911 412.134 335.107V333.04H412.007C411.874 333.305 411.68 333.577 411.424 333.857C411.173 334.136 410.839 334.37 410.423 334.56C410.011 334.749 409.492 334.844 408.867 334.844C408.029 334.844 407.269 334.647 406.588 334.254C405.91 333.857 405.371 333.265 404.968 332.479C404.57 331.688 404.372 330.698 404.372 329.51C404.372 328.312 404.57 327.301 404.968 326.477C405.371 325.649 405.913 325.021 406.595 324.595C407.276 324.164 408.036 323.949 408.874 323.949C409.514 323.949 410.039 324.058 410.451 324.276C410.868 324.489 411.199 324.747 411.445 325.05C411.692 325.348 411.879 325.63 412.007 325.895H412.149V324.091H414.684V335.178C414.684 336.11 414.462 336.882 414.017 337.493C413.571 338.104 412.963 338.561 412.191 338.864C411.419 339.167 410.544 339.318 409.563 339.318ZM409.585 332.827C410.129 332.827 410.593 332.694 410.977 332.429C411.36 332.164 411.651 331.783 411.85 331.286C412.049 330.788 412.149 330.192 412.149 329.496C412.149 328.809 412.049 328.208 411.85 327.692C411.656 327.176 411.367 326.776 410.984 326.491C410.605 326.203 410.139 326.058 409.585 326.058C409.012 326.058 408.534 326.207 408.15 326.506C407.767 326.804 407.478 327.214 407.284 327.734C407.089 328.25 406.992 328.838 406.992 329.496C406.992 330.163 407.089 330.748 407.284 331.25C407.482 331.747 407.774 332.135 408.157 332.415C408.545 332.689 409.021 332.827 409.585 332.827ZM425.419 335.22C424.728 335.22 424.105 335.097 423.551 334.851C423.002 334.6 422.566 334.231 422.244 333.743C421.927 333.255 421.769 332.654 421.769 331.939C421.769 331.323 421.882 330.814 422.11 330.412C422.337 330.009 422.647 329.688 423.04 329.446C423.433 329.205 423.876 329.022 424.368 328.899C424.865 328.771 425.379 328.679 425.909 328.622C426.548 328.556 427.067 328.497 427.465 328.445C427.862 328.388 428.151 328.303 428.331 328.189C428.516 328.071 428.608 327.888 428.608 327.642V327.599C428.608 327.064 428.45 326.65 428.132 326.357C427.815 326.063 427.358 325.916 426.762 325.916C426.132 325.916 425.632 326.054 425.263 326.328C424.898 326.603 424.652 326.927 424.524 327.301L422.124 326.96C422.313 326.297 422.626 325.743 423.061 325.298C423.497 324.848 424.03 324.512 424.659 324.29C425.289 324.062 425.985 323.949 426.747 323.949C427.273 323.949 427.796 324.01 428.317 324.134C428.838 324.257 429.314 324.46 429.744 324.744C430.175 325.024 430.521 325.405 430.781 325.888C431.047 326.371 431.179 326.974 431.179 327.699V335H428.708V333.501H428.622C428.466 333.804 428.246 334.089 427.962 334.354C427.682 334.614 427.33 334.825 426.904 334.986C426.482 335.142 425.987 335.22 425.419 335.22ZM426.087 333.331C426.603 333.331 427.05 333.229 427.429 333.026C427.808 332.817 428.099 332.543 428.303 332.202C428.511 331.861 428.615 331.489 428.615 331.087V329.801C428.535 329.867 428.397 329.929 428.203 329.986C428.014 330.043 427.801 330.092 427.564 330.135C427.327 330.178 427.093 330.215 426.861 330.249C426.629 330.282 426.428 330.31 426.257 330.334C425.874 330.386 425.53 330.471 425.227 330.589C424.924 330.708 424.685 330.874 424.51 331.087C424.335 331.295 424.247 331.565 424.247 331.896C424.247 332.37 424.42 332.727 424.766 332.969C425.111 333.21 425.552 333.331 426.087 333.331ZM436.335 328.608V335H433.764V324.091H436.222V325.945H436.35C436.601 325.334 437.001 324.848 437.55 324.489C438.104 324.129 438.788 323.949 439.602 323.949C440.355 323.949 441.011 324.11 441.57 324.432C442.133 324.754 442.569 325.22 442.877 325.831C443.189 326.442 443.343 327.183 443.338 328.054V335H440.767V328.452C440.767 327.723 440.578 327.152 440.199 326.74C439.825 326.328 439.307 326.122 438.644 326.122C438.194 326.122 437.794 326.222 437.443 326.42C437.098 326.615 436.825 326.896 436.627 327.266C436.432 327.635 436.335 328.082 436.335 328.608ZM450 335.192C449.143 335.192 448.376 334.972 447.699 334.531C447.022 334.091 446.487 333.452 446.094 332.614C445.701 331.776 445.504 330.758 445.504 329.56C445.504 328.348 445.703 327.325 446.101 326.491C446.503 325.653 447.046 325.021 447.727 324.595C448.409 324.164 449.169 323.949 450.007 323.949C450.646 323.949 451.172 324.058 451.584 324.276C451.996 324.489 452.323 324.747 452.564 325.05C452.806 325.348 452.993 325.63 453.125 325.895H453.232V320.455H455.81V335H453.281V333.281H453.125C452.993 333.546 452.801 333.828 452.55 334.126C452.299 334.42 451.968 334.671 451.556 334.879C451.144 335.088 450.625 335.192 450 335.192ZM450.718 333.082C451.262 333.082 451.726 332.936 452.11 332.642C452.493 332.344 452.784 331.929 452.983 331.399C453.182 330.869 453.281 330.251 453.281 329.545C453.281 328.84 453.182 328.227 452.983 327.706C452.789 327.185 452.5 326.78 452.117 326.491C451.738 326.203 451.271 326.058 450.718 326.058C450.145 326.058 449.666 326.207 449.283 326.506C448.899 326.804 448.61 327.216 448.416 327.741C448.222 328.267 448.125 328.868 448.125 329.545C448.125 330.227 448.222 330.836 448.416 331.371C448.615 331.901 448.906 332.32 449.29 332.628C449.678 332.931 450.154 333.082 450.718 333.082ZM358.249 352.608V359H355.678V348.091H358.136V349.945H358.264C358.515 349.334 358.915 348.848 359.464 348.489C360.018 348.129 360.702 347.949 361.517 347.949C362.269 347.949 362.925 348.11 363.484 348.432C364.047 348.754 364.483 349.22 364.791 349.831C365.103 350.442 365.257 351.183 365.252 352.054V359H362.681V352.452C362.681 351.723 362.492 351.152 362.113 350.74C361.739 350.328 361.221 350.122 360.558 350.122C360.108 350.122 359.708 350.222 359.357 350.42C359.012 350.615 358.74 350.896 358.541 351.266C358.347 351.635 358.249 352.082 358.249 352.608ZM374.819 354.412V348.091H377.39V359H374.897V357.061H374.784C374.537 357.672 374.133 358.171 373.569 358.56C373.01 358.948 372.321 359.142 371.502 359.142C370.787 359.142 370.155 358.983 369.606 358.666C369.061 358.344 368.635 357.878 368.328 357.267C368.02 356.652 367.866 355.908 367.866 355.037V348.091H370.437V354.639C370.437 355.33 370.626 355.88 371.005 356.287C371.384 356.694 371.881 356.898 372.497 356.898C372.875 356.898 373.242 356.805 373.597 356.621C373.953 356.436 374.244 356.161 374.471 355.797C374.703 355.428 374.819 354.966 374.819 354.412ZM384.082 359.192C383.225 359.192 382.458 358.972 381.781 358.531C381.104 358.091 380.569 357.452 380.176 356.614C379.783 355.776 379.586 354.758 379.586 353.56C379.586 352.348 379.785 351.325 380.183 350.491C380.586 349.653 381.128 349.021 381.809 348.595C382.491 348.164 383.251 347.949 384.089 347.949C384.729 347.949 385.254 348.058 385.666 348.276C386.078 348.489 386.405 348.747 386.646 349.05C386.888 349.348 387.075 349.63 387.207 349.895H387.314V344.455H389.892V359H387.363V357.281H387.207C387.075 357.546 386.883 357.828 386.632 358.126C386.381 358.42 386.05 358.671 385.638 358.879C385.226 359.088 384.707 359.192 384.082 359.192ZM384.8 357.082C385.344 357.082 385.808 356.936 386.192 356.642C386.575 356.344 386.866 355.929 387.065 355.399C387.264 354.869 387.363 354.251 387.363 353.545C387.363 352.84 387.264 352.227 387.065 351.706C386.871 351.185 386.582 350.78 386.199 350.491C385.82 350.203 385.354 350.058 384.8 350.058C384.227 350.058 383.748 350.207 383.365 350.506C382.981 350.804 382.693 351.216 382.498 351.741C382.304 352.267 382.207 352.868 382.207 353.545C382.207 354.227 382.304 354.836 382.498 355.371C382.697 355.901 382.988 356.32 383.372 356.628C383.76 356.931 384.236 357.082 384.8 357.082ZM397.376 363.318C396.453 363.318 395.66 363.193 394.997 362.942C394.334 362.696 393.801 362.364 393.399 361.947C392.996 361.531 392.717 361.069 392.561 360.562L394.876 360.001C394.98 360.214 395.132 360.425 395.33 360.634C395.529 360.847 395.797 361.022 396.133 361.159C396.474 361.301 396.902 361.372 397.419 361.372C398.148 361.372 398.751 361.195 399.23 360.839C399.708 360.489 399.947 359.911 399.947 359.107V357.04H399.819C399.686 357.305 399.492 357.577 399.237 357.857C398.986 358.136 398.652 358.37 398.235 358.56C397.823 358.749 397.305 358.844 396.68 358.844C395.842 358.844 395.082 358.647 394.4 358.254C393.723 357.857 393.183 357.265 392.781 356.479C392.383 355.688 392.184 354.698 392.184 353.51C392.184 352.312 392.383 351.301 392.781 350.477C393.183 349.649 393.725 349.021 394.407 348.595C395.089 348.164 395.849 347.949 396.687 347.949C397.326 347.949 397.852 348.058 398.264 348.276C398.68 348.489 399.012 348.747 399.258 349.05C399.504 349.348 399.691 349.63 399.819 349.895H399.961V348.091H402.497V359.178C402.497 360.11 402.274 360.882 401.829 361.493C401.384 362.104 400.776 362.561 400.004 362.864C399.232 363.167 398.356 363.318 397.376 363.318ZM397.397 356.827C397.942 356.827 398.406 356.694 398.789 356.429C399.173 356.164 399.464 355.783 399.663 355.286C399.862 354.788 399.961 354.192 399.961 353.496C399.961 352.809 399.862 352.208 399.663 351.692C399.469 351.176 399.18 350.776 398.796 350.491C398.418 350.203 397.951 350.058 397.397 350.058C396.824 350.058 396.346 350.207 395.963 350.506C395.579 350.804 395.29 351.214 395.096 351.734C394.902 352.25 394.805 352.838 394.805 353.496C394.805 354.163 394.902 354.748 395.096 355.25C395.295 355.747 395.586 356.135 395.97 356.415C396.358 356.689 396.834 356.827 397.397 356.827ZM409.961 359.213C408.867 359.213 407.923 358.986 407.127 358.531C406.337 358.072 405.728 357.423 405.302 356.585C404.876 355.742 404.663 354.75 404.663 353.609C404.663 352.487 404.876 351.502 405.302 350.655C405.733 349.803 406.334 349.14 407.106 348.666C407.878 348.188 408.785 347.949 409.826 347.949C410.499 347.949 411.133 348.058 411.73 348.276C412.331 348.489 412.861 348.82 413.32 349.27C413.785 349.72 414.149 350.293 414.414 350.989C414.679 351.68 414.812 352.504 414.812 353.46V354.249H405.87V352.516H412.347C412.343 352.023 412.236 351.585 412.028 351.202C411.82 350.813 411.528 350.508 411.154 350.286C410.785 350.063 410.354 349.952 409.862 349.952C409.336 349.952 408.874 350.08 408.477 350.335C408.079 350.586 407.769 350.918 407.546 351.33C407.329 351.737 407.217 352.184 407.213 352.672V354.185C407.213 354.819 407.329 355.364 407.561 355.818C407.793 356.268 408.117 356.614 408.534 356.855C408.95 357.092 409.438 357.21 409.997 357.21C410.371 357.21 410.709 357.158 411.012 357.054C411.315 356.945 411.578 356.786 411.801 356.578C412.023 356.37 412.191 356.112 412.305 355.804L414.705 356.074C414.554 356.708 414.265 357.262 413.839 357.736C413.418 358.205 412.878 358.569 412.22 358.83C411.561 359.085 410.809 359.213 409.961 359.213ZM425.609 350.974L423.265 351.23C423.199 350.993 423.083 350.771 422.917 350.562C422.756 350.354 422.539 350.186 422.264 350.058C421.989 349.93 421.653 349.866 421.256 349.866C420.72 349.866 420.271 349.982 419.906 350.214C419.546 350.446 419.369 350.747 419.373 351.116C419.369 351.434 419.485 351.692 419.721 351.891C419.963 352.089 420.361 352.253 420.915 352.381L422.775 352.778C423.808 353.001 424.575 353.354 425.077 353.837C425.583 354.32 425.839 354.952 425.844 355.733C425.839 356.42 425.638 357.026 425.24 357.551C424.847 358.072 424.3 358.479 423.599 358.773C422.898 359.066 422.094 359.213 421.184 359.213C419.849 359.213 418.774 358.934 417.96 358.375C417.146 357.812 416.66 357.028 416.504 356.024L419.011 355.783C419.125 356.275 419.366 356.647 419.736 356.898C420.105 357.149 420.586 357.274 421.177 357.274C421.788 357.274 422.278 357.149 422.648 356.898C423.022 356.647 423.209 356.337 423.209 355.967C423.209 355.655 423.088 355.397 422.846 355.193C422.61 354.99 422.24 354.833 421.738 354.724L419.878 354.334C418.831 354.116 418.057 353.749 417.555 353.233C417.053 352.712 416.805 352.054 416.809 351.259C416.805 350.586 416.987 350.004 417.356 349.511C417.73 349.014 418.249 348.631 418.912 348.361C419.579 348.086 420.349 347.949 421.22 347.949C422.498 347.949 423.505 348.221 424.238 348.766C424.977 349.31 425.434 350.046 425.609 350.974Z" fill="#EEF6FF"></path>
<circle cx="678" cy="248" r="48" fill="url(#paint3_linear_2606_8283)" fill-opacity="0.5"></circle>
<rect x="565" y="128" width="142.219" height="137.747" fill="url(#pattern2_2606_8283)"></rect>
<path d="M602.162 335H599.349L604.47 320.455H607.723L612.851 335H610.038L606.153 323.438H606.04L602.162 335ZM602.254 329.297H609.925V331.413H602.254V329.297ZM621.606 330.412V324.091H624.177V335H621.684V333.061H621.571C621.324 333.672 620.92 334.171 620.356 334.56C619.797 334.948 619.109 335.142 618.289 335.142C617.574 335.142 616.942 334.983 616.393 334.666C615.849 334.344 615.422 333.878 615.115 333.267C614.807 332.652 614.653 331.908 614.653 331.037V324.091H617.224V330.639C617.224 331.33 617.413 331.88 617.792 332.287C618.171 332.694 618.668 332.898 619.284 332.898C619.663 332.898 620.029 332.805 620.385 332.621C620.74 332.436 621.031 332.161 621.258 331.797C621.49 331.428 621.606 330.966 621.606 330.412ZM630.869 335.192C630.012 335.192 629.245 334.972 628.568 334.531C627.891 334.091 627.356 333.452 626.963 332.614C626.57 331.776 626.374 330.758 626.374 329.56C626.374 328.348 626.572 327.325 626.97 326.491C627.373 325.653 627.915 325.021 628.597 324.595C629.278 324.164 630.038 323.949 630.876 323.949C631.516 323.949 632.041 324.058 632.453 324.276C632.865 324.489 633.192 324.747 633.433 325.05C633.675 325.348 633.862 325.63 633.994 325.895H634.101V320.455H636.679V335H634.151V333.281H633.994C633.862 333.546 633.67 333.828 633.419 334.126C633.168 334.42 632.837 334.671 632.425 334.879C632.013 335.088 631.494 335.192 630.869 335.192ZM631.587 333.082C632.131 333.082 632.595 332.936 632.979 332.642C633.362 332.344 633.653 331.929 633.852 331.399C634.051 330.869 634.151 330.251 634.151 329.545C634.151 328.84 634.051 328.227 633.852 327.706C633.658 327.185 633.369 326.78 632.986 326.491C632.607 326.203 632.141 326.058 631.587 326.058C631.014 326.058 630.536 326.207 630.152 326.506C629.768 326.804 629.48 327.216 629.286 327.741C629.091 328.267 628.994 328.868 628.994 329.545C628.994 330.227 629.091 330.836 629.286 331.371C629.484 331.901 629.776 332.32 630.159 332.628C630.547 332.931 631.023 333.082 631.587 333.082ZM639.419 335V324.091H641.99V335H639.419ZM640.711 322.543C640.304 322.543 639.954 322.408 639.66 322.138C639.367 321.863 639.22 321.534 639.22 321.151C639.22 320.762 639.367 320.433 639.66 320.163C639.954 319.889 640.304 319.751 640.711 319.751C641.123 319.751 641.474 319.889 641.762 320.163C642.056 320.433 642.203 320.762 642.203 321.151C642.203 321.534 642.056 321.863 641.762 322.138C641.474 322.408 641.123 322.543 640.711 322.543ZM650.081 324.091V326.08H643.81V324.091H650.081ZM645.358 321.477H647.929V331.719C647.929 332.064 647.981 332.33 648.085 332.514C648.194 332.694 648.336 332.817 648.511 332.884C648.687 332.95 648.881 332.983 649.094 332.983C649.255 332.983 649.402 332.971 649.534 332.947C649.671 332.924 649.776 332.902 649.847 332.884L650.28 334.893C650.143 334.941 649.946 334.993 649.69 335.05C649.439 335.107 649.132 335.14 648.767 335.149C648.123 335.168 647.543 335.071 647.027 334.858C646.511 334.64 646.101 334.304 645.798 333.849C645.5 333.395 645.353 332.827 645.358 332.145V321.477ZM660.331 335.22C659.64 335.22 659.017 335.097 658.463 334.851C657.914 334.6 657.479 334.231 657.157 333.743C656.839 333.255 656.681 332.654 656.681 331.939C656.681 331.323 656.794 330.814 657.022 330.412C657.249 330.009 657.559 329.688 657.952 329.446C658.345 329.205 658.788 329.022 659.28 328.899C659.777 328.771 660.291 328.679 660.821 328.622C661.461 328.556 661.979 328.497 662.377 328.445C662.775 328.388 663.063 328.303 663.243 328.189C663.428 328.071 663.52 327.888 663.52 327.642V327.599C663.52 327.064 663.362 326.65 663.044 326.357C662.727 326.063 662.27 325.916 661.674 325.916C661.044 325.916 660.544 326.054 660.175 326.328C659.81 326.603 659.564 326.927 659.436 327.301L657.036 326.96C657.225 326.297 657.538 325.743 657.973 325.298C658.409 324.848 658.942 324.512 659.571 324.29C660.201 324.062 660.897 323.949 661.659 323.949C662.185 323.949 662.708 324.01 663.229 324.134C663.75 324.257 664.226 324.46 664.657 324.744C665.087 325.024 665.433 325.405 665.694 325.888C665.959 326.371 666.091 326.974 666.091 327.699V335H663.62V333.501H663.534C663.378 333.804 663.158 334.089 662.874 334.354C662.595 334.614 662.242 334.825 661.816 334.986C661.394 335.142 660.9 335.22 660.331 335.22ZM660.999 333.331C661.515 333.331 661.962 333.229 662.341 333.026C662.72 332.817 663.011 332.543 663.215 332.202C663.423 331.861 663.527 331.489 663.527 331.087V329.801C663.447 329.867 663.31 329.929 663.115 329.986C662.926 330.043 662.713 330.092 662.476 330.135C662.239 330.178 662.005 330.215 661.773 330.249C661.541 330.282 661.34 330.31 661.169 330.334C660.786 330.386 660.443 330.471 660.14 330.589C659.837 330.708 659.597 330.874 659.422 331.087C659.247 331.295 659.159 331.565 659.159 331.896C659.159 332.37 659.332 332.727 659.678 332.969C660.024 333.21 660.464 333.331 660.999 333.331ZM671.248 328.608V335H668.676V324.091H671.134V325.945H671.262C671.513 325.334 671.913 324.848 672.462 324.489C673.016 324.129 673.7 323.949 674.515 323.949C675.267 323.949 675.923 324.11 676.482 324.432C677.045 324.754 677.481 325.22 677.789 325.831C678.101 326.442 678.255 327.183 678.25 328.054V335H675.679V328.452C675.679 327.723 675.49 327.152 675.111 326.74C674.737 326.328 674.219 326.122 673.556 326.122C673.106 326.122 672.706 326.222 672.355 326.42C672.01 326.615 671.738 326.896 671.539 327.266C671.345 327.635 671.248 328.082 671.248 328.608ZM684.912 335.192C684.055 335.192 683.288 334.972 682.611 334.531C681.934 334.091 681.399 333.452 681.006 332.614C680.613 331.776 680.417 330.758 680.417 329.56C680.417 328.348 680.615 327.325 681.013 326.491C681.416 325.653 681.958 325.021 682.64 324.595C683.321 324.164 684.081 323.949 684.919 323.949C685.559 323.949 686.084 324.058 686.496 324.276C686.908 324.489 687.235 324.747 687.476 325.05C687.718 325.348 687.905 325.63 688.037 325.895H688.144V320.455H690.722V335H688.194V333.281H688.037C687.905 333.546 687.713 333.828 687.462 334.126C687.211 334.42 686.88 334.671 686.468 334.879C686.056 335.088 685.537 335.192 684.912 335.192ZM685.63 333.082C686.174 333.082 686.638 332.936 687.022 332.642C687.405 332.344 687.696 331.929 687.895 331.399C688.094 330.869 688.194 330.251 688.194 329.545C688.194 328.84 688.094 328.227 687.895 327.706C687.701 327.185 687.412 326.78 687.029 326.491C686.65 326.203 686.184 326.058 685.63 326.058C685.057 326.058 684.578 326.207 684.195 326.506C683.811 326.804 683.523 327.216 683.328 327.741C683.134 328.267 683.037 328.868 683.037 329.545C683.037 330.227 683.134 330.836 683.328 331.371C683.527 331.901 683.819 332.32 684.202 332.628C684.59 332.931 685.066 333.082 685.63 333.082ZM594.319 363.318C593.396 363.318 592.603 363.193 591.94 362.942C591.277 362.696 590.744 362.364 590.342 361.947C589.94 361.531 589.66 361.069 589.504 360.562L591.819 360.001C591.923 360.214 592.075 360.425 592.274 360.634C592.473 360.847 592.74 361.022 593.076 361.159C593.417 361.301 593.846 361.372 594.362 361.372C595.091 361.372 595.695 361.195 596.173 360.839C596.651 360.489 596.89 359.911 596.89 359.107V357.04H596.762C596.63 357.305 596.436 357.577 596.18 357.857C595.929 358.136 595.595 358.37 595.179 358.56C594.767 358.749 594.248 358.844 593.623 358.844C592.785 358.844 592.025 358.647 591.343 358.254C590.666 357.857 590.127 357.265 589.724 356.479C589.326 355.688 589.127 354.698 589.127 353.51C589.127 352.312 589.326 351.301 589.724 350.477C590.127 349.649 590.669 349.021 591.35 348.595C592.032 348.164 592.792 347.949 593.63 347.949C594.27 347.949 594.795 348.058 595.207 348.276C595.624 348.489 595.955 348.747 596.201 349.05C596.448 349.348 596.635 349.63 596.762 349.895H596.904V348.091H599.44V359.178C599.44 360.11 599.217 360.882 598.772 361.493C598.327 362.104 597.719 362.561 596.947 362.864C596.175 363.167 595.299 363.318 594.319 363.318ZM594.341 356.827C594.885 356.827 595.349 356.694 595.733 356.429C596.116 356.164 596.407 355.783 596.606 355.286C596.805 354.788 596.904 354.192 596.904 353.496C596.904 352.809 596.805 352.208 596.606 351.692C596.412 351.176 596.123 350.776 595.74 350.491C595.361 350.203 594.895 350.058 594.341 350.058C593.768 350.058 593.289 350.207 592.906 350.506C592.522 350.804 592.234 351.214 592.039 351.734C591.845 352.25 591.748 352.838 591.748 353.496C591.748 354.163 591.845 354.748 592.039 355.25C592.238 355.747 592.529 356.135 592.913 356.415C593.301 356.689 593.777 356.827 594.341 356.827ZM606.833 359.213C605.768 359.213 604.845 358.979 604.064 358.51C603.282 358.041 602.676 357.385 602.245 356.543C601.819 355.7 601.606 354.715 601.606 353.588C601.606 352.461 601.819 351.474 602.245 350.626C602.676 349.779 603.282 349.121 604.064 348.652C604.845 348.183 605.768 347.949 606.833 347.949C607.899 347.949 608.822 348.183 609.603 348.652C610.385 349.121 610.988 349.779 611.414 350.626C611.845 351.474 612.061 352.461 612.061 353.588C612.061 354.715 611.845 355.7 611.414 356.543C610.988 357.385 610.385 358.041 609.603 358.51C608.822 358.979 607.899 359.213 606.833 359.213ZM606.848 357.153C607.425 357.153 607.908 356.995 608.297 356.678C608.685 356.356 608.974 355.925 609.163 355.385C609.357 354.845 609.454 354.244 609.454 353.581C609.454 352.913 609.357 352.31 609.163 351.77C608.974 351.225 608.685 350.792 608.297 350.47C607.908 350.148 607.425 349.987 606.848 349.987C606.256 349.987 605.763 350.148 605.37 350.47C604.982 350.792 604.691 351.225 604.497 351.77C604.307 352.31 604.213 352.913 604.213 353.581C604.213 354.244 604.307 354.845 604.497 355.385C604.691 355.925 604.982 356.356 605.37 356.678C605.763 356.995 606.256 357.153 606.848 357.153ZM623.616 348.091L619.731 359H616.89L613.005 348.091H615.747L618.254 356.195H618.368L620.882 348.091H623.616ZM629.854 359.213C628.76 359.213 627.815 358.986 627.02 358.531C626.229 358.072 625.621 357.423 625.195 356.585C624.768 355.742 624.555 354.75 624.555 353.609C624.555 352.487 624.768 351.502 625.195 350.655C625.625 349.803 626.227 349.14 626.999 348.666C627.77 348.188 628.677 347.949 629.719 347.949C630.391 347.949 631.026 348.058 631.622 348.276C632.223 348.489 632.754 348.82 633.213 349.27C633.677 349.72 634.042 350.293 634.307 350.989C634.572 351.68 634.705 352.504 634.705 353.46V354.249H625.763V352.516H632.24C632.235 352.023 632.129 351.585 631.92 351.202C631.712 350.813 631.421 350.508 631.047 350.286C630.678 350.063 630.247 349.952 629.754 349.952C629.229 349.952 628.767 350.08 628.369 350.335C627.972 350.586 627.661 350.918 627.439 351.33C627.221 351.737 627.11 352.184 627.105 352.672V354.185C627.105 354.819 627.221 355.364 627.453 355.818C627.685 356.268 628.009 356.614 628.426 356.855C628.843 357.092 629.33 357.21 629.889 357.21C630.263 357.21 630.602 357.158 630.905 357.054C631.208 356.945 631.471 356.786 631.693 356.578C631.916 356.37 632.084 356.112 632.197 355.804L634.598 356.074C634.446 356.708 634.158 357.262 633.732 357.736C633.31 358.205 632.77 358.569 632.112 358.83C631.454 359.085 630.701 359.213 629.854 359.213ZM636.88 359V348.091H639.373V349.909H639.486C639.685 349.279 640.026 348.794 640.509 348.453C640.997 348.107 641.553 347.935 642.178 347.935C642.32 347.935 642.479 347.942 642.654 347.956C642.834 347.965 642.983 347.982 643.101 348.006V350.371C642.992 350.333 642.819 350.3 642.583 350.271C642.351 350.238 642.126 350.222 641.908 350.222C641.439 350.222 641.018 350.323 640.644 350.527C640.275 350.726 639.983 351.003 639.77 351.358C639.557 351.713 639.451 352.123 639.451 352.587V359H636.88ZM647.38 352.608V359H644.809V348.091H647.267V349.945H647.395C647.645 349.334 648.046 348.848 648.595 348.489C649.149 348.129 649.833 347.949 650.647 347.949C651.4 347.949 652.056 348.11 652.615 348.432C653.178 348.754 653.614 349.22 653.922 349.831C654.234 350.442 654.388 351.183 654.383 352.054V359H651.812V352.452C651.812 351.723 651.623 351.152 651.244 350.74C650.87 350.328 650.351 350.122 649.689 350.122C649.239 350.122 648.839 350.222 648.488 350.42C648.143 350.615 647.87 350.896 647.672 351.266C647.477 351.635 647.38 352.082 647.38 352.608ZM660.136 359.22C659.445 359.22 658.822 359.097 658.268 358.851C657.719 358.6 657.283 358.231 656.961 357.743C656.644 357.255 656.485 356.654 656.485 355.939C656.485 355.323 656.599 354.814 656.826 354.412C657.054 354.009 657.364 353.688 657.757 353.446C658.15 353.205 658.592 353.022 659.085 352.899C659.582 352.771 660.096 352.679 660.626 352.622C661.265 352.556 661.784 352.497 662.181 352.445C662.579 352.388 662.868 352.303 663.048 352.189C663.233 352.071 663.325 351.888 663.325 351.642V351.599C663.325 351.064 663.166 350.65 662.849 350.357C662.532 350.063 662.075 349.916 661.478 349.916C660.849 349.916 660.349 350.054 659.98 350.328C659.615 350.603 659.369 350.927 659.241 351.301L656.841 350.96C657.03 350.297 657.342 349.743 657.778 349.298C658.214 348.848 658.746 348.512 659.376 348.29C660.006 348.062 660.702 347.949 661.464 347.949C661.99 347.949 662.513 348.01 663.034 348.134C663.555 348.257 664.03 348.46 664.461 348.744C664.892 349.024 665.238 349.405 665.498 349.888C665.763 350.371 665.896 350.974 665.896 351.699V359H663.424V357.501H663.339C663.183 357.804 662.963 358.089 662.679 358.354C662.399 358.614 662.047 358.825 661.62 358.986C661.199 359.142 660.704 359.22 660.136 359.22ZM660.804 357.331C661.32 357.331 661.767 357.229 662.146 357.026C662.525 356.817 662.816 356.543 663.02 356.202C663.228 355.861 663.332 355.489 663.332 355.087V353.801C663.252 353.867 663.114 353.929 662.92 353.986C662.731 354.043 662.518 354.092 662.281 354.135C662.044 354.178 661.81 354.215 661.578 354.249C661.346 354.282 661.145 354.31 660.974 354.334C660.591 354.386 660.247 354.471 659.944 354.589C659.641 354.708 659.402 354.874 659.227 355.087C659.052 355.295 658.964 355.565 658.964 355.896C658.964 356.37 659.137 356.727 659.483 356.969C659.828 357.21 660.269 357.331 660.804 357.331ZM671.052 352.608V359H668.481V348.091H670.939V349.945H671.066C671.317 349.334 671.717 348.848 672.267 348.489C672.821 348.129 673.505 347.949 674.319 347.949C675.072 347.949 675.728 348.11 676.287 348.432C676.85 348.754 677.286 349.22 677.593 349.831C677.906 350.442 678.06 351.183 678.055 352.054V359H675.484V352.452C675.484 351.723 675.295 351.152 674.916 350.74C674.542 350.328 674.023 350.122 673.36 350.122C672.911 350.122 672.511 350.222 672.16 350.42C671.815 350.615 671.542 350.896 671.343 351.266C671.149 351.635 671.052 352.082 671.052 352.608ZM685.427 359.213C684.338 359.213 683.403 358.974 682.622 358.496C681.845 358.018 681.246 357.357 680.825 356.514C680.408 355.667 680.2 354.691 680.2 353.588C680.2 352.48 680.413 351.502 680.839 350.655C681.265 349.803 681.867 349.14 682.643 348.666C683.424 348.188 684.348 347.949 685.413 347.949C686.298 347.949 687.082 348.112 687.764 348.439C688.45 348.761 688.997 349.218 689.404 349.81C689.812 350.397 690.044 351.083 690.1 351.869H687.643C687.544 351.344 687.307 350.906 686.933 350.555C686.564 350.2 686.069 350.023 685.449 350.023C684.923 350.023 684.461 350.165 684.064 350.449C683.666 350.728 683.356 351.131 683.133 351.656C682.915 352.182 682.806 352.812 682.806 353.545C682.806 354.289 682.915 354.928 683.133 355.463C683.351 355.993 683.656 356.403 684.049 356.692C684.447 356.976 684.913 357.118 685.449 357.118C685.827 357.118 686.166 357.047 686.464 356.905C686.767 356.758 687.02 356.547 687.224 356.273C687.428 355.998 687.567 355.664 687.643 355.271H690.1C690.039 356.043 689.812 356.727 689.419 357.324C689.026 357.916 688.491 358.38 687.814 358.716C687.136 359.047 686.341 359.213 685.427 359.213ZM697.041 359.213C695.947 359.213 695.003 358.986 694.207 358.531C693.417 358.072 692.808 357.423 692.382 356.585C691.956 355.742 691.743 354.75 691.743 353.609C691.743 352.487 691.956 351.502 692.382 350.655C692.813 349.803 693.414 349.14 694.186 348.666C694.958 348.188 695.865 347.949 696.906 347.949C697.579 347.949 698.213 348.058 698.81 348.276C699.411 348.489 699.941 348.82 700.401 349.27C700.865 349.72 701.229 350.293 701.494 350.989C701.759 351.68 701.892 352.504 701.892 353.46V354.249H692.95V352.516H699.428C699.423 352.023 699.316 351.585 699.108 351.202C698.9 350.813 698.608 350.508 698.234 350.286C697.865 350.063 697.434 349.952 696.942 349.952C696.416 349.952 695.955 350.08 695.557 350.335C695.159 350.586 694.849 350.918 694.626 351.33C694.409 351.737 694.297 352.184 694.293 352.672V354.185C694.293 354.819 694.409 355.364 694.641 355.818C694.873 356.268 695.197 356.614 695.614 356.855C696.03 357.092 696.518 357.21 697.077 357.21C697.451 357.21 697.789 357.158 698.092 357.054C698.395 356.945 698.658 356.786 698.881 356.578C699.103 356.37 699.271 356.112 699.385 355.804L701.786 356.074C701.634 356.708 701.345 357.262 700.919 357.736C700.498 358.205 699.958 358.569 699.3 358.83C698.642 359.085 697.889 359.213 697.041 359.213Z" fill="#EEF6FF"></path>
<defs>
<pattern id="pattern0_2606_8283" patternContentUnits="objectBoundingBox" width="1" height="1">
<use xlink:href="#image0_2606_8283" transform="matrix(0.00145268 0 0 0.00146321 -0.399281 -0.0652174)"></use>
</pattern>
<pattern id="pattern1_2606_8283" patternContentUnits="objectBoundingBox" width="1" height="1">
<use xlink:href="#image1_2606_8283" transform="matrix(0.000594701 0 0 0.000736297 -0.108974 -0.000682044)"></use>
</pattern>
<pattern id="pattern2_2606_8283" patternContentUnits="objectBoundingBox" width="1" height="1">
<use xlink:href="#image2_2606_8283" transform="matrix(0.000726597 0 0 0.000750188 -0.226597 0)"></use>
</pattern>
<linearGradient id="paint0_linear_2606_8283" x1="-33.9565" y1="4.72728" x2="886.819" y2="89.5506" gradientUnits="userSpaceOnUse">
<stop stop-color="#4843C1"></stop>
<stop offset="1" stop-color="#2D35A7"></stop>
</linearGradient>
<linearGradient id="paint1_linear_2606_8283" x1="130.119" y1="196.746" x2="135.929" y2="281.362" gradientUnits="userSpaceOnUse">
<stop stop-color="#2BB2DF"></stop>
<stop offset="1" stop-color="#3842B1"></stop>
</linearGradient>
<linearGradient id="paint2_linear_2606_8283" x1="353.119" y1="196.746" x2="358.929" y2="281.362" gradientUnits="userSpaceOnUse">
<stop stop-color="#2BB2DF"></stop>
<stop offset="1" stop-color="#3842B1"></stop>
</linearGradient>
<linearGradient id="paint3_linear_2606_8283" x1="673.119" y1="196.746" x2="678.929" y2="281.362" gradientUnits="userSpaceOnUse">
<stop stop-color="#2BB2DF"></stop>
<stop offset="1" stop-color="#3842B1"></stop>
</linearGradient>
<image id="image0_2606_8283" width="1248" height="832" preserveAspectRatio="none"></image>
<image id="image1_2606_8283" width="2048" height="1360" preserveAspectRatio="none"></image>
<image id="image2_2606_8283" width="2000" height="1333" preserveAspectRatio="none"></image>
</defs>
</svg>