<svg width="267" height="197" viewBox="0 0 267 197" fill="none" xmlns="http://www.w3.org/2000/svg" xmlns:xlink="http://www.w3.org/1999/xlink">
<path d="M0 0L266.107 0V162.541H0L0 0Z" fill="url(#pattern0_863_2085)"></path>
<path d="M39.5547 189.808V165.868H43.7591V174.822H43.9333C44.1501 174.386 44.456 173.922 44.8508 173.431C45.2457 172.933 45.78 172.508 46.4536 172.157C47.1273 171.799 47.9867 171.619 49.032 171.619C50.4102 171.619 51.653 171.974 52.7602 172.683C53.8752 173.385 54.7579 174.425 55.4083 175.804C56.0664 177.176 56.3955 178.859 56.3955 180.854C56.3955 182.826 56.0742 184.501 55.4315 185.88C54.7889 187.26 53.9139 188.312 52.8067 189.036C51.6994 189.761 50.4451 190.124 49.0436 190.124C48.0216 190.124 47.1737 189.952 46.5001 189.609C45.8264 189.266 45.2844 188.853 44.8741 188.37C44.4714 187.879 44.1578 187.416 43.9333 186.979H43.6894V189.808H39.5547ZM43.6778 180.831C43.6778 181.992 43.8404 183.009 44.1656 183.882C44.4985 184.754 44.9747 185.436 45.5942 185.927C46.2213 186.41 46.9801 186.652 47.8706 186.652C48.7997 186.652 49.5779 186.403 50.2051 185.904C50.8322 185.397 51.3046 184.708 51.622 183.835C51.9472 182.954 52.1098 181.953 52.1098 180.831C52.1098 179.716 51.9511 178.727 51.6336 177.862C51.3162 176.997 50.8439 176.319 50.2167 175.828C49.5895 175.337 48.8075 175.091 47.8706 175.091C46.9724 175.091 46.2097 175.329 45.5825 175.804C44.9554 176.28 44.4792 176.946 44.154 177.803C43.8365 178.66 43.6778 179.669 43.6778 180.831Z" fill="url(#paint0_linear_863_2085)"></path>
<path d="M61.9762 196.541C61.4032 196.541 60.8729 196.494 60.3851 196.401C59.905 196.315 59.5217 196.214 59.2352 196.097L60.2108 192.8C60.8225 192.98 61.3684 193.065 61.8485 193.058C62.3285 193.05 62.7505 192.898 63.1144 192.602C63.4861 192.313 63.7997 191.83 64.0552 191.152L64.4152 190.182L57.946 171.853H62.406L66.5174 185.413H66.7033L70.8264 171.853H75.2979L68.1551 191.982C67.8221 192.933 67.3808 193.747 66.831 194.425C66.2813 195.111 65.6076 195.633 64.8101 195.992C64.0203 196.358 63.0757 196.541 61.9762 196.541Z" fill="url(#paint1_linear_863_2085)"></path>
<path d="M99.4325 172.449C99.3242 171.429 98.8673 170.634 98.0621 170.065C97.2645 169.496 96.227 169.211 94.9494 169.211C94.0512 169.211 93.2808 169.348 92.6381 169.621C91.9955 169.893 91.5038 170.263 91.1631 170.731C90.8224 171.199 90.6482 171.732 90.6405 172.332C90.6405 172.831 90.7527 173.264 90.9773 173.63C91.2096 173.996 91.5232 174.308 91.9181 174.565C92.3129 174.815 92.7504 175.025 93.2305 175.196C93.7105 175.368 94.1945 175.512 94.6823 175.629L96.9122 176.19C97.8104 176.4 98.6737 176.685 99.5022 177.043C100.338 177.402 101.086 177.854 101.744 178.399C102.41 178.945 102.936 179.603 103.323 180.375C103.711 181.146 103.904 182.05 103.904 183.087C103.904 184.489 103.548 185.725 102.836 186.792C102.123 187.852 101.093 188.682 99.7461 189.282C98.4066 189.874 96.7845 190.17 94.8797 190.17C93.0292 190.17 91.4225 189.882 90.0598 189.305C88.7047 188.729 87.644 187.887 86.8774 186.78C86.1186 185.674 85.7082 184.326 85.6463 182.736H89.8855C89.9475 183.57 90.203 184.263 90.6521 184.817C91.1012 185.37 91.6858 185.783 92.4059 186.056C93.1337 186.328 93.9467 186.465 94.8449 186.465C95.7818 186.465 96.6025 186.325 97.3071 186.044C98.0195 185.756 98.577 185.358 98.9796 184.852C99.3822 184.337 99.5874 183.737 99.5952 183.052C99.5874 182.428 99.4054 181.914 99.0493 181.509C98.6931 181.096 98.1937 180.753 97.551 180.48C96.9161 180.199 96.1728 179.95 95.3211 179.732L92.6149 179.03C90.656 178.524 89.1074 177.756 87.9692 176.728C86.8387 175.691 86.2735 174.316 86.2735 172.601C86.2735 171.191 86.6529 169.956 87.4117 168.896C88.1782 167.836 89.2197 167.014 90.5359 166.429C91.8522 165.837 93.3428 165.541 95.0075 165.541C96.6954 165.541 98.1743 165.837 99.4442 166.429C100.722 167.014 101.724 167.828 102.452 168.872C103.18 169.909 103.556 171.101 103.579 172.449H99.4325Z" fill="url(#paint2_linear_863_2085)"></path>
<path d="M116.468 171.853V175.126H106.212V171.853H116.468ZM108.744 167.552H112.949V184.408C112.949 184.976 113.034 185.413 113.204 185.717C113.382 186.013 113.615 186.215 113.901 186.325C114.188 186.434 114.505 186.488 114.854 186.488C115.117 186.488 115.357 186.469 115.574 186.43C115.798 186.391 115.969 186.356 116.085 186.325L116.793 189.633C116.569 189.711 116.247 189.796 115.829 189.89C115.419 189.983 114.915 190.038 114.319 190.053C113.266 190.085 112.318 189.925 111.474 189.574C110.63 189.216 109.96 188.662 109.464 187.914C108.977 187.166 108.737 186.231 108.744 185.109V167.552Z" fill="url(#paint3_linear_863_2085)"></path>
<path d="M119.984 189.808V171.853H124.061V174.846H124.247C124.572 173.809 125.129 173.01 125.919 172.449C126.717 171.881 127.626 171.596 128.648 171.596C128.881 171.596 129.14 171.608 129.427 171.631C129.721 171.647 129.965 171.674 130.158 171.713V175.605C129.98 175.543 129.698 175.489 129.311 175.442C128.931 175.387 128.563 175.36 128.207 175.36C127.441 175.36 126.751 175.528 126.14 175.863C125.536 176.19 125.06 176.646 124.711 177.23C124.363 177.815 124.189 178.489 124.189 179.253V189.808H119.984Z" fill="url(#paint4_linear_863_2085)"></path>
<path d="M140.115 190.159C138.326 190.159 136.781 189.785 135.481 189.036C134.188 188.281 133.193 187.213 132.496 185.834C131.799 184.446 131.45 182.814 131.45 180.936C131.45 179.089 131.799 177.468 132.496 176.073C133.2 174.67 134.184 173.579 135.446 172.8C136.708 172.013 138.191 171.619 139.894 171.619C140.994 171.619 142.031 171.799 143.007 172.157C143.99 172.508 144.857 173.053 145.608 173.794C146.367 174.534 146.963 175.477 147.397 176.622C147.831 177.76 148.047 179.116 148.047 180.69V181.988H133.425V179.136H144.017C144.009 178.325 143.835 177.604 143.495 176.973C143.154 176.334 142.678 175.831 142.066 175.465C141.462 175.099 140.757 174.916 139.952 174.916C139.093 174.916 138.338 175.126 137.687 175.547C137.037 175.96 136.53 176.506 136.166 177.184C135.81 177.854 135.628 178.59 135.62 179.393V181.883C135.62 182.927 135.81 183.823 136.189 184.571C136.569 185.312 137.099 185.88 137.78 186.278C138.462 186.667 139.259 186.862 140.173 186.862C140.785 186.862 141.338 186.777 141.834 186.605C142.329 186.426 142.759 186.165 143.123 185.822C143.487 185.479 143.762 185.054 143.948 184.548L147.873 184.992C147.625 186.036 147.153 186.948 146.456 187.727C145.767 188.499 144.884 189.099 143.808 189.527C142.732 189.948 141.501 190.159 140.115 190.159Z" fill="url(#paint5_linear_863_2085)"></path>
<path d="M156.738 190.17C155.607 190.17 154.589 189.968 153.683 189.563C152.785 189.149 152.073 188.542 151.546 187.739C151.027 186.936 150.768 185.947 150.768 184.77C150.768 183.757 150.954 182.919 151.326 182.257C151.697 181.594 152.204 181.064 152.847 180.667C153.49 180.27 154.214 179.969 155.019 179.767C155.832 179.556 156.672 179.405 157.539 179.311C158.585 179.202 159.432 179.104 160.083 179.019C160.733 178.925 161.205 178.785 161.5 178.598C161.802 178.403 161.953 178.103 161.953 177.698V177.628C161.953 176.747 161.693 176.065 161.175 175.582C160.656 175.099 159.909 174.857 158.933 174.857C157.903 174.857 157.086 175.083 156.482 175.535C155.886 175.987 155.483 176.521 155.274 177.137L151.349 176.576C151.658 175.485 152.17 174.573 152.882 173.84C153.594 173.1 154.465 172.547 155.495 172.181C156.525 171.806 157.663 171.619 158.91 171.619C159.769 171.619 160.625 171.721 161.476 171.923C162.328 172.126 163.106 172.461 163.811 172.929C164.516 173.388 165.081 174.016 165.507 174.811C165.94 175.605 166.157 176.599 166.157 177.791V189.808H162.115V187.342H161.976C161.72 187.84 161.36 188.308 160.896 188.744C160.439 189.173 159.862 189.52 159.165 189.785C158.476 190.042 157.667 190.17 156.738 190.17ZM157.83 187.061C158.674 187.061 159.405 186.893 160.025 186.558C160.644 186.215 161.12 185.763 161.453 185.202C161.794 184.641 161.964 184.03 161.964 183.367V181.251C161.833 181.361 161.608 181.462 161.291 181.555C160.981 181.649 160.633 181.731 160.245 181.801C159.858 181.871 159.475 181.933 159.096 181.988C158.716 182.042 158.387 182.089 158.108 182.128C157.481 182.214 156.92 182.354 156.424 182.549C155.929 182.744 155.538 183.017 155.251 183.367C154.965 183.71 154.821 184.154 154.821 184.7C154.821 185.479 155.104 186.067 155.669 186.465C156.235 186.862 156.955 187.061 157.83 187.061Z" fill="url(#paint6_linear_863_2085)"></path>
<path d="M182.289 196.541V186.979H182.115C181.898 187.416 181.585 187.879 181.174 188.37C180.764 188.853 180.222 189.266 179.548 189.609C178.875 189.952 178.027 190.124 177.005 190.124C175.603 190.124 174.349 189.761 173.242 189.036C172.135 188.312 171.26 187.26 170.617 185.88C169.974 184.501 169.653 182.826 169.653 180.854C169.653 178.859 169.978 177.176 170.629 175.804C171.287 174.425 172.173 173.385 173.288 172.683C174.403 171.974 175.646 171.619 177.017 171.619C178.062 171.619 178.921 171.799 179.595 172.157C180.269 172.508 180.803 172.933 181.198 173.431C181.593 173.922 181.898 174.386 182.115 174.822H182.371V171.853H186.505V196.541H182.289ZM178.178 186.652C179.068 186.652 179.827 186.41 180.454 185.927C181.082 185.436 181.558 184.754 181.883 183.882C182.208 183.009 182.371 181.992 182.371 180.831C182.371 179.669 182.208 178.66 181.883 177.803C181.565 176.946 181.093 176.28 180.466 175.804C179.847 175.329 179.084 175.091 178.178 175.091C177.241 175.091 176.459 175.337 175.832 175.828C175.205 176.319 174.732 176.997 174.415 177.862C174.097 178.727 173.939 179.716 173.939 180.831C173.939 181.953 174.097 182.954 174.415 183.835C174.74 184.708 175.216 185.397 175.843 185.904C176.478 186.403 177.257 186.652 178.178 186.652Z" fill="url(#paint7_linear_863_2085)"></path>
<path d="M202.196 182.257V171.853H206.401V189.808H202.324V186.617H202.138C201.736 187.622 201.074 188.444 200.152 189.083C199.239 189.722 198.112 190.042 196.773 190.042C195.603 190.042 194.57 189.781 193.672 189.259C192.781 188.729 192.084 187.961 191.581 186.956C191.078 185.943 190.826 184.719 190.826 183.285V171.853H195.03V182.631C195.03 183.769 195.34 184.672 195.96 185.343C196.579 186.013 197.392 186.348 198.399 186.348C199.018 186.348 199.618 186.196 200.199 185.892C200.779 185.588 201.256 185.136 201.627 184.536C202.007 183.928 202.196 183.168 202.196 182.257Z" fill="url(#paint8_linear_863_2085)"></path>
<path d="M218.622 190.159C216.833 190.159 215.289 189.785 213.988 189.036C212.695 188.281 211.7 187.213 211.003 185.834C210.306 184.446 209.958 182.814 209.958 180.936C209.958 179.089 210.306 177.468 211.003 176.073C211.708 174.67 212.691 173.579 213.953 172.8C215.215 172.013 216.698 171.619 218.401 171.619C219.501 171.619 220.538 171.799 221.514 172.157C222.497 172.508 223.365 173.053 224.116 173.794C224.874 174.534 225.471 175.477 225.904 176.622C226.338 177.76 226.555 179.116 226.555 180.69V181.988H211.932V179.136H222.525C222.517 178.325 222.343 177.604 222.002 176.973C221.661 176.334 221.185 175.831 220.573 175.465C219.969 175.099 219.265 174.916 218.459 174.916C217.6 174.916 216.845 175.126 216.195 175.547C215.544 175.96 215.037 176.506 214.673 177.184C214.317 177.854 214.135 178.59 214.127 179.393V181.883C214.127 182.927 214.317 183.823 214.696 184.571C215.076 185.312 215.606 185.88 216.288 186.278C216.969 186.667 217.766 186.862 218.68 186.862C219.292 186.862 219.845 186.777 220.341 186.605C220.837 186.426 221.266 186.165 221.63 185.822C221.994 185.479 222.269 185.054 222.455 184.548L226.38 184.992C226.133 186.036 225.66 186.948 224.964 187.727C224.274 188.499 223.392 189.099 222.315 189.527C221.239 189.948 220.008 190.159 218.622 190.159Z" fill="url(#paint9_linear_863_2085)"></path>
<defs>
<pattern id="pattern0_863_2085" patternContentUnits="objectBoundingBox" width="1" height="1">
<use xlink:href="#image0_863_2085" transform="matrix(0.00103166 0 0 0.00168901 -0.277357 -0.344018)"></use>
</pattern>
<linearGradient id="paint0_linear_863_2085" x1="34.8108" y1="169.399" x2="226.726" y2="212.064" gradientUnits="userSpaceOnUse">
<stop stop-color="#2BB3DF"></stop>
<stop offset="1" stop-color="#3841B1"></stop>
</linearGradient>
<linearGradient id="paint1_linear_863_2085" x1="34.8108" y1="169.399" x2="226.726" y2="212.064" gradientUnits="userSpaceOnUse">
<stop stop-color="#2BB3DF"></stop>
<stop offset="1" stop-color="#3841B1"></stop>
</linearGradient>
<linearGradient id="paint2_linear_863_2085" x1="34.8108" y1="169.399" x2="226.726" y2="212.064" gradientUnits="userSpaceOnUse">
<stop stop-color="#2BB3DF"></stop>
<stop offset="1" stop-color="#3841B1"></stop>
</linearGradient>
<linearGradient id="paint3_linear_863_2085" x1="34.8108" y1="169.399" x2="226.726" y2="212.064" gradientUnits="userSpaceOnUse">
<stop stop-color="#2BB3DF"></stop>
<stop offset="1" stop-color="#3841B1"></stop>
</linearGradient>
<linearGradient id="paint4_linear_863_2085" x1="34.8108" y1="169.399" x2="226.726" y2="212.064" gradientUnits="userSpaceOnUse">
<stop stop-color="#2BB3DF"></stop>
<stop offset="1" stop-color="#3841B1"></stop>
</linearGradient>
<linearGradient id="paint5_linear_863_2085" x1="34.8108" y1="169.399" x2="226.726" y2="212.064" gradientUnits="userSpaceOnUse">
<stop stop-color="#2BB3DF"></stop>
<stop offset="1" stop-color="#3841B1"></stop>
</linearGradient>
<linearGradient id="paint6_linear_863_2085" x1="34.8108" y1="169.399" x2="226.726" y2="212.064" gradientUnits="userSpaceOnUse">
<stop stop-color="#2BB3DF"></stop>
<stop offset="1" stop-color="#3841B1"></stop>
</linearGradient>
<linearGradient id="paint7_linear_863_2085" x1="34.8108" y1="169.399" x2="226.726" y2="212.064" gradientUnits="userSpaceOnUse">
<stop stop-color="#2BB3DF"></stop>
<stop offset="1" stop-color="#3841B1"></stop>
</linearGradient>
<linearGradient id="paint8_linear_863_2085" x1="34.8108" y1="169.399" x2="226.726" y2="212.064" gradientUnits="userSpaceOnUse">
<stop stop-color="#2BB3DF"></stop>
<stop offset="1" stop-color="#3841B1"></stop>
</linearGradient>
<linearGradient id="paint9_linear_863_2085" x1="34.8108" y1="169.399" x2="226.726" y2="212.064" gradientUnits="userSpaceOnUse">
<stop stop-color="#2BB3DF"></stop>
<stop offset="1" stop-color="#3841B1"></stop>
</linearGradient>
<image id="image0_863_2085" width="1536" height="1024" preserveAspectRatio="none"></image>
</defs>
</svg>